<svg width="512" height="512" version="1.1" xmlns="http://www.w3.org/2000/svg" desc="Created with imagetracer.js version 1.2.6" ><path fill="rgb(247,209,211)" stroke="rgb(247,209,211)" stroke-width="1" opacity="1" d="M 262.5 164 L 265 167.5 L 263 166.5 L 262.5 164 Z " /><path fill="rgb(247,209,211)" stroke="rgb(247,209,211)" stroke-width="1" opacity="1" d="M 248.5 166 L 247.5 168 L 248.5 166 Z " /><path fill="rgb(247,209,211)" stroke="rgb(247,209,211)" stroke-width="1" opacity="1" d="M 241.5 179 L 238.5 183 L 241.5 179 Z " /><path fill="rgb(247,209,211)" stroke="rgb(247,209,211)" stroke-width="1" opacity="1" d="M 270.5 179 L 273.5 183 L 270.5 179 Z " /><path fill="rgb(247,209,211)" stroke="rgb(247,209,211)" stroke-width="1" opacity="1" d="M 218.5 182 L 219 184.5 L 218 184.5 L 218.5 182 Z " /><path fill="rgb(247,209,211)" stroke="rgb(247,209,211)" stroke-width="1" opacity="1" d="M 231.5 183 L 237 183.5 L 231.5 184 L 231.5 183 Z " /><path fill="rgb(247,209,211)" stroke="rgb(247,209,211)" stroke-width="1" opacity="1" d="M 275.5 183 L 281 183.5 L 275.5 184 L 275.5 183 Z " /><path fill="rgb(247,209,211)" stroke="rgb(247,209,211)" stroke-width="1" opacity="1" d="M 293.5 183 L 294 185.5 L 293 185.5 L 293.5 183 Z " /><path fill="rgb(247,209,211)" stroke="rgb(247,209,211)" stroke-width="1" opacity="1" d="M 219.5 188 L 220 190.5 L 219 190.5 L 219.5 188 Z " /><path fill="rgb(247,209,211)" stroke="rgb(247,209,211)" stroke-width="1" opacity="1" d="M 292.5 188 L 293 190.5 L 292 190.5 L 292.5 188 Z " /><path fill="rgb(247,209,211)" stroke="rgb(247,209,211)" stroke-width="1" opacity="1" d="M 220.5 194 L 221 196.5 L 220 196.5 L 220.5 194 Z " /><path fill="rgb(247,209,211)" stroke="rgb(247,209,211)" stroke-width="1" opacity="1" d="M 291.5 194 L 292 196.5 L 291 196.5 L 291.5 194 Z " /><path fill="rgb(247,209,211)" stroke="rgb(247,209,211)" stroke-width="1" opacity="1" d="M 221.5 200 L 222 202.5 L 221 202.5 L 221.5 200 Z " /><path fill="rgb(247,209,211)" stroke="rgb(247,209,211)" stroke-width="1" opacity="1" d="M 290.5 200 L 291 202.5 L 290 202.5 L 290.5 200 Z " /><path fill="rgb(247,209,211)" stroke="rgb(247,209,211)" stroke-width="1" opacity="1" d="M 222.5 206 L 223 208.5 L 222 208.5 L 222.5 206 Z " /><path fill="rgb(247,209,211)" stroke="rgb(247,209,211)" stroke-width="1" opacity="1" d="M 289.5 206 L 290 208.5 L 289 208.5 L 289.5 206 Z " /><path fill="rgb(247,209,211)" stroke="rgb(247,209,211)" stroke-width="1" opacity="1" d="M 288.5 212 L 289 214.5 L 288 214.5 L 288.5 212 Z " /><path fill="rgb(247,209,211)" stroke="rgb(247,209,211)" stroke-width="1" opacity="1" d="M 310.5 214 L 307.5 218 L 310.5 214 Z " /><path fill="rgb(247,209,211)" stroke="rgb(247,209,211)" stroke-width="1" opacity="1" d="M 202.5 215 L 205.5 219 L 202.5 215 Z " /><path fill="rgb(247,209,211)" stroke="rgb(247,209,211)" stroke-width="1" opacity="1" d="M 196.5 217 L 197 219.5 L 196 219.5 L 196.5 217 Z " /><path fill="rgb(247,209,211)" stroke="rgb(247,209,211)" stroke-width="1" opacity="1" d="M 224.5 217 L 225 219.5 L 224 219.5 L 224.5 217 Z " /><path fill="rgb(247,209,211)" stroke="rgb(247,209,211)" stroke-width="1" opacity="1" d="M 287.5 217 L 288 219.5 L 287 219.5 L 287.5 217 Z " /><path fill="rgb(247,209,211)" stroke="rgb(247,209,211)" stroke-width="1" opacity="1" d="M 315.5 217 L 316 219.5 L 315 219.5 L 315.5 217 Z " /><path fill="rgb(247,209,211)" stroke="rgb(247,209,211)" stroke-width="1" opacity="1" d="M 195.5 221 L 196 222.5 L 192 225.5 L 195.5 221 Z " /><path fill="rgb(247,209,211)" stroke="rgb(247,209,211)" stroke-width="1" opacity="1" d="M 207.5 221 L 211.5 226 L 207.5 221 Z " /><path fill="rgb(247,209,211)" stroke="rgb(247,209,211)" stroke-width="1" opacity="1" d="M 304.5 221 L 301.5 225 L 304.5 221 Z " /><path fill="rgb(247,209,211)" stroke="rgb(247,209,211)" stroke-width="1" opacity="1" d="M 163.5 223 L 164 226.5 L 163 226.5 L 163.5 223 Z " /><path fill="rgb(247,209,211)" stroke="rgb(247,209,211)" stroke-width="1" opacity="1" d="M 225.5 223 L 226 225.5 L 225 225.5 L 225.5 223 Z " /><path fill="rgb(247,209,211)" stroke="rgb(247,209,211)" stroke-width="1" opacity="1" d="M 286.5 223 L 287 225.5 L 286 225.5 L 286.5 223 Z " /><path fill="rgb(247,209,211)" stroke="rgb(247,209,211)" stroke-width="1" opacity="1" d="M 317.5 223 L 319.5 226 L 317.5 223 Z " /><path fill="rgb(247,209,211)" stroke="rgb(247,209,211)" stroke-width="1" opacity="1" d="M 348.5 224 L 349 226.5 L 348 226.5 L 348.5 224 Z " /><path fill="rgb(247,209,211)" stroke="rgb(247,209,211)" stroke-width="1" opacity="1" d="M 213.5 228 L 217.5 233 L 213.5 228 Z " /><path fill="rgb(247,209,211)" stroke="rgb(247,209,211)" stroke-width="1" opacity="1" d="M 298.5 228 L 295.5 232 L 298.5 228 Z " /><path fill="rgb(247,209,211)" stroke="rgb(247,209,211)" stroke-width="1" opacity="1" d="M 226.5 229 L 227 233.5 L 226 233.5 L 226.5 229 Z " /><path fill="rgb(247,209,211)" stroke="rgb(247,209,211)" stroke-width="1" opacity="1" d="M 285.5 229 L 286 233.5 L 285 233.5 L 285.5 229 Z " /><path fill="rgb(247,209,211)" stroke="rgb(247,209,211)" stroke-width="1" opacity="1" d="M 164.5 231 L 165 234.5 L 164 234.5 L 164.5 231 Z " /><path fill="rgb(247,209,211)" stroke="rgb(247,209,211)" stroke-width="1" opacity="1" d="M 347.5 231 L 348 234.5 L 347 234.5 L 347.5 231 Z " /><path fill="rgb(247,209,211)" stroke="rgb(247,209,211)" stroke-width="1" opacity="1" d="M 221.5 236 L 224 236.5 L 221.5 237 L 221.5 236 Z " /><path fill="rgb(247,209,211)" stroke="rgb(247,209,211)" stroke-width="1" opacity="1" d="M 288.5 236 L 291 236.5 L 288.5 237 L 288.5 236 Z " /><path fill="rgb(247,209,211)" stroke="rgb(247,209,211)" stroke-width="1" opacity="1" d="M 165.5 238 L 166 241.5 L 165 241.5 L 165.5 238 Z " /><path fill="rgb(247,209,211)" stroke="rgb(247,209,211)" stroke-width="1" opacity="1" d="M 346.5 239 L 347 241.5 L 346 241.5 L 346.5 239 Z " /><path fill="rgb(247,209,211)" stroke="rgb(247,209,211)" stroke-width="1" opacity="1" d="M 166.5 246 L 167 249.5 L 166 249.5 L 166.5 246 Z " /><path fill="rgb(247,209,211)" stroke="rgb(247,209,211)" stroke-width="1" opacity="1" d="M 345.5 246 L 346 249.5 L 345 249.5 L 345.5 246 Z " /><path fill="rgb(247,209,211)" stroke="rgb(247,209,211)" stroke-width="1" opacity="1" d="M 165.5 255 L 162.5 259 L 165.5 255 Z " /><path fill="rgb(247,209,211)" stroke="rgb(247,209,211)" stroke-width="1" opacity="1" d="M 346.5 255 L 349.5 259 L 346.5 255 Z " /><path fill="rgb(247,209,211)" stroke="rgb(247,209,211)" stroke-width="1" opacity="1" d="M 150.5 264 L 152.5 267 L 150.5 264 Z " /><path fill="rgb(247,209,211)" stroke="rgb(247,209,211)" stroke-width="1" opacity="1" d="M 355.5 268 L 354.5 270 L 355.5 268 Z " /><path fill="rgb(247,209,211)" stroke="rgb(247,209,211)" stroke-width="1" opacity="1" d="M 158.5 269 L 159.5 271 L 158.5 269 Z " /><path fill="rgb(247,209,211)" stroke="rgb(247,209,211)" stroke-width="1" opacity="1" d="M 348.5 272 L 347.5 274 L 348.5 272 Z " /><path fill="rgb(247,209,211)" stroke="rgb(247,209,211)" stroke-width="1" opacity="1" d="M 165.5 273 L 166.5 275 L 165.5 273 Z " /><path fill="rgb(247,209,211)" stroke="rgb(247,209,211)" stroke-width="1" opacity="1" d="M 341.5 276 L 340.5 278 L 341.5 276 Z " /><path fill="rgb(247,209,211)" stroke="rgb(247,209,211)" stroke-width="1" opacity="1" d="M 172.5 277 L 173.5 279 L 172.5 277 Z " /><path fill="rgb(247,209,211)" stroke="rgb(247,209,211)" stroke-width="1" opacity="1" d="M 334.5 280 L 333.5 282 L 334.5 280 Z " /><path fill="rgb(247,209,211)" stroke="rgb(247,209,211)" stroke-width="1" opacity="1" d="M 179.5 281 L 180.5 283 L 179.5 281 Z " /><path fill="rgb(247,209,211)" stroke="rgb(247,209,211)" stroke-width="1" opacity="1" d="M 327.5 284 L 326.5 286 L 327.5 284 Z " /><path fill="rgb(247,209,211)" stroke="rgb(247,209,211)" stroke-width="1" opacity="1" d="M 186.5 285 L 187.5 287 L 186.5 285 Z " /><path fill="rgb(247,209,211)" stroke="rgb(247,209,211)" stroke-width="1" opacity="1" d="M 320.5 288 L 319.5 290 L 320.5 288 Z " /><path fill="rgb(247,209,211)" stroke="rgb(247,209,211)" stroke-width="1" opacity="1" d="M 193.5 289 L 194.5 291 L 193.5 289 Z " /><path fill="rgb(247,209,211)" stroke="rgb(247,209,211)" stroke-width="1" opacity="1" d="M 313.5 292 L 312.5 294 L 313.5 292 Z " /><path fill="rgb(247,209,211)" stroke="rgb(247,209,211)" stroke-width="1" opacity="1" d="M 200.5 293 L 201.5 295 L 200.5 293 Z " /><path fill="rgb(247,209,211)" stroke="rgb(247,209,211)" stroke-width="1" opacity="1" d="M 203.5 295 L 206.5 299 L 203.5 295 Z " /><path fill="rgb(247,209,211)" stroke="rgb(247,209,211)" stroke-width="1" opacity="1" d="M 308.5 295 L 305.5 299 L 308.5 295 Z " /><path fill="rgb(247,209,211)" stroke="rgb(247,209,211)" stroke-width="1" opacity="1" d="M 208.5 303 L 209 308.5 L 208 308.5 L 208.5 303 Z " /><path fill="rgb(247,209,211)" stroke="rgb(247,209,211)" stroke-width="1" opacity="1" d="M 303.5 303 L 304 308.5 L 303 308.5 L 303.5 303 Z " /><path fill="rgb(247,209,211)" stroke="rgb(247,209,211)" stroke-width="1" opacity="1" d="M 246.5 318 L 250 318.5 L 246.5 319 L 246.5 318 Z " /><path fill="rgb(247,209,211)" stroke="rgb(247,209,211)" stroke-width="1" opacity="1" d="M 262.5 318 L 266 318.5 L 262.5 319 L 262.5 318 Z " /><path fill="rgb(247,209,211)" stroke="rgb(247,209,211)" stroke-width="1" opacity="1" d="M 235.5 319 L 241 319.5 L 235.5 320 L 235.5 319 Z " /><path fill="rgb(247,209,211)" stroke="rgb(247,209,211)" stroke-width="1" opacity="1" d="M 251.5 319 L 253 321.5 L 252 321.5 L 251.5 319 Z " /><path fill="rgb(247,209,211)" stroke="rgb(247,209,211)" stroke-width="1" opacity="1" d="M 260.5 319 L 260 320.5 L 259.5 322 L 259 320.5 L 260.5 319 Z " /><path fill="rgb(247,209,211)" stroke="rgb(247,209,211)" stroke-width="1" opacity="1" d="M 271.5 319 L 277 319.5 L 271.5 320 L 271.5 319 Z " /><path fill="rgb(247,209,211)" stroke="rgb(247,209,211)" stroke-width="1" opacity="1" d="M 223.5 320 L 229 320.5 L 223.5 321 L 223.5 320 Z " /><path fill="rgb(247,209,211)" stroke="rgb(247,209,211)" stroke-width="1" opacity="1" d="M 283.5 320 L 289 320.5 L 283.5 321 L 283.5 320 Z " /><path fill="rgb(247,209,211)" stroke="rgb(247,209,211)" stroke-width="1" opacity="1" d="M 203.5 321 L 204.5 323 L 203.5 321 Z " /><path fill="rgb(247,209,211)" stroke="rgb(247,209,211)" stroke-width="1" opacity="1" d="M 211.5 321 L 217 321.5 L 211.5 322 L 211.5 321 Z " /><path fill="rgb(247,209,211)" stroke="rgb(247,209,211)" stroke-width="1" opacity="1" d="M 295.5 321 L 301 321.5 L 295.5 322 L 295.5 321 Z " /><path fill="rgb(247,209,211)" stroke="rgb(247,209,211)" stroke-width="1" opacity="1" d="M 308.5 321 L 307.5 323 L 308.5 321 Z " /><path fill="rgb(247,209,211)" stroke="rgb(247,209,211)" stroke-width="1" opacity="1" d="M 252.5 326 L 253 343.5 L 252 343.5 L 252.5 326 Z " /><path fill="rgb(247,209,211)" stroke="rgb(247,209,211)" stroke-width="1" opacity="1" d="M 259.5 326 L 260 343.5 L 259 343.5 L 259.5 326 Z " /><path fill="rgb(247,209,211)" stroke="rgb(247,209,211)" stroke-width="1" opacity="1" d="M 251.5 360 L 252 370.5 L 251 370.5 L 251.5 360 Z " /><path fill="rgb(247,209,211)" stroke="rgb(247,209,211)" stroke-width="1" opacity="1" d="M 260.5 360 L 261 370.5 L 260 370.5 L 260.5 360 Z " /><path fill="rgb(253,90,99)" stroke="rgb(253,90,99)" stroke-width="1" opacity="0.792156862745098" d="M 31.5 88 L 114.5 88 L 115 88.5 L 115 424 L 31 423.5 L 114 423 L 114 89.5 L 113.5 89 L 31.5 89 L 31.5 88 Z " /><path fill="rgb(253,90,99)" stroke="rgb(253,90,99)" stroke-width="1" opacity="0.792156862745098" d="M 397 88 L 481 88.5 L 398 89 L 398 422.5 L 398.5 423 L 480.5 423 L 480.5 424 L 397.5 424 L 397 423.5 L 397 88 Z " /><path fill="rgb(253,90,99)" stroke="rgb(253,90,99)" stroke-width="1" opacity="0.792156862745098" d="M 27.5 89 L 30 89.5 L 27.5 90 L 27.5 89 Z " /><path fill="rgb(253,90,99)" stroke="rgb(253,90,99)" stroke-width="1" opacity="0.792156862745098" d="M 482.5 89 L 485 89.5 L 482.5 90 L 482.5 89 Z " /><path fill="rgb(253,90,99)" stroke="rgb(253,90,99)" stroke-width="1" opacity="0.792156862745098" d="M 24.5 90 L 26 90.5 Q 13.9 94.9 7 104.5 L 1.5 117 L 1 114.5 Q 4.3 104.3 11.5 98 L 24.5 90 Z " /><path fill="rgb(253,90,99)" stroke="rgb(253,90,99)" stroke-width="1" opacity="0.792156862745098" d="M 486.5 90 Q 496.9 93.1 503 100.5 Q 509 106.5 511 116.5 L 510 116.5 Q 506.5 102 495.5 95 L 486.5 91 L 486.5 90 Z " /><path fill="rgb(253,90,99)" stroke="rgb(253,90,99)" stroke-width="1" opacity="0.792156862745098" d="M 0.5 118 L 1 122.5 L 0 122.5 L 0.5 118 Z " /><path fill="rgb(253,90,99)" stroke="rgb(253,90,99)" stroke-width="1" opacity="0.792156862745098" d="M 511.5 118 L 512 122.5 L 511 122.5 L 511.5 118 Z " /><path fill="rgb(253,90,99)" stroke="rgb(253,90,99)" stroke-width="1" opacity="0.792156862745098" d="M 511.5 388 L 512 393.5 L 511 393.5 L 511.5 388 Z " /><path fill="rgb(253,90,99)" stroke="rgb(253,90,99)" stroke-width="1" opacity="0.792156862745098" d="M 0.5 389 L 1 393.5 L 0 393.5 L 0.5 389 Z " /><path fill="rgb(253,90,99)" stroke="rgb(253,90,99)" stroke-width="1" opacity="0.792156862745098" d="M 1.5 395 Q 4.9 409.1 15.5 416 L 30 422.5 L 27.5 423 Q 16 419.5 9 411.5 L 2 400.5 L 1.5 395 Z " /><path fill="rgb(253,90,99)" stroke="rgb(253,90,99)" stroke-width="1" opacity="0.792156862745098" d="M 510.5 395 L 511 397.5 Q 507.7 407.7 500.5 414 Q 495 419.5 486.5 422 L 486.5 421 Q 498.8 417.3 505 407.5 L 510.5 395 Z " /><path fill="rgb(253,90,99)" stroke="rgb(253,90,99)" stroke-width="1" opacity="0.792156862745098" d="M 482.5 422 L 485 422.5 L 482.5 423 L 482.5 422 Z " /><path fill="rgb(0,0,0)" stroke="rgb(0,0,0)" stroke-width="1" opacity="0" d="M 0 0 L 511.5 0 L 512 0.5 L 512 117.5 L 511 117.5 Q 508.7 103.8 499.5 97 Q 492 90.5 480.5 88 L 31.5 88 Q 17.1 91.1 9 100.5 L 2 111.5 L 0.5 118 L 0 0 Z " /><path fill="rgb(0,0,0)" stroke="rgb(0,0,0)" stroke-width="1" opacity="0" d="M 0.5 394 Q 3 407 11.5 414 Q 19.1 421.4 31.5 424 L 480.5 424 Q 494.9 420.9 503 411.5 L 510 400.5 L 511.5 394 L 512 512 L 0.5 512 L 0 511.5 L 0.5 394 Z " /><path fill="rgb(255,75,85)" stroke="rgb(255,75,85)" stroke-width="1" opacity="1" d="M 30.5 89 L 113.5 89 L 114 89.5 L 114 423 L 30.5 423 Q 15.2 418.8 7 407.5 L 3 400.5 L 0 388.5 L 0 123.5 L 5 107.5 L 15.5 96 L 30.5 89 Z " /><path fill="rgb(255,75,85)" stroke="rgb(255,75,85)" stroke-width="1" opacity="1" d="M 398 89 L 481.5 89 Q 497.1 92.9 505 104.5 L 509 111.5 L 512 123.5 L 512 387.5 L 508 402.5 L 495.5 417 L 481.5 423 L 398 423 L 398 89 Z " /><path fill="rgb(255,75,85)" stroke="rgb(255,75,85)" stroke-width="1" opacity="1" d="M 255 153 Q 257.7 151.9 257 154.5 L 270 179.5 L 273.5 183 L 280.5 184 L 294 180 L 285 233.5 Q 285.5 237.5 290.5 237 L 313.5 211 L 315 219.5 L 319.5 226 L 328.5 227 L 349 221 L 347 231.5 L 346 245.5 L 345 246.5 L 345 253.5 L 349.5 259 L 361 264 Q 362.1 266.7 359.5 266 L 313.5 292 L 305 298.5 Q 302.3 301.8 303 308.5 L 308 322 L 262.5 318 L 259 320.5 L 260 371 L 252.5 371 L 252 370.5 L 252 344.5 L 253 343.5 L 253 320.5 Q 251.6 317.4 246.5 318 L 245.5 319 L 235.5 319 L 234.5 320 L 223.5 320 L 222.5 321 L 204 322 L 209 308.5 L 209 303.5 Q 207.8 297.8 203.5 295 L 151 264.5 L 162.5 259 L 166 255.5 L 167 246.5 L 164 230.5 L 164 223.5 L 163 221 L 183.5 227 L 190.5 227 L 196 222.5 L 198.5 211 L 221.5 237 Q 226.5 237.5 227 233.5 L 218 180 L 231.5 184 L 236.5 184 L 242 179.5 L 255 153 Z " /><path fill="rgb(245,245,245)" stroke="rgb(245,245,245)" stroke-width="1" opacity="0.996078431372549" d="M 115.5 88 L 397 88.5 L 115.5 89 L 115.5 88 Z " /><path fill="rgb(245,245,245)" stroke="rgb(245,245,245)" stroke-width="1" opacity="0.996078431372549" d="M 115.5 423 L 397 423.5 L 115.5 424 L 115.5 423 Z " /><path fill="rgb(245,245,245)" stroke="rgb(245,245,245)" stroke-width="1" opacity="1" d="M 115 89 L 397 89 L 397 423 L 115 423 L 115 89 Z M 255 152 L 242 179 L 238 183 L 230 183 Q 225 180 218 180 L 222 209 L 226 227 L 226 235 Q 225 237 221 236 L 200 213 Q 201 210 198 211 L 195 223 L 190 227 L 186 227 L 163 220 L 166 250 L 167 251 L 166 255 L 162 259 L 150 265 L 203 295 L 208 302 L 208 311 L 204 321 Q 202 322 205 323 L 206 322 L 251 319 L 253 323 L 252 327 L 252 360 L 251 361 L 251 371 L 261 371 L 261 361 L 260 360 L 260 327 L 259 326 Q 258 320 262 319 L 307 322 Q 308 324 309 322 L 304 311 Q 303 303 305 300 L 310 295 L 361 266 Q 363 267 362 264 L 351 259 L 345 252 L 349 220 L 327 227 L 321 226 L 316 221 L 314 211 L 292 236 Q 287 237 286 235 L 286 227 L 289 215 L 294 180 Q 287 180 283 183 L 275 183 L 270 179 L 257 154 Q 258 151 255 152 Z " /></svg>