<svg width="512" height="512" version="1.1" xmlns="http://www.w3.org/2000/svg" desc="Created with imagetracer.js version 1.2.6" ><path fill="rgb(0,0,0)" stroke="rgb(0,0,0)" stroke-width="1" opacity="0.9098039215686274" d="M 12.5 31 L 15 31.5 L 12.5 32 L 12.5 31 Z " /><path fill="rgb(0,0,0)" stroke="rgb(0,0,0)" stroke-width="1" opacity="0.9098039215686274" d="M 0.5 43 L 1 48.5 L 0 48.5 L 0.5 43 Z " /><path fill="rgb(0,0,0)" stroke="rgb(0,0,0)" stroke-width="1" opacity="0.9098039215686274" d="M 12.5 60 L 15 60.5 L 12.5 61 L 12.5 60 Z " /><path fill="rgb(0,0,0)" stroke="rgb(0,0,0)" stroke-width="1" opacity="0.9098039215686274" d="M 511.5 103 L 512 107.5 L 511 107.5 L 511.5 103 Z " /><path fill="rgb(0,0,0)" stroke="rgb(0,0,0)" stroke-width="1" opacity="0.9098039215686274" d="M 136.5 311 L 131.5 317 L 136.5 311 Z " /><path fill="rgb(0,0,0)" stroke="rgb(0,0,0)" stroke-width="1" opacity="0.9098039215686274" d="M 120.5 342 L 121 344.5 L 120 344.5 L 120.5 342 Z " /><path fill="rgb(0,0,0)" stroke="rgb(0,0,0)" stroke-width="1" opacity="0.9098039215686274" d="M 120.5 346 L 121 348.5 L 120 348.5 L 120.5 346 Z " /><path fill="rgb(0,0,0)" stroke="rgb(0,0,0)" stroke-width="1" opacity="0.9098039215686274" d="M 437.5 361 L 440 361.5 L 437.5 362 L 437.5 361 Z " /><path fill="rgb(0,0,0)" stroke="rgb(0,0,0)" stroke-width="1" opacity="0.9098039215686274" d="M 451.5 373 L 452 378.5 L 451 378.5 L 451.5 373 Z " /><path fill="rgb(0,0,0)" stroke="rgb(0,0,0)" stroke-width="1" opacity="0.9098039215686274" d="M 132.5 376 L 134.5 379 L 132.5 376 Z " /><path fill="rgb(0,0,0)" stroke="rgb(0,0,0)" stroke-width="1" opacity="0.9098039215686274" d="M 162.5 390 L 165 390.5 L 162.5 391 L 162.5 390 Z " /><path fill="rgb(0,0,0)" stroke="rgb(0,0,0)" stroke-width="1" opacity="0.9098039215686274" d="M 437.5 390 L 440 390.5 L 437.5 391 L 437.5 390 Z " /><path fill="rgb(0,0,0)" stroke="rgb(0,0,0)" stroke-width="1" opacity="0.9098039215686274" d="M 192.5 391 L 198 391.5 L 192.5 392 L 192.5 391 Z " /><path fill="rgb(0,0,0)" stroke="rgb(0,0,0)" stroke-width="1" opacity="0.9098039215686274" d="M 404.5 391 L 410 391.5 L 404.5 392 L 404.5 391 Z " /><path fill="rgb(0,0,0)" stroke="rgb(0,0,0)" stroke-width="1" opacity="0.9098039215686274" d="M 164.5 403 L 162.5 406 L 164.5 403 Z " /><path fill="rgb(0,0,0)" stroke="rgb(0,0,0)" stroke-width="1" opacity="0.9098039215686274" d="M 225.5 403 L 227.5 406 L 225.5 403 Z " /><path fill="rgb(0,0,0)" stroke="rgb(0,0,0)" stroke-width="1" opacity="0.9098039215686274" d="M 376.5 403 L 374.5 406 L 376.5 403 Z " /><path fill="rgb(0,0,0)" stroke="rgb(0,0,0)" stroke-width="1" opacity="0.9098039215686274" d="M 437.5 403 L 439.5 406 L 437.5 403 Z " /><path fill="rgb(0,0,0)" stroke="rgb(0,0,0)" stroke-width="1" opacity="0.9098039215686274" d="M 150.5 433 L 151 438.5 L 150 438.5 L 150.5 433 Z " /><path fill="rgb(0,0,0)" stroke="rgb(0,0,0)" stroke-width="1" opacity="0.9098039215686274" d="M 239.5 433 L 240 438.5 L 239 438.5 L 239.5 433 Z " /><path fill="rgb(0,0,0)" stroke="rgb(0,0,0)" stroke-width="1" opacity="0.9098039215686274" d="M 362.5 433 L 363 438.5 L 362 438.5 L 362.5 433 Z " /><path fill="rgb(0,0,0)" stroke="rgb(0,0,0)" stroke-width="1" opacity="0.9098039215686274" d="M 451.5 433 L 452 438.5 L 451 438.5 L 451.5 433 Z " /><path fill="rgb(0,0,0)" stroke="rgb(0,0,0)" stroke-width="1" opacity="0.9098039215686274" d="M 162.5 466 L 164.5 469 L 162.5 466 Z " /><path fill="rgb(0,0,0)" stroke="rgb(0,0,0)" stroke-width="1" opacity="0.9098039215686274" d="M 227.5 466 L 225.5 469 L 227.5 466 Z " /><path fill="rgb(0,0,0)" stroke="rgb(0,0,0)" stroke-width="1" opacity="0.9098039215686274" d="M 374.5 466 L 376.5 469 L 374.5 466 Z " /><path fill="rgb(0,0,0)" stroke="rgb(0,0,0)" stroke-width="1" opacity="0.9098039215686274" d="M 439.5 466 L 437.5 469 L 439.5 466 Z " /><path fill="rgb(0,0,0)" stroke="rgb(0,0,0)" stroke-width="1" opacity="0.9098039215686274" d="M 192.5 480 L 198 480.5 L 192.5 481 L 192.5 480 Z " /><path fill="rgb(0,0,0)" stroke="rgb(0,0,0)" stroke-width="1" opacity="0.9098039215686274" d="M 404.5 480 L 410 480.5 L 404.5 481 L 404.5 480 Z " /><path fill="rgb(0,0,0)" stroke="rgb(0,0,0)" stroke-width="1" opacity="1" d="M 15.5 31 L 104.5 31 L 113.5 34 L 117 37.5 L 120 44.5 L 120 48.5 L 130 91 L 496.5 91 L 505.5 94 L 509 97.5 Q 512.7 101.8 511 111.5 L 453 314.5 L 449 324.5 L 445.5 328 L 436.5 331 L 160.5 331 L 152 337.5 Q 148.5 341.5 150 350.5 L 156.5 359 L 160.5 361 L 436.5 361 L 445.5 364 L 449 367.5 Q 452.5 371.5 451 380.5 L 445.5 388 L 436.5 391 L 165.5 391 L 164.5 390 L 152.5 389 L 141.5 384 L 129 372.5 L 123 361.5 L 120 345.5 L 121 344.5 L 122 333.5 L 127 322.5 L 138.5 310 L 147 306 L 146 295.5 L 144 290.5 L 144 286.5 L 142 281.5 L 142 277.5 L 140 272.5 L 140 268.5 L 138 263.5 L 138 259.5 L 136 254.5 L 136 250.5 L 134 245.5 L 134 241.5 L 132 236.5 L 132 232.5 L 130 227.5 L 130 223.5 L 128 218.5 L 128 214.5 L 126 209.5 L 126 205.5 L 124 200.5 L 124 196.5 L 122 191.5 L 122 187.5 L 120 182.5 L 120 178.5 L 118 173.5 L 118 169.5 L 116 164.5 L 94 61 L 15.5 61 L 6.5 58 L 3 54.5 Q -0.5 50.5 1 41.5 L 6.5 34 L 15.5 31 Z M 137 121 L 156 211 L 158 216 L 158 220 L 160 225 L 160 229 L 162 234 L 162 238 L 164 243 L 164 247 L 166 252 L 166 256 L 168 261 L 168 265 L 170 270 L 170 274 L 172 279 L 172 283 L 174 288 L 174 292 L 176 297 Q 175 301 177 301 L 426 301 L 427 300 L 477 125 L 477 121 L 137 121 Z " /><path fill="rgb(0,0,0)" stroke="rgb(0,0,0)" stroke-width="1" opacity="1" d="M 186.5 392 Q 201.4 390.1 210.5 394 Q 223.4 399.1 231 409.5 Q 236.7 416.8 239 427.5 L 239 444.5 Q 234.6 462.6 221.5 472 Q 214.2 477.7 203.5 480 L 186.5 480 Q 168.4 475.6 159 462.5 Q 153.3 455.2 151 444.5 L 151 427.5 Q 155.4 409.4 168.5 400 Q 175.8 394.3 186.5 392 Z M 191 421 L 187 423 L 180 432 Q 179 441 182 445 L 191 451 Q 200 453 204 449 L 210 441 Q 212 431 208 428 L 200 421 L 191 421 Z " /><path fill="rgb(0,0,0)" stroke="rgb(0,0,0)" stroke-width="1" opacity="1" d="M 398.5 392 Q 413.4 390.1 422.5 394 Q 435.4 399.1 443 409.5 Q 448.7 416.8 451 427.5 L 451 444.5 Q 446.6 462.6 433.5 472 Q 426.2 477.7 415.5 480 L 398.5 480 Q 380.4 475.6 371 462.5 Q 365.3 455.2 363 444.5 L 363 427.5 Q 367.4 409.4 380.5 400 Q 387.8 394.3 398.5 392 Z M 403 421 L 399 423 L 392 432 Q 391 441 394 445 L 403 451 Q 412 453 416 449 L 422 441 Q 424 431 420 428 L 412 421 L 403 421 Z " /><path fill="rgb(0,0,0)" stroke="rgb(0,0,0)" stroke-width="1" opacity="0" d="M 0 0 L 511.5 0 L 512 0.5 L 512 101.5 L 511 101.5 Q 510.6 96 506.5 94 L 500.5 91 L 130 91 L 121 45.5 Q 119.6 38 114.5 34 L 108.5 31 L 11.5 31 Q 5 32.5 2 37.5 L 0.5 42 L 0 0 Z " /><path fill="rgb(0,0,0)" stroke="rgb(0,0,0)" stroke-width="1" opacity="0" d="M 0.5 50 Q 1.6 56.4 6.5 59 L 11.5 61 L 93 61 L 147 305 Q 135.9 309.1 129 318.5 Q 118.5 329.5 120 352.5 Q 123.7 372.3 137.5 382 Q 145.6 388.9 158.5 391 L 188 391.5 Q 168.3 394.8 159 408.5 Q 148.5 419.5 150 442.5 Q 153.7 462.3 167.5 472 Q 178.5 482.5 201.5 481 Q 221.3 477.3 231 463.5 Q 241.5 452.5 240 429.5 Q 236.3 409.7 222.5 400 Q 214.9 393.1 202 391.5 L 399.5 391 L 399.5 392 Q 379.8 394.8 371 408.5 Q 360.5 419.5 362 442.5 Q 365.7 462.3 379.5 472 Q 390.5 482.5 413.5 481 Q 433.3 477.3 443 463.5 Q 453.5 452.5 452 429.5 Q 448.3 409.7 434.5 400 Q 426.9 393.1 414 391.5 L 440.5 391 Q 447 389.5 450 384.5 Q 453 380.5 452 372.5 Q 450.5 366 445.5 363 L 440.5 361 L 162.5 361 Q 155.3 359.2 152 353.5 Q 149.3 350.2 150 343.5 Q 151.8 336.3 157.5 333 L 162.5 331 L 440.5 331 L 450 324.5 L 511.5 111 L 512 512 L 0 512 L 0.5 50 Z " /><path fill="rgb(0,0,0)" stroke="rgb(0,0,0)" stroke-width="1" opacity="0" d="M 137.5 121 L 477 121.5 L 426 301 L 177.5 301 L 177 298.5 L 137.5 121 Z " /><path fill="rgb(0,0,0)" stroke="rgb(0,0,0)" stroke-width="1" opacity="0" d="M 192.5 421 Q 204.3 420.7 208 428.5 Q 210.7 431.8 210 438.5 Q 208.2 445.7 202.5 449 Q 199.2 451.7 192.5 451 Q 185.3 449.2 182 443.5 Q 179.3 440.2 180 433.5 Q 181.8 426.3 187.5 423 L 192.5 421 Z " /><path fill="rgb(0,0,0)" stroke="rgb(0,0,0)" stroke-width="1" opacity="0" d="M 404.5 421 Q 416.3 420.7 420 428.5 Q 422.7 431.8 422 438.5 Q 420.2 445.7 414.5 449 Q 411.2 451.7 404.5 451 Q 397.3 449.2 394 443.5 Q 391.3 440.2 392 433.5 Q 393.8 426.3 399.5 423 L 404.5 421 Z " /><path fill="rgb(0,0,0)" stroke="rgb(0,0,0)" stroke-width="1" opacity="0.5254901960784314" d="M 6.5 33 L 2.5 38 L 6.5 33 Z " /><path fill="rgb(0,0,0)" stroke="rgb(0,0,0)" stroke-width="1" opacity="0.5254901960784314" d="M 114.5 34 L 116.5 37 L 114.5 34 Z " /><path fill="rgb(0,0,0)" stroke="rgb(0,0,0)" stroke-width="1" opacity="0.5254901960784314" d="M 120.5 45 L 121 47.5 L 120 47.5 L 120.5 45 Z " /><path fill="rgb(0,0,0)" stroke="rgb(0,0,0)" stroke-width="1" opacity="0.5254901960784314" d="M 2.5 54 L 6.5 59 L 2.5 54 Z " /><path fill="rgb(0,0,0)" stroke="rgb(0,0,0)" stroke-width="1" opacity="0.5254901960784314" d="M 122.5 54 L 123 56.5 L 122 56.5 L 122.5 54 Z " /><path fill="rgb(0,0,0)" stroke="rgb(0,0,0)" stroke-width="1" opacity="0.5254901960784314" d="M 124.5 63 L 125 65.5 L 124 65.5 L 124.5 63 Z " /><path fill="rgb(0,0,0)" stroke="rgb(0,0,0)" stroke-width="1" opacity="0.5254901960784314" d="M 506.5 94 L 509.5 98 L 506.5 94 Z " /><path fill="rgb(0,0,0)" stroke="rgb(0,0,0)" stroke-width="1" opacity="0.5254901960784314" d="M 511.5 108 L 512 110.5 L 511 110.5 L 511.5 108 Z " /><path fill="rgb(0,0,0)" stroke="rgb(0,0,0)" stroke-width="1" opacity="0.5254901960784314" d="M 141.5 307 L 140.5 309 L 141.5 307 Z " /><path fill="rgb(0,0,0)" stroke="rgb(0,0,0)" stroke-width="1" opacity="0.5254901960784314" d="M 130.5 317 L 129.5 319 L 130.5 317 Z " /><path fill="rgb(0,0,0)" stroke="rgb(0,0,0)" stroke-width="1" opacity="0.5254901960784314" d="M 449.5 324 L 446.5 328 L 449.5 324 Z " /><path fill="rgb(0,0,0)" stroke="rgb(0,0,0)" stroke-width="1" opacity="0.5254901960784314" d="M 156.5 333 L 152.5 338 L 156.5 333 Z " /><path fill="rgb(0,0,0)" stroke="rgb(0,0,0)" stroke-width="1" opacity="0.5254901960784314" d="M 120.5 338 L 121 341.5 L 120 341.5 L 120.5 338 Z " /><path fill="rgb(0,0,0)" stroke="rgb(0,0,0)" stroke-width="1" opacity="0.5254901960784314" d="M 120.5 349 L 121 352.5 L 120 352.5 L 120.5 349 Z " /><path fill="rgb(0,0,0)" stroke="rgb(0,0,0)" stroke-width="1" opacity="0.5254901960784314" d="M 152.5 354 L 156.5 359 L 152.5 354 Z " /><path fill="rgb(0,0,0)" stroke="rgb(0,0,0)" stroke-width="1" opacity="0.5254901960784314" d="M 445.5 363 L 449.5 368 L 445.5 363 Z " /><path fill="rgb(0,0,0)" stroke="rgb(0,0,0)" stroke-width="1" opacity="0.5254901960784314" d="M 129.5 373 L 131.5 376 L 129.5 373 Z " /><path fill="rgb(0,0,0)" stroke="rgb(0,0,0)" stroke-width="1" opacity="0.5254901960784314" d="M 135.5 379 L 137.5 382 L 135.5 379 Z " /><path fill="rgb(0,0,0)" stroke="rgb(0,0,0)" stroke-width="1" opacity="0.5254901960784314" d="M 449.5 384 L 445.5 389 L 449.5 384 Z " /><path fill="rgb(0,0,0)" stroke="rgb(0,0,0)" stroke-width="1" opacity="0.5254901960784314" d="M 158.5 390 L 162 390.5 L 158.5 391 L 158.5 390 Z " /><path fill="rgb(0,0,0)" stroke="rgb(0,0,0)" stroke-width="1" opacity="0.5254901960784314" d="M 188.5 391 L 192 391.5 L 188.5 392 L 188.5 391 Z " /><path fill="rgb(0,0,0)" stroke="rgb(0,0,0)" stroke-width="1" opacity="0.5254901960784314" d="M 198.5 391 L 202 391.5 L 198.5 392 L 198.5 391 Z " /><path fill="rgb(0,0,0)" stroke="rgb(0,0,0)" stroke-width="1" opacity="0.5254901960784314" d="M 400.5 391 L 404 391.5 L 400.5 392 L 400.5 391 Z " /><path fill="rgb(0,0,0)" stroke="rgb(0,0,0)" stroke-width="1" opacity="0.5254901960784314" d="M 410.5 391 L 414 391.5 L 410.5 392 L 410.5 391 Z " /><path fill="rgb(0,0,0)" stroke="rgb(0,0,0)" stroke-width="1" opacity="0.5254901960784314" d="M 167.5 400 L 165.5 403 L 167.5 400 Z " /><path fill="rgb(0,0,0)" stroke="rgb(0,0,0)" stroke-width="1" opacity="0.5254901960784314" d="M 222.5 400 L 224.5 403 L 222.5 400 Z " /><path fill="rgb(0,0,0)" stroke="rgb(0,0,0)" stroke-width="1" opacity="0.5254901960784314" d="M 379.5 400 L 377.5 403 L 379.5 400 Z " /><path fill="rgb(0,0,0)" stroke="rgb(0,0,0)" stroke-width="1" opacity="0.5254901960784314" d="M 434.5 400 L 436.5 403 L 434.5 400 Z " /><path fill="rgb(0,0,0)" stroke="rgb(0,0,0)" stroke-width="1" opacity="0.5254901960784314" d="M 161.5 406 L 159.5 409 L 161.5 406 Z " /><path fill="rgb(0,0,0)" stroke="rgb(0,0,0)" stroke-width="1" opacity="0.5254901960784314" d="M 228.5 406 L 230.5 409 L 228.5 406 Z " /><path fill="rgb(0,0,0)" stroke="rgb(0,0,0)" stroke-width="1" opacity="0.5254901960784314" d="M 373.5 406 L 371.5 409 L 373.5 406 Z " /><path fill="rgb(0,0,0)" stroke="rgb(0,0,0)" stroke-width="1" opacity="0.5254901960784314" d="M 440.5 406 L 442.5 409 L 440.5 406 Z " /><path fill="rgb(0,0,0)" stroke="rgb(0,0,0)" stroke-width="1" opacity="0.5254901960784314" d="M 186.5 423 L 182.5 428 L 186.5 423 Z " /><path fill="rgb(0,0,0)" stroke="rgb(0,0,0)" stroke-width="1" opacity="0.5254901960784314" d="M 203.5 423 L 207.5 428 L 203.5 423 Z " /><path fill="rgb(0,0,0)" stroke="rgb(0,0,0)" stroke-width="1" opacity="0.5254901960784314" d="M 398.5 423 L 394.5 428 L 398.5 423 Z " /><path fill="rgb(0,0,0)" stroke="rgb(0,0,0)" stroke-width="1" opacity="0.5254901960784314" d="M 415.5 423 L 419.5 428 L 415.5 423 Z " /><path fill="rgb(0,0,0)" stroke="rgb(0,0,0)" stroke-width="1" opacity="0.5254901960784314" d="M 150.5 429 L 151 432.5 L 150 432.5 L 150.5 429 Z " /><path fill="rgb(0,0,0)" stroke="rgb(0,0,0)" stroke-width="1" opacity="0.5254901960784314" d="M 239.5 429 L 240 432.5 L 239 432.5 L 239.5 429 Z " /><path fill="rgb(0,0,0)" stroke="rgb(0,0,0)" stroke-width="1" opacity="0.5254901960784314" d="M 362.5 429 L 363 432.5 L 362 432.5 L 362.5 429 Z " /><path fill="rgb(0,0,0)" stroke="rgb(0,0,0)" stroke-width="1" opacity="0.5254901960784314" d="M 451.5 429 L 452 432.5 L 451 432.5 L 451.5 429 Z " /><path fill="rgb(0,0,0)" stroke="rgb(0,0,0)" stroke-width="1" opacity="0.5254901960784314" d="M 150.5 439 L 151 442.5 L 150 442.5 L 150.5 439 Z " /><path fill="rgb(0,0,0)" stroke="rgb(0,0,0)" stroke-width="1" opacity="0.5254901960784314" d="M 239.5 439 L 240 442.5 L 239 442.5 L 239.5 439 Z " /><path fill="rgb(0,0,0)" stroke="rgb(0,0,0)" stroke-width="1" opacity="0.5254901960784314" d="M 362.5 439 L 363 442.5 L 362 442.5 L 362.5 439 Z " /><path fill="rgb(0,0,0)" stroke="rgb(0,0,0)" stroke-width="1" opacity="0.5254901960784314" d="M 451.5 439 L 452 442.5 L 451 442.5 L 451.5 439 Z " /><path fill="rgb(0,0,0)" stroke="rgb(0,0,0)" stroke-width="1" opacity="0.5254901960784314" d="M 182.5 444 L 186.5 449 L 182.5 444 Z " /><path fill="rgb(0,0,0)" stroke="rgb(0,0,0)" stroke-width="1" opacity="0.5254901960784314" d="M 207.5 444 L 203.5 449 L 207.5 444 Z " /><path fill="rgb(0,0,0)" stroke="rgb(0,0,0)" stroke-width="1" opacity="0.5254901960784314" d="M 394.5 444 L 398.5 449 L 394.5 444 Z " /><path fill="rgb(0,0,0)" stroke="rgb(0,0,0)" stroke-width="1" opacity="0.5254901960784314" d="M 419.5 444 L 415.5 449 L 419.5 444 Z " /><path fill="rgb(0,0,0)" stroke="rgb(0,0,0)" stroke-width="1" opacity="0.5254901960784314" d="M 159.5 463 L 161.5 466 L 159.5 463 Z " /><path fill="rgb(0,0,0)" stroke="rgb(0,0,0)" stroke-width="1" opacity="0.5254901960784314" d="M 230.5 463 L 228.5 466 L 230.5 463 Z " /><path fill="rgb(0,0,0)" stroke="rgb(0,0,0)" stroke-width="1" opacity="0.5254901960784314" d="M 371.5 463 L 373.5 466 L 371.5 463 Z " /><path fill="rgb(0,0,0)" stroke="rgb(0,0,0)" stroke-width="1" opacity="0.5254901960784314" d="M 442.5 463 L 440.5 466 L 442.5 463 Z " /><path fill="rgb(0,0,0)" stroke="rgb(0,0,0)" stroke-width="1" opacity="0.5254901960784314" d="M 165.5 469 L 167.5 472 L 165.5 469 Z " /><path fill="rgb(0,0,0)" stroke="rgb(0,0,0)" stroke-width="1" opacity="0.5254901960784314" d="M 224.5 469 L 222.5 472 L 224.5 469 Z " /><path fill="rgb(0,0,0)" stroke="rgb(0,0,0)" stroke-width="1" opacity="0.5254901960784314" d="M 377.5 469 L 379.5 472 L 377.5 469 Z " /><path fill="rgb(0,0,0)" stroke="rgb(0,0,0)" stroke-width="1" opacity="0.5254901960784314" d="M 436.5 469 L 434.5 472 L 436.5 469 Z " /><path fill="rgb(0,0,0)" stroke="rgb(0,0,0)" stroke-width="1" opacity="0.5254901960784314" d="M 188.5 480 L 192 480.5 L 188.5 481 L 188.5 480 Z " /><path fill="rgb(0,0,0)" stroke="rgb(0,0,0)" stroke-width="1" opacity="0.5254901960784314" d="M 198.5 480 L 202 480.5 L 198.5 481 L 198.5 480 Z " /><path fill="rgb(0,0,0)" stroke="rgb(0,0,0)" stroke-width="1" opacity="0.5254901960784314" d="M 400.5 480 L 404 480.5 L 400.5 481 L 400.5 480 Z " /><path fill="rgb(0,0,0)" stroke="rgb(0,0,0)" stroke-width="1" opacity="0.5254901960784314" d="M 410.5 480 L 414 480.5 L 410.5 481 L 410.5 480 Z " /></svg>