<svg width="512" height="512" version="1.1" xmlns="http://www.w3.org/2000/svg" desc="Created with imagetracer.js version 1.2.6" ><path fill="rgb(245,245,245)" stroke="rgb(245,245,245)" stroke-width="1" opacity="0.7254901960784313" d="M 171.5 88 L 341 88.5 L 171.5 89 L 171.5 88 Z " /><path fill="rgb(245,245,245)" stroke="rgb(245,245,245)" stroke-width="1" opacity="0.7254901960784313" d="M 171.5 423 L 341 423.5 L 171.5 424 L 171.5 423 Z " /><path fill="rgb(254,86,96)" stroke="rgb(254,86,96)" stroke-width="1" opacity="0.7137254901960784" d="M 341 88 L 481 88.5 L 342 89 L 342 423 L 480.5 423 L 480.5 424 L 341 424 L 341 88 Z " /><path fill="rgb(254,86,96)" stroke="rgb(254,86,96)" stroke-width="1" opacity="0.7137254901960784" d="M 482.5 89 L 485 89.5 L 482.5 90 L 482.5 89 Z " /><path fill="rgb(254,86,96)" stroke="rgb(254,86,96)" stroke-width="1" opacity="0.7137254901960784" d="M 486.5 90 Q 496.9 93.1 503 100.5 Q 509 106.5 511 116.5 L 510 116.5 Q 506.5 102 495.5 95 L 486.5 91 L 486.5 90 Z " /><path fill="rgb(254,86,96)" stroke="rgb(254,86,96)" stroke-width="1" opacity="0.7137254901960784" d="M 511.5 118 L 512 122.5 L 511 122.5 L 511.5 118 Z " /><path fill="rgb(254,86,96)" stroke="rgb(254,86,96)" stroke-width="1" opacity="0.7137254901960784" d="M 511.5 389 L 512 393.5 L 511 393.5 L 511.5 389 Z " /><path fill="rgb(254,86,96)" stroke="rgb(254,86,96)" stroke-width="1" opacity="0.7137254901960784" d="M 510.5 395 L 511 397.5 Q 507.7 407.7 500.5 414 Q 495 419.5 486.5 422 L 486.5 421 Q 498.8 417.3 505 407.5 L 510.5 395 Z " /><path fill="rgb(254,86,96)" stroke="rgb(254,86,96)" stroke-width="1" opacity="0.7137254901960784" d="M 482.5 422 L 485 422.5 L 482.5 423 L 482.5 422 Z " /><path fill="rgb(0,0,0)" stroke="rgb(0,0,0)" stroke-width="1" opacity="0" d="M 0 0 L 511.5 0 L 512 0.5 L 512 117.5 L 511 117.5 Q 508.7 103.8 499.5 97 Q 492 90.5 480.5 88 L 31.5 88 Q 17.1 91.1 9 100.5 Q 2.5 107 0.5 118 L 0 0 Z " /><path fill="rgb(0,0,0)" stroke="rgb(0,0,0)" stroke-width="1" opacity="0" d="M 0.5 394 Q 2.8 406.2 10.5 413 Q 18.3 421.2 31.5 424 L 480.5 424 Q 494.9 420.9 503 411.5 L 510 400.5 L 511.5 394 L 512 512 L 0.5 512 L 0 511.5 L 0.5 394 Z " /><path fill="rgb(100,105,172)" stroke="rgb(100,105,172)" stroke-width="1" opacity="0.7176470588235294" d="M 170.5 88 L 171 423.5 L 170 423.5 L 170.5 88 Z " /><path fill="rgb(100,105,172)" stroke="rgb(100,105,172)" stroke-width="1" opacity="0.7176470588235294" d="M 11.5 98 L 9.5 101 L 11.5 98 Z " /><path fill="rgb(100,105,172)" stroke="rgb(100,105,172)" stroke-width="1" opacity="0.7176470588235294" d="M 9.5 411 L 10.5 413 L 9.5 411 Z " /><path fill="rgb(65,71,155)" stroke="rgb(65,71,155)" stroke-width="1" opacity="1" d="M 31.5 88 L 170 88 L 170 424 L 32.5 424 Q 14.6 420.4 6 407.5 L 0 393.5 L 0 118.5 Q 3.9 102.8 15.5 95 Q 21.9 89.9 31.5 88 Z " /><path fill="rgb(245,245,245)" stroke="rgb(245,245,245)" stroke-width="1" opacity="1" d="M 171 89 L 341 89 L 341 423 L 171 423 L 171 89 Z " /><path fill="rgb(255,75,85)" stroke="rgb(255,75,85)" stroke-width="1" opacity="1" d="M 342 89 L 481.5 89 Q 497.1 92.9 505 104.5 L 509 111.5 L 512 123.5 L 512 388.5 L 507 404.5 L 495.5 417 L 481.5 423 L 342 423 L 342 89 Z " /></svg>