<svg width="512" height="512" version="1.1" xmlns="http://www.w3.org/2000/svg" desc="Created with imagetracer.js version 1.2.6" ><path fill="rgb(0,0,0)" stroke="rgb(0,0,0)" stroke-width="1" opacity="0.7450980392156863" d="M 134.5 1 L 137 1.5 L 134.5 2 L 134.5 1 Z " /><path fill="rgb(0,0,0)" stroke="rgb(0,0,0)" stroke-width="1" opacity="0.7450980392156863" d="M 165.5 1 L 168 1.5 L 165.5 2 L 165.5 1 Z " /><path fill="rgb(0,0,0)" stroke="rgb(0,0,0)" stroke-width="1" opacity="0.7450980392156863" d="M 173.5 2 L 176 2.5 L 173.5 3 L 173.5 2 Z " /><path fill="rgb(0,0,0)" stroke="rgb(0,0,0)" stroke-width="1" opacity="0.7450980392156863" d="M 69.5 24 L 68.5 26 L 69.5 24 Z " /><path fill="rgb(0,0,0)" stroke="rgb(0,0,0)" stroke-width="1" opacity="0.7450980392156863" d="M 232.5 24 L 233.5 26 L 232.5 24 Z " /><path fill="rgb(0,0,0)" stroke="rgb(0,0,0)" stroke-width="1" opacity="0.7450980392156863" d="M 66.5 26 L 65.5 28 L 66.5 26 Z " /><path fill="rgb(0,0,0)" stroke="rgb(0,0,0)" stroke-width="1" opacity="0.7450980392156863" d="M 235.5 26 L 236.5 28 L 235.5 26 Z " /><path fill="rgb(0,0,0)" stroke="rgb(0,0,0)" stroke-width="1" opacity="0.7450980392156863" d="M 62.5 29 L 61.5 31 L 62.5 29 Z " /><path fill="rgb(0,0,0)" stroke="rgb(0,0,0)" stroke-width="1" opacity="0.7450980392156863" d="M 243.5 32 L 244.5 34 L 243.5 32 Z " /><path fill="rgb(0,0,0)" stroke="rgb(0,0,0)" stroke-width="1" opacity="0.7450980392156863" d="M 248.5 36 L 251.5 40 L 248.5 36 Z " /><path fill="rgb(0,0,0)" stroke="rgb(0,0,0)" stroke-width="1" opacity="0.7450980392156863" d="M 261.5 49 L 264.5 53 L 261.5 49 Z " /><path fill="rgb(0,0,0)" stroke="rgb(0,0,0)" stroke-width="1" opacity="0.7450980392156863" d="M 267.5 56 L 268.5 58 L 267.5 56 Z " /><path fill="rgb(0,0,0)" stroke="rgb(0,0,0)" stroke-width="1" opacity="0.7450980392156863" d="M 273.5 64 L 274.5 66 L 273.5 64 Z " /><path fill="rgb(0,0,0)" stroke="rgb(0,0,0)" stroke-width="1" opacity="0.7450980392156863" d="M 262.5 89 L 261.5 91 L 262.5 89 Z " /><path fill="rgb(0,0,0)" stroke="rgb(0,0,0)" stroke-width="1" opacity="0.7450980392156863" d="M 343.5 91 L 347 91.5 L 343.5 92 L 343.5 91 Z " /><path fill="rgb(0,0,0)" stroke="rgb(0,0,0)" stroke-width="1" opacity="0.7450980392156863" d="M 374.5 91 L 378 91.5 L 374.5 92 L 374.5 91 Z " /><path fill="rgb(0,0,0)" stroke="rgb(0,0,0)" stroke-width="1" opacity="0.7450980392156863" d="M 335.5 92 L 338 92.5 L 335.5 93 L 335.5 92 Z " /><path fill="rgb(0,0,0)" stroke="rgb(0,0,0)" stroke-width="1" opacity="0.7450980392156863" d="M 251.5 97 L 250.5 99 L 251.5 97 Z " /><path fill="rgb(0,0,0)" stroke="rgb(0,0,0)" stroke-width="1" opacity="0.7450980392156863" d="M 247.5 100 L 245.5 103 L 247.5 100 Z " /><path fill="rgb(0,0,0)" stroke="rgb(0,0,0)" stroke-width="1" opacity="0.7450980392156863" d="M 241.5 105 L 237.5 110 L 241.5 105 Z " /><path fill="rgb(0,0,0)" stroke="rgb(0,0,0)" stroke-width="1" opacity="0.7450980392156863" d="M 442.5 114 L 443.5 116 L 442.5 114 Z " /><path fill="rgb(0,0,0)" stroke="rgb(0,0,0)" stroke-width="1" opacity="0.7450980392156863" d="M 276.5 116 L 275.5 118 L 276.5 116 Z " /><path fill="rgb(0,0,0)" stroke="rgb(0,0,0)" stroke-width="1" opacity="0.7450980392156863" d="M 445.5 116 L 446.5 118 L 445.5 116 Z " /><path fill="rgb(0,0,0)" stroke="rgb(0,0,0)" stroke-width="1" opacity="0.7450980392156863" d="M 228.5 118 L 225.5 122 L 228.5 118 Z " /><path fill="rgb(0,0,0)" stroke="rgb(0,0,0)" stroke-width="1" opacity="0.7450980392156863" d="M 272.5 119 L 271.5 121 L 272.5 119 Z " /><path fill="rgb(0,0,0)" stroke="rgb(0,0,0)" stroke-width="1" opacity="0.7450980392156863" d="M 452.5 121 L 453.5 123 L 452.5 121 Z " /><path fill="rgb(0,0,0)" stroke="rgb(0,0,0)" stroke-width="1" opacity="0.7450980392156863" d="M 268.5 122 L 266.5 125 L 268.5 122 Z " /><path fill="rgb(0,0,0)" stroke="rgb(0,0,0)" stroke-width="1" opacity="0.7450980392156863" d="M 457.5 125 L 459.5 128 L 457.5 125 Z " /><path fill="rgb(0,0,0)" stroke="rgb(0,0,0)" stroke-width="1" opacity="0.7450980392156863" d="M 221.5 126 L 220.5 128 L 221.5 126 Z " /><path fill="rgb(0,0,0)" stroke="rgb(0,0,0)" stroke-width="1" opacity="0.7450980392156863" d="M 260.5 129 L 254.5 136 L 260.5 129 Z " /><path fill="rgb(0,0,0)" stroke="rgb(0,0,0)" stroke-width="1" opacity="0.7450980392156863" d="M 1.5 131 L 2 133.5 L 1 133.5 L 1.5 131 Z " /><path fill="rgb(0,0,0)" stroke="rgb(0,0,0)" stroke-width="1" opacity="0.7450980392156863" d="M 217.5 131 L 216.5 133 L 217.5 131 Z " /><path fill="rgb(0,0,0)" stroke="rgb(0,0,0)" stroke-width="1" opacity="0.7450980392156863" d="M 0.5 140 L 1 146.5 L 0 146.5 L 0.5 140 Z " /><path fill="rgb(0,0,0)" stroke="rgb(0,0,0)" stroke-width="1" opacity="0.7450980392156863" d="M 249.5 141 L 247.5 144 L 249.5 141 Z " /><path fill="rgb(0,0,0)" stroke="rgb(0,0,0)" stroke-width="1" opacity="0.7450980392156863" d="M 475.5 143 L 477.5 146 L 475.5 143 Z " /><path fill="rgb(0,0,0)" stroke="rgb(0,0,0)" stroke-width="1" opacity="0.7450980392156863" d="M 244.5 147 L 243.5 149 L 244.5 147 Z " /><path fill="rgb(0,0,0)" stroke="rgb(0,0,0)" stroke-width="1" opacity="0.7450980392156863" d="M 480.5 149 L 481.5 151 L 480.5 149 Z " /><path fill="rgb(0,0,0)" stroke="rgb(0,0,0)" stroke-width="1" opacity="0.7450980392156863" d="M 241.5 151 L 240.5 153 L 241.5 151 Z " /><path fill="rgb(0,0,0)" stroke="rgb(0,0,0)" stroke-width="1" opacity="0.7450980392156863" d="M 0.5 156 L 1 161.5 L 0 161.5 L 0.5 156 Z " /><path fill="rgb(0,0,0)" stroke="rgb(0,0,0)" stroke-width="1" opacity="0.7450980392156863" d="M 485.5 156 L 486.5 158 L 485.5 156 Z " /><path fill="rgb(0,0,0)" stroke="rgb(0,0,0)" stroke-width="1" opacity="0.7450980392156863" d="M 1.5 168 L 2 170.5 L 1 170.5 L 1.5 168 Z " /><path fill="rgb(0,0,0)" stroke="rgb(0,0,0)" stroke-width="1" opacity="0.7450980392156863" d="M 136.5 181 L 142 181.5 L 136.5 182 L 136.5 181 Z " /><path fill="rgb(0,0,0)" stroke="rgb(0,0,0)" stroke-width="1" opacity="0.7450980392156863" d="M 159.5 181 L 164 181.5 L 159.5 182 L 159.5 181 Z " /><path fill="rgb(0,0,0)" stroke="rgb(0,0,0)" stroke-width="1" opacity="0.7450980392156863" d="M 126.5 182 L 130 182.5 L 126.5 183 L 126.5 182 Z " /><path fill="rgb(0,0,0)" stroke="rgb(0,0,0)" stroke-width="1" opacity="0.7450980392156863" d="M 316.5 195 L 406 195.5 L 316.5 196 L 316.5 195 Z " /><path fill="rgb(0,0,0)" stroke="rgb(0,0,0)" stroke-width="1" opacity="0.7450980392156863" d="M 57.5 206 L 56.5 208 L 57.5 206 Z " /><path fill="rgb(0,0,0)" stroke="rgb(0,0,0)" stroke-width="1" opacity="0.7450980392156863" d="M 142.5 211 L 160 211.5 L 142.5 212 L 142.5 211 Z " /><path fill="rgb(0,0,0)" stroke="rgb(0,0,0)" stroke-width="1" opacity="0.7450980392156863" d="M 132.5 212 L 135 212.5 L 132.5 213 L 132.5 212 Z " /><path fill="rgb(0,0,0)" stroke="rgb(0,0,0)" stroke-width="1" opacity="0.7450980392156863" d="M 168.5 212 L 171 212.5 L 168.5 213 L 168.5 212 Z " /><path fill="rgb(0,0,0)" stroke="rgb(0,0,0)" stroke-width="1" opacity="0.7450980392156863" d="M 45.5 214 L 44.5 216 L 45.5 214 Z " /><path fill="rgb(0,0,0)" stroke="rgb(0,0,0)" stroke-width="1" opacity="0.7450980392156863" d="M 41.5 217 L 40.5 219 L 41.5 217 Z " /><path fill="rgb(0,0,0)" stroke="rgb(0,0,0)" stroke-width="1" opacity="0.7450980392156863" d="M 260.5 217 L 261.5 219 L 260.5 217 Z " /><path fill="rgb(0,0,0)" stroke="rgb(0,0,0)" stroke-width="1" opacity="0.7450980392156863" d="M 510.5 220 L 511 222.5 L 510 222.5 L 510.5 220 Z " /><path fill="rgb(0,0,0)" stroke="rgb(0,0,0)" stroke-width="1" opacity="0.7450980392156863" d="M 36.5 221 L 34.5 224 L 36.5 221 Z " /><path fill="rgb(0,0,0)" stroke="rgb(0,0,0)" stroke-width="1" opacity="0.7450980392156863" d="M 265.5 221 L 266.5 223 L 265.5 221 Z " /><path fill="rgb(0,0,0)" stroke="rgb(0,0,0)" stroke-width="1" opacity="0.7450980392156863" d="M 271.5 226 L 285.5 241 L 271.5 226 Z " /><path fill="rgb(0,0,0)" stroke="rgb(0,0,0)" stroke-width="1" opacity="0.7450980392156863" d="M 29.5 227 L 25.5 232 L 23.5 229 L 25.5 231 L 29.5 227 Z " /><path fill="rgb(0,0,0)" stroke="rgb(0,0,0)" stroke-width="1" opacity="0.7450980392156863" d="M 511.5 229 L 512 235.5 L 511 235.5 L 511.5 229 Z " /><path fill="rgb(0,0,0)" stroke="rgb(0,0,0)" stroke-width="1" opacity="0.7450980392156863" d="M 227.5 231 L 228.5 233 L 227.5 231 Z " /><path fill="rgb(0,0,0)" stroke="rgb(0,0,0)" stroke-width="1" opacity="0.7450980392156863" d="M 71.5 233 L 70.5 235 L 71.5 233 Z " /><path fill="rgb(0,0,0)" stroke="rgb(0,0,0)" stroke-width="1" opacity="0.7450980392156863" d="M 65.5 237 L 64.5 239 L 65.5 237 Z " /><path fill="rgb(0,0,0)" stroke="rgb(0,0,0)" stroke-width="1" opacity="0.7450980392156863" d="M 239.5 239 L 240.5 241 L 239.5 239 Z " /><path fill="rgb(0,0,0)" stroke="rgb(0,0,0)" stroke-width="1" opacity="0.7450980392156863" d="M 243.5 242 L 244.5 244 L 243.5 242 Z " /><path fill="rgb(0,0,0)" stroke="rgb(0,0,0)" stroke-width="1" opacity="0.7450980392156863" d="M 57.5 243 L 56.5 245 L 57.5 243 Z " /><path fill="rgb(0,0,0)" stroke="rgb(0,0,0)" stroke-width="1" opacity="0.7450980392156863" d="M 511.5 244 L 512 250.5 L 511 250.5 L 511.5 244 Z " /><path fill="rgb(0,0,0)" stroke="rgb(0,0,0)" stroke-width="1" opacity="0.7450980392156863" d="M 289.5 245 L 290.5 247 L 289.5 245 Z " /><path fill="rgb(0,0,0)" stroke="rgb(0,0,0)" stroke-width="1" opacity="0.7450980392156863" d="M 248.5 246 L 251.5 250 L 248.5 246 Z " /><path fill="rgb(0,0,0)" stroke="rgb(0,0,0)" stroke-width="1" opacity="0.7450980392156863" d="M 52.5 247 L 49.5 251 L 52.5 247 Z " /><path fill="rgb(0,0,0)" stroke="rgb(0,0,0)" stroke-width="1" opacity="0.7450980392156863" d="M 293.5 250 L 294.5 252 L 293.5 250 Z " /><path fill="rgb(0,0,0)" stroke="rgb(0,0,0)" stroke-width="1" opacity="0.7450980392156863" d="M 296.5 254 L 297.5 256 L 296.5 254 Z " /><path fill="rgb(0,0,0)" stroke="rgb(0,0,0)" stroke-width="1" opacity="0.7450980392156863" d="M 316.5 255 L 406 255.5 L 316.5 256 L 316.5 255 Z " /><path fill="rgb(0,0,0)" stroke="rgb(0,0,0)" stroke-width="1" opacity="0.7450980392156863" d="M 510.5 257 L 511 259.5 L 510 259.5 L 510.5 257 Z " /><path fill="rgb(0,0,0)" stroke="rgb(0,0,0)" stroke-width="1" opacity="0.7450980392156863" d="M 41.5 258 L 37.5 263 L 41.5 258 Z " /><path fill="rgb(0,0,0)" stroke="rgb(0,0,0)" stroke-width="1" opacity="0.7450980392156863" d="M 261.5 259 L 264.5 263 L 261.5 259 Z " /><path fill="rgb(0,0,0)" stroke="rgb(0,0,0)" stroke-width="1" opacity="0.7450980392156863" d="M 34.5 266 L 33.5 268 L 34.5 266 Z " /><path fill="rgb(0,0,0)" stroke="rgb(0,0,0)" stroke-width="1" opacity="0.7450980392156863" d="M 267.5 266 L 268.5 268 L 267.5 266 Z " /><path fill="rgb(0,0,0)" stroke="rgb(0,0,0)" stroke-width="1" opacity="0.7450980392156863" d="M 30.5 271 L 29.5 273 L 30.5 271 Z " /><path fill="rgb(0,0,0)" stroke="rgb(0,0,0)" stroke-width="1" opacity="0.7450980392156863" d="M 271.5 271 L 272.5 273 L 271.5 271 Z " /><path fill="rgb(0,0,0)" stroke="rgb(0,0,0)" stroke-width="1" opacity="0.7450980392156863" d="M 28.5 274 L 27.5 276 L 28.5 274 Z " /><path fill="rgb(0,0,0)" stroke="rgb(0,0,0)" stroke-width="1" opacity="0.7450980392156863" d="M 273.5 274 L 274.5 276 L 273.5 274 Z " /><path fill="rgb(0,0,0)" stroke="rgb(0,0,0)" stroke-width="1" opacity="0.7450980392156863" d="M 24.5 280 L 23.5 282 L 24.5 280 Z " /><path fill="rgb(0,0,0)" stroke="rgb(0,0,0)" stroke-width="1" opacity="0.7450980392156863" d="M 298.5 333 L 299 335.5 L 298 335.5 L 298.5 333 Z " /><path fill="rgb(0,0,0)" stroke="rgb(0,0,0)" stroke-width="1" opacity="0.7450980392156863" d="M 329.5 335 L 330 337.5 L 329 337.5 L 329.5 335 Z " /><path fill="rgb(0,0,0)" stroke="rgb(0,0,0)" stroke-width="1" opacity="0.7450980392156863" d="M 2.5 339 L 3 341.5 L 2 341.5 L 2.5 339 Z " /><path fill="rgb(0,0,0)" stroke="rgb(0,0,0)" stroke-width="1" opacity="0.7450980392156863" d="M 299.5 340 L 300 342.5 L 299 342.5 L 299.5 340 Z " /><path fill="rgb(0,0,0)" stroke="rgb(0,0,0)" stroke-width="1" opacity="0.7450980392156863" d="M 330.5 343 L 331 346.5 L 330 346.5 L 330.5 343 Z " /><path fill="rgb(0,0,0)" stroke="rgb(0,0,0)" stroke-width="1" opacity="0.7450980392156863" d="M 76.5 345 L 106 345.5 L 76.5 346 L 76.5 345 Z " /><path fill="rgb(0,0,0)" stroke="rgb(0,0,0)" stroke-width="1" opacity="0.7450980392156863" d="M 136.5 345 L 166 345.5 L 136.5 346 L 136.5 345 Z " /><path fill="rgb(0,0,0)" stroke="rgb(0,0,0)" stroke-width="1" opacity="0.7450980392156863" d="M 196.5 345 L 226 345.5 L 196.5 346 L 196.5 345 Z " /><path fill="rgb(0,0,0)" stroke="rgb(0,0,0)" stroke-width="1" opacity="0.7450980392156863" d="M 1.5 349 L 2 354.5 L 1 354.5 L 1.5 349 Z " /><path fill="rgb(0,0,0)" stroke="rgb(0,0,0)" stroke-width="1" opacity="0.7450980392156863" d="M 300.5 349 L 301 354.5 L 300 354.5 L 300.5 349 Z " /><path fill="rgb(0,0,0)" stroke="rgb(0,0,0)" stroke-width="1" opacity="0.7450980392156863" d="M 511.5 359 L 512 361 L 450.5 361 L 449.5 362 L 450.5 360 L 510.5 360 L 511.5 359 Z " /><path fill="rgb(0,0,0)" stroke="rgb(0,0,0)" stroke-width="1" opacity="0.7450980392156863" d="M 446.5 363 L 445.5 365 L 446.5 363 Z " /><path fill="rgb(0,0,0)" stroke="rgb(0,0,0)" stroke-width="1" opacity="0.7450980392156863" d="M 1.5 365 L 2 371.5 L 1 371.5 L 1.5 365 Z " /><path fill="rgb(0,0,0)" stroke="rgb(0,0,0)" stroke-width="1" opacity="0.7450980392156863" d="M 300.5 365 L 301 371.5 L 300 371.5 L 300.5 365 Z " /><path fill="rgb(0,0,0)" stroke="rgb(0,0,0)" stroke-width="1" opacity="0.7450980392156863" d="M 443.5 365 L 442.5 367 L 443.5 365 Z " /><path fill="rgb(0,0,0)" stroke="rgb(0,0,0)" stroke-width="1" opacity="0.7450980392156863" d="M 330.5 372 L 331 375.5 L 330 375.5 L 330.5 372 Z " /><path fill="rgb(0,0,0)" stroke="rgb(0,0,0)" stroke-width="1" opacity="0.7450980392156863" d="M 2.5 378 L 3 380.5 L 2 380.5 L 2.5 378 Z " /><path fill="rgb(0,0,0)" stroke="rgb(0,0,0)" stroke-width="1" opacity="0.7450980392156863" d="M 329.5 382 L 330 384.5 L 329 384.5 L 329.5 382 Z " /><path fill="rgb(0,0,0)" stroke="rgb(0,0,0)" stroke-width="1" opacity="0.7450980392156863" d="M 298.5 385 L 299 387.5 L 298 387.5 L 298.5 385 Z " /><path fill="rgb(0,0,0)" stroke="rgb(0,0,0)" stroke-width="1" opacity="0.7450980392156863" d="M 346.5 389 L 349 389.5 L 346.5 390 L 346.5 389 Z " /><path fill="rgb(0,0,0)" stroke="rgb(0,0,0)" stroke-width="1" opacity="0.7450980392156863" d="M 375.5 389 L 378 389.5 L 375.5 390 L 375.5 389 Z " /><path fill="rgb(0,0,0)" stroke="rgb(0,0,0)" stroke-width="1" opacity="0.7450980392156863" d="M 272.5 448 L 271.5 450 L 272.5 448 Z " /><path fill="rgb(0,0,0)" stroke="rgb(0,0,0)" stroke-width="1" opacity="0.7450980392156863" d="M 269.5 452 L 268.5 454 L 269.5 452 Z " /><path fill="rgb(0,0,0)" stroke="rgb(0,0,0)" stroke-width="1" opacity="0.7450980392156863" d="M 265.5 457 L 263.5 460 L 265.5 457 Z " /><path fill="rgb(0,0,0)" stroke="rgb(0,0,0)" stroke-width="1" opacity="0.7450980392156863" d="M 248.5 474 L 246.5 477 L 248.5 474 Z " /><path fill="rgb(0,0,0)" stroke="rgb(0,0,0)" stroke-width="1" opacity="0.7450980392156863" d="M 0.5 478 L 1 480 L 61.5 480 L 63 481.5 L 61.5 481 L 0.5 481 L 0.5 478 Z " /><path fill="rgb(0,0,0)" stroke="rgb(0,0,0)" stroke-width="1" opacity="0.7450980392156863" d="M 242.5 479 L 241.5 481 L 242.5 479 Z " /><path fill="rgb(0,0,0)" stroke="rgb(0,0,0)" stroke-width="1" opacity="0.7450980392156863" d="M 238.5 482 L 237.5 484 L 238.5 482 Z " /><path fill="rgb(0,0,0)" stroke="rgb(0,0,0)" stroke-width="1" opacity="0.7450980392156863" d="M 65.5 483 L 66.5 485 L 65.5 483 Z " /><path fill="rgb(0,0,0)" stroke="rgb(0,0,0)" stroke-width="1" opacity="0.7450980392156863" d="M 135.5 510 L 138 510.5 L 135.5 511 L 135.5 510 Z " /><path fill="rgb(0,0,0)" stroke="rgb(0,0,0)" stroke-width="1" opacity="0.7450980392156863" d="M 164.5 510 L 168 510.5 L 164.5 511 L 164.5 510 Z " /><path fill="rgb(0,0,0)" stroke="rgb(0,0,0)" stroke-width="1" opacity="1" d="M 137.5 1 L 164.5 1 Q 166.2 3.8 172.5 2 L 191.5 6 L 206.5 11 Q 239.1 24.4 261 48.5 Q 274.3 61.7 282 79 Q 248.2 94.4 225 121.5 Q 211.8 136.3 202 154.5 L 194 171.5 L 190 185 L 172.5 182 L 164.5 182 L 163.5 181 L 136.5 181 L 135.5 182 L 126.5 182 L 125.5 183 L 114.5 184 L 98.5 188 L 74.5 197 Q 46.3 210.3 25.5 231 L 21 225.5 L 7 194.5 L 2 174.5 L 0 147.5 L 1 146.5 L 1 134.5 L 2 133.5 L 3 122.5 L 8 104.5 L 15 87.5 L 1 31 L 61.5 31 Q 75.9 18.4 95.5 11 L 118.5 4 L 136.5 2 L 137.5 1 Z " /><path fill="rgb(0,0,0)" stroke="rgb(0,0,0)" stroke-width="1" opacity="1" d="M 347.5 91 L 373.5 91 L 374.5 92 L 388.5 93 L 401.5 96 L 423.5 104 Q 454 118.5 475 142.5 Q 492.6 162.4 503 189.5 L 509 210.5 L 510 222.5 L 511 223.5 L 512 243.5 L 511 244.5 L 511 256.5 L 508 272.5 L 504 286.5 L 497 303.5 L 511 360 L 450.5 360 Q 430.5 377 401.5 385 L 374.5 390 L 349.5 390 L 348.5 389 L 330.5 387 L 329 385.5 L 331 375.5 L 331 343.5 L 324 308.5 L 311 276.5 Q 295.3 247.2 271.5 226 L 242.5 205 L 219 193.5 Q 234.5 151.5 265.5 125 Q 282.1 110.1 304.5 101 L 327.5 94 L 338.5 92 L 346.5 92 L 347.5 91 Z M 316 195 L 316 226 L 406 226 L 406 195 L 316 195 Z M 316 255 L 316 286 L 406 286 L 406 255 L 316 255 Z " /><path fill="rgb(0,0,0)" stroke="rgb(0,0,0)" stroke-width="1" opacity="1" d="M 135.5 212 L 167.5 212 Q 169.2 214.8 175.5 213 L 205.5 221 Q 238.8 234.2 261 258.5 Q 279.9 278.6 291 306.5 L 298 330.5 L 299 342.5 L 300 343.5 L 301 364.5 L 300 365.5 L 300 378.5 L 299 379.5 L 298 390.5 L 289 419.5 Q 274.6 452.1 249.5 474 Q 229.1 492.6 200.5 503 L 172.5 510 L 164.5 510 L 163.5 511 L 138.5 511 L 115.5 507 L 92.5 499 Q 74.9 491.6 61.5 480 L 1 480 L 15 422.5 L 11 414.5 L 4 390.5 L 3 378.5 L 2 377.5 L 1 355.5 L 2 354.5 L 2 342.5 L 3 341.5 L 4 330.5 L 13 301.5 Q 26.1 271.6 48.5 251 Q 66 234.5 89.5 224 L 112.5 216 L 135.5 212 Z M 76 345 L 76 376 L 106 376 L 106 345 L 76 345 Z M 136 345 L 136 376 L 166 376 L 166 345 L 136 345 Z M 196 345 L 196 376 L 226 376 L 226 345 L 196 345 Z " /><path fill="rgb(0,0,0)" stroke="rgb(0,0,0)" stroke-width="1" opacity="0.2549019607843137" d="M 141.5 0 L 162 0.5 L 141.5 1 L 141.5 0 Z " /><path fill="rgb(0,0,0)" stroke="rgb(0,0,0)" stroke-width="1" opacity="0.2549019607843137" d="M 131.5 1 L 134 1.5 L 131.5 2 L 131.5 1 Z " /><path fill="rgb(0,0,0)" stroke="rgb(0,0,0)" stroke-width="1" opacity="0.2549019607843137" d="M 168.5 1 L 171 1.5 L 168.5 2 L 168.5 1 Z " /><path fill="rgb(0,0,0)" stroke="rgb(0,0,0)" stroke-width="1" opacity="0.2549019607843137" d="M 124.5 2 L 127 2.5 L 124.5 3 L 124.5 2 Z " /><path fill="rgb(0,0,0)" stroke="rgb(0,0,0)" stroke-width="1" opacity="0.2549019607843137" d="M 64.5 27 L 63.5 29 L 64.5 27 Z " /><path fill="rgb(0,0,0)" stroke="rgb(0,0,0)" stroke-width="1" opacity="0.2549019607843137" d="M 237.5 27 L 238.5 29 L 237.5 27 Z " /><path fill="rgb(0,0,0)" stroke="rgb(0,0,0)" stroke-width="1" opacity="0.2549019607843137" d="M 0.5 30 L 61 30.5 L 0.5 31 L 0.5 30 Z " /><path fill="rgb(0,0,0)" stroke="rgb(0,0,0)" stroke-width="1" opacity="0.2549019607843137" d="M 241.5 30 L 242.5 32 L 241.5 30 Z " /><path fill="rgb(0,0,0)" stroke="rgb(0,0,0)" stroke-width="1" opacity="0.2549019607843137" d="M 245.5 33 L 247.5 36 L 245.5 33 Z " /><path fill="rgb(0,0,0)" stroke="rgb(0,0,0)" stroke-width="1" opacity="0.2549019607843137" d="M 252.5 39 L 261.5 49 L 252.5 39 Z " /><path fill="rgb(0,0,0)" stroke="rgb(0,0,0)" stroke-width="1" opacity="0.2549019607843137" d="M 265.5 53 L 267.5 56 L 265.5 53 Z " /><path fill="rgb(0,0,0)" stroke="rgb(0,0,0)" stroke-width="1" opacity="0.2549019607843137" d="M 269.5 58 L 270.5 60 L 269.5 58 Z " /><path fill="rgb(0,0,0)" stroke="rgb(0,0,0)" stroke-width="1" opacity="0.2549019607843137" d="M 272.5 62 L 273.5 64 L 272.5 62 Z " /><path fill="rgb(0,0,0)" stroke="rgb(0,0,0)" stroke-width="1" opacity="0.2549019607843137" d="M 278.5 71 L 279.5 73 L 278.5 71 Z " /><path fill="rgb(0,0,0)" stroke="rgb(0,0,0)" stroke-width="1" opacity="0.2549019607843137" d="M 350.5 90 L 371 90.5 L 350.5 91 L 350.5 90 Z " /><path fill="rgb(0,0,0)" stroke="rgb(0,0,0)" stroke-width="1" opacity="0.2549019607843137" d="M 340.5 91 L 343 91.5 L 340.5 92 L 340.5 91 Z " /><path fill="rgb(0,0,0)" stroke="rgb(0,0,0)" stroke-width="1" opacity="0.2549019607843137" d="M 378.5 91 L 381 91.5 L 378.5 92 L 378.5 91 Z " /><path fill="rgb(0,0,0)" stroke="rgb(0,0,0)" stroke-width="1" opacity="0.2549019607843137" d="M 254.5 95 L 253.5 97 L 254.5 95 Z " /><path fill="rgb(0,0,0)" stroke="rgb(0,0,0)" stroke-width="1" opacity="0.2549019607843137" d="M 244.5 103 L 243.5 105 L 244.5 103 Z " /><path fill="rgb(0,0,0)" stroke="rgb(0,0,0)" stroke-width="1" opacity="0.2549019607843137" d="M 236.5 110 L 229.5 118 L 236.5 110 Z " /><path fill="rgb(0,0,0)" stroke="rgb(0,0,0)" stroke-width="1" opacity="0.2549019607843137" d="M 274.5 117 L 273.5 119 L 274.5 117 Z " /><path fill="rgb(0,0,0)" stroke="rgb(0,0,0)" stroke-width="1" opacity="0.2549019607843137" d="M 447.5 117 L 448.5 119 L 447.5 117 Z " /><path fill="rgb(0,0,0)" stroke="rgb(0,0,0)" stroke-width="1" opacity="0.2549019607843137" d="M 450.5 119 L 451.5 121 L 450.5 119 Z " /><path fill="rgb(0,0,0)" stroke="rgb(0,0,0)" stroke-width="1" opacity="0.2549019607843137" d="M 270.5 120 L 269.5 122 L 270.5 120 Z " /><path fill="rgb(0,0,0)" stroke="rgb(0,0,0)" stroke-width="1" opacity="0.2549019607843137" d="M 225.5 122 L 222.5 126 L 225.5 122 Z " /><path fill="rgb(0,0,0)" stroke="rgb(0,0,0)" stroke-width="1" opacity="0.2549019607843137" d="M 455.5 123 L 456.5 125 L 455.5 123 Z " /><path fill="rgb(0,0,0)" stroke="rgb(0,0,0)" stroke-width="1" opacity="0.2549019607843137" d="M 264.5 125 L 261.5 129 L 264.5 125 Z " /><path fill="rgb(0,0,0)" stroke="rgb(0,0,0)" stroke-width="1" opacity="0.2549019607843137" d="M 461.5 128 L 466.5 134 L 461.5 128 Z " /><path fill="rgb(0,0,0)" stroke="rgb(0,0,0)" stroke-width="1" opacity="0.2549019607843137" d="M 219.5 129 L 218.5 131 L 219.5 129 Z " /><path fill="rgb(0,0,0)" stroke="rgb(0,0,0)" stroke-width="1" opacity="0.2549019607843137" d="M 216.5 133 L 215.5 135 L 216.5 133 Z " /><path fill="rgb(0,0,0)" stroke="rgb(0,0,0)" stroke-width="1" opacity="0.2549019607843137" d="M 468.5 135 L 474.5 142 L 468.5 135 Z " /><path fill="rgb(0,0,0)" stroke="rgb(0,0,0)" stroke-width="1" opacity="0.2549019607843137" d="M 0.5 136 L 1 139.5 L 0 139.5 L 0.5 136 Z " /><path fill="rgb(0,0,0)" stroke="rgb(0,0,0)" stroke-width="1" opacity="0.2549019607843137" d="M 253.5 136 L 249.5 141 L 253.5 136 Z " /><path fill="rgb(0,0,0)" stroke="rgb(0,0,0)" stroke-width="1" opacity="0.2549019607843137" d="M 246.5 144 L 245.5 146 L 246.5 144 Z " /><path fill="rgb(0,0,0)" stroke="rgb(0,0,0)" stroke-width="1" opacity="0.2549019607843137" d="M 478.5 146 L 479.5 148 L 478.5 146 Z " /><path fill="rgb(0,0,0)" stroke="rgb(0,0,0)" stroke-width="1" opacity="0.2549019607843137" d="M 242.5 149 L 241.5 151 L 242.5 149 Z " /><path fill="rgb(0,0,0)" stroke="rgb(0,0,0)" stroke-width="1" opacity="0.2549019607843137" d="M 484.5 154 L 485.5 156 L 484.5 154 Z " /><path fill="rgb(0,0,0)" stroke="rgb(0,0,0)" stroke-width="1" opacity="0.2549019607843137" d="M 488.5 160 L 489.5 162 L 488.5 160 Z " /><path fill="rgb(0,0,0)" stroke="rgb(0,0,0)" stroke-width="1" opacity="0.2549019607843137" d="M 0.5 162 L 1 165.5 L 0 165.5 L 0.5 162 Z " /><path fill="rgb(0,0,0)" stroke="rgb(0,0,0)" stroke-width="1" opacity="0.2549019607843137" d="M 142.5 181 L 159 181.5 L 142.5 182 L 142.5 181 Z " /><path fill="rgb(0,0,0)" stroke="rgb(0,0,0)" stroke-width="1" opacity="0.2549019607843137" d="M 130.5 182 L 133 182.5 L 130.5 183 L 130.5 182 Z " /><path fill="rgb(0,0,0)" stroke="rgb(0,0,0)" stroke-width="1" opacity="0.2549019607843137" d="M 167.5 182 L 171 182.5 L 167.5 183 L 167.5 182 Z " /><path fill="rgb(0,0,0)" stroke="rgb(0,0,0)" stroke-width="1" opacity="0.2549019607843137" d="M 122.5 183 L 125 183.5 L 122.5 184 L 122.5 183 Z " /><path fill="rgb(0,0,0)" stroke="rgb(0,0,0)" stroke-width="1" opacity="0.2549019607843137" d="M 175.5 183 L 178 183.5 L 175.5 184 L 175.5 183 Z " /><path fill="rgb(0,0,0)" stroke="rgb(0,0,0)" stroke-width="1" opacity="0.2549019607843137" d="M 187.5 185 L 190 185.5 L 187.5 186 L 187.5 185 Z " /><path fill="rgb(0,0,0)" stroke="rgb(0,0,0)" stroke-width="1" opacity="0.2549019607843137" d="M 50.5 211 L 49.5 213 L 50.5 211 Z " /><path fill="rgb(0,0,0)" stroke="rgb(0,0,0)" stroke-width="1" opacity="0.2549019607843137" d="M 138.5 211 L 142 211.5 L 138.5 212 L 138.5 211 Z " /><path fill="rgb(0,0,0)" stroke="rgb(0,0,0)" stroke-width="1" opacity="0.2549019607843137" d="M 160.5 211 L 165 211.5 L 160.5 212 L 160.5 211 Z " /><path fill="rgb(0,0,0)" stroke="rgb(0,0,0)" stroke-width="1" opacity="0.2549019607843137" d="M 251.5 211 L 252.5 213 L 251.5 211 Z " /><path fill="rgb(0,0,0)" stroke="rgb(0,0,0)" stroke-width="1" opacity="0.2549019607843137" d="M 129.5 212 L 132 212.5 L 129.5 213 L 129.5 212 Z " /><path fill="rgb(0,0,0)" stroke="rgb(0,0,0)" stroke-width="1" opacity="0.2549019607843137" d="M 171.5 212 L 174 212.5 L 171.5 213 L 171.5 212 Z " /><path fill="rgb(0,0,0)" stroke="rgb(0,0,0)" stroke-width="1" opacity="0.2549019607843137" d="M 47.5 213 L 46.5 215 L 47.5 213 Z " /><path fill="rgb(0,0,0)" stroke="rgb(0,0,0)" stroke-width="1" opacity="0.2549019607843137" d="M 254.5 213 L 255.5 215 L 254.5 213 Z " /><path fill="rgb(0,0,0)" stroke="rgb(0,0,0)" stroke-width="1" opacity="0.2549019607843137" d="M 43.5 216 L 42.5 218 L 43.5 216 Z " /><path fill="rgb(0,0,0)" stroke="rgb(0,0,0)" stroke-width="1" opacity="0.2549019607843137" d="M 258.5 216 L 259.5 218 L 258.5 216 Z " /><path fill="rgb(0,0,0)" stroke="rgb(0,0,0)" stroke-width="1" opacity="0.2549019607843137" d="M 510.5 217 L 511 219.5 L 510 219.5 L 510.5 217 Z " /><path fill="rgb(0,0,0)" stroke="rgb(0,0,0)" stroke-width="1" opacity="0.2549019607843137" d="M 39.5 219 L 38.5 221 L 39.5 219 Z " /><path fill="rgb(0,0,0)" stroke="rgb(0,0,0)" stroke-width="1" opacity="0.2549019607843137" d="M 262.5 219 L 263.5 221 L 262.5 219 Z " /><path fill="rgb(0,0,0)" stroke="rgb(0,0,0)" stroke-width="1" opacity="0.2549019607843137" d="M 267.5 223 L 270.5 227 L 267.5 223 Z " /><path fill="rgb(0,0,0)" stroke="rgb(0,0,0)" stroke-width="1" opacity="0.2549019607843137" d="M 33.5 224 L 30.5 228 L 33.5 224 Z " /><path fill="rgb(0,0,0)" stroke="rgb(0,0,0)" stroke-width="1" opacity="0.2549019607843137" d="M 316.5 225 L 406 225.5 L 316.5 226 L 316.5 225 Z " /><path fill="rgb(0,0,0)" stroke="rgb(0,0,0)" stroke-width="1" opacity="0.2549019607843137" d="M 511.5 225 L 512 228.5 L 511 228.5 L 511.5 225 Z " /><path fill="rgb(0,0,0)" stroke="rgb(0,0,0)" stroke-width="1" opacity="0.2549019607843137" d="M 231.5 233 L 232.5 235 L 231.5 233 Z " /><path fill="rgb(0,0,0)" stroke="rgb(0,0,0)" stroke-width="1" opacity="0.2549019607843137" d="M 234.5 235 L 235.5 237 L 234.5 235 Z " /><path fill="rgb(0,0,0)" stroke="rgb(0,0,0)" stroke-width="1" opacity="0.2549019607843137" d="M 237.5 237 L 238.5 239 L 237.5 237 Z " /><path fill="rgb(0,0,0)" stroke="rgb(0,0,0)" stroke-width="1" opacity="0.2549019607843137" d="M 63.5 238 L 62.5 240 L 63.5 238 Z " /><path fill="rgb(0,0,0)" stroke="rgb(0,0,0)" stroke-width="1" opacity="0.2549019607843137" d="M 241.5 240 L 242.5 242 L 241.5 240 Z " /><path fill="rgb(0,0,0)" stroke="rgb(0,0,0)" stroke-width="1" opacity="0.2549019607843137" d="M 59.5 241 L 58.5 243 L 59.5 241 Z " /><path fill="rgb(0,0,0)" stroke="rgb(0,0,0)" stroke-width="1" opacity="0.2549019607843137" d="M 286.5 242 L 288.5 245 L 286.5 242 Z " /><path fill="rgb(0,0,0)" stroke="rgb(0,0,0)" stroke-width="1" opacity="0.2549019607843137" d="M 55.5 244 L 53.5 247 L 55.5 244 Z " /><path fill="rgb(0,0,0)" stroke="rgb(0,0,0)" stroke-width="1" opacity="0.2549019607843137" d="M 246.5 244 L 247.5 246 L 246.5 244 Z " /><path fill="rgb(0,0,0)" stroke="rgb(0,0,0)" stroke-width="1" opacity="0.2549019607843137" d="M 291.5 248 L 292.5 250 L 291.5 248 Z " /><path fill="rgb(0,0,0)" stroke="rgb(0,0,0)" stroke-width="1" opacity="0.2549019607843137" d="M 253.5 250 L 261.5 259 L 253.5 250 Z " /><path fill="rgb(0,0,0)" stroke="rgb(0,0,0)" stroke-width="1" opacity="0.2549019607843137" d="M 47.5 251 L 42.5 257 L 47.5 251 Z " /><path fill="rgb(0,0,0)" stroke="rgb(0,0,0)" stroke-width="1" opacity="0.2549019607843137" d="M 511.5 251 L 512 254.5 L 511 254.5 L 511.5 251 Z " /><path fill="rgb(0,0,0)" stroke="rgb(0,0,0)" stroke-width="1" opacity="0.2549019607843137" d="M 294.5 252 L 295.5 254 L 294.5 252 Z " /><path fill="rgb(0,0,0)" stroke="rgb(0,0,0)" stroke-width="1" opacity="0.2549019607843137" d="M 297.5 256 L 298.5 258 L 297.5 256 Z " /><path fill="rgb(0,0,0)" stroke="rgb(0,0,0)" stroke-width="1" opacity="0.2549019607843137" d="M 299.5 259 L 300.5 261 L 299.5 259 Z " /><path fill="rgb(0,0,0)" stroke="rgb(0,0,0)" stroke-width="1" opacity="0.2549019607843137" d="M 36.5 263 L 34.5 266 L 36.5 263 Z " /><path fill="rgb(0,0,0)" stroke="rgb(0,0,0)" stroke-width="1" opacity="0.2549019607843137" d="M 265.5 263 L 267.5 266 L 265.5 263 Z " /><path fill="rgb(0,0,0)" stroke="rgb(0,0,0)" stroke-width="1" opacity="0.2549019607843137" d="M 32.5 268 L 31.5 270 L 32.5 268 Z " /><path fill="rgb(0,0,0)" stroke="rgb(0,0,0)" stroke-width="1" opacity="0.2549019607843137" d="M 269.5 268 L 270.5 270 L 269.5 268 Z " /><path fill="rgb(0,0,0)" stroke="rgb(0,0,0)" stroke-width="1" opacity="0.2549019607843137" d="M 278.5 281 L 279.5 283 L 278.5 281 Z " /><path fill="rgb(0,0,0)" stroke="rgb(0,0,0)" stroke-width="1" opacity="0.2549019607843137" d="M 316.5 285 L 406 285.5 L 316.5 286 L 316.5 285 Z " /><path fill="rgb(0,0,0)" stroke="rgb(0,0,0)" stroke-width="1" opacity="0.2549019607843137" d="M 299.5 337 L 300 339.5 L 299 339.5 L 299.5 337 Z " /><path fill="rgb(0,0,0)" stroke="rgb(0,0,0)" stroke-width="1" opacity="0.2549019607843137" d="M 329.5 338 L 330 340.5 L 329 340.5 L 329.5 338 Z " /><path fill="rgb(0,0,0)" stroke="rgb(0,0,0)" stroke-width="1" opacity="0.2549019607843137" d="M 1.5 344 L 2 348.5 L 1 348.5 L 1.5 344 Z " /><path fill="rgb(0,0,0)" stroke="rgb(0,0,0)" stroke-width="1" opacity="0.2549019607843137" d="M 300.5 345 L 301 348.5 L 300 348.5 L 300.5 345 Z " /><path fill="rgb(0,0,0)" stroke="rgb(0,0,0)" stroke-width="1" opacity="0.2549019607843137" d="M 330.5 347 L 331 353.5 L 330 353.5 L 330.5 347 Z " /><path fill="rgb(0,0,0)" stroke="rgb(0,0,0)" stroke-width="1" opacity="0.2549019607843137" d="M 448.5 362 L 447.5 364 L 448.5 362 Z " /><path fill="rgb(0,0,0)" stroke="rgb(0,0,0)" stroke-width="1" opacity="0.2549019607843137" d="M 330.5 366 L 331 371.5 L 330 371.5 L 330.5 366 Z " /><path fill="rgb(0,0,0)" stroke="rgb(0,0,0)" stroke-width="1" opacity="0.2549019607843137" d="M 1.5 372 L 2 376.5 L 1 376.5 L 1.5 372 Z " /><path fill="rgb(0,0,0)" stroke="rgb(0,0,0)" stroke-width="1" opacity="0.2549019607843137" d="M 300.5 372 L 301 376.5 L 300 376.5 L 300.5 372 Z " /><path fill="rgb(0,0,0)" stroke="rgb(0,0,0)" stroke-width="1" opacity="0.2549019607843137" d="M 76.5 375 L 106 375.5 L 76.5 376 L 76.5 375 Z " /><path fill="rgb(0,0,0)" stroke="rgb(0,0,0)" stroke-width="1" opacity="0.2549019607843137" d="M 136.5 375 L 166 375.5 L 136.5 376 L 136.5 375 Z " /><path fill="rgb(0,0,0)" stroke="rgb(0,0,0)" stroke-width="1" opacity="0.2549019607843137" d="M 196.5 375 L 226 375.5 L 196.5 376 L 196.5 375 Z " /><path fill="rgb(0,0,0)" stroke="rgb(0,0,0)" stroke-width="1" opacity="0.2549019607843137" d="M 329.5 379 L 330 381.5 L 329 381.5 L 329.5 379 Z " /><path fill="rgb(0,0,0)" stroke="rgb(0,0,0)" stroke-width="1" opacity="0.2549019607843137" d="M 2.5 381 L 3 383.5 L 2 383.5 L 2.5 381 Z " /><path fill="rgb(0,0,0)" stroke="rgb(0,0,0)" stroke-width="1" opacity="0.2549019607843137" d="M 299.5 381 L 300 383.5 L 299 383.5 L 299.5 381 Z " /><path fill="rgb(0,0,0)" stroke="rgb(0,0,0)" stroke-width="1" opacity="0.2549019607843137" d="M 336.5 388 L 339 388.5 L 336.5 389 L 336.5 388 Z " /><path fill="rgb(0,0,0)" stroke="rgb(0,0,0)" stroke-width="1" opacity="0.2549019607843137" d="M 343.5 389 L 346 389.5 L 343.5 390 L 343.5 389 Z " /><path fill="rgb(0,0,0)" stroke="rgb(0,0,0)" stroke-width="1" opacity="0.2549019607843137" d="M 378.5 389 L 381 389.5 L 378.5 390 L 378.5 389 Z " /><path fill="rgb(0,0,0)" stroke="rgb(0,0,0)" stroke-width="1" opacity="0.2549019607843137" d="M 352.5 390 L 371 390.5 L 352.5 391 L 352.5 390 Z " /><path fill="rgb(0,0,0)" stroke="rgb(0,0,0)" stroke-width="1" opacity="0.2549019607843137" d="M 271.5 450 L 270.5 452 L 271.5 450 Z " /><path fill="rgb(0,0,0)" stroke="rgb(0,0,0)" stroke-width="1" opacity="0.2549019607843137" d="M 268.5 454 L 266.5 457 L 268.5 454 Z " /><path fill="rgb(0,0,0)" stroke="rgb(0,0,0)" stroke-width="1" opacity="0.2549019607843137" d="M 263.5 460 L 257.5 467 L 263.5 460 Z " /><path fill="rgb(0,0,0)" stroke="rgb(0,0,0)" stroke-width="1" opacity="0.2549019607843137" d="M 255.5 468 L 250.5 474 L 255.5 468 Z " /><path fill="rgb(0,0,0)" stroke="rgb(0,0,0)" stroke-width="1" opacity="0.2549019607843137" d="M 245.5 477 L 243.5 480 L 245.5 477 Z " /><path fill="rgb(0,0,0)" stroke="rgb(0,0,0)" stroke-width="1" opacity="0.2549019607843137" d="M 240.5 481 L 239.5 483 L 240.5 481 Z " /><path fill="rgb(0,0,0)" stroke="rgb(0,0,0)" stroke-width="1" opacity="0.2549019607843137" d="M 63.5 482 L 64.5 484 L 63.5 482 Z " /><path fill="rgb(0,0,0)" stroke="rgb(0,0,0)" stroke-width="1" opacity="0.2549019607843137" d="M 69.5 486 L 70.5 488 L 69.5 486 Z " /><path fill="rgb(0,0,0)" stroke="rgb(0,0,0)" stroke-width="1" opacity="0.2549019607843137" d="M 125.5 509 L 128 509.5 L 125.5 510 L 125.5 509 Z " /><path fill="rgb(0,0,0)" stroke="rgb(0,0,0)" stroke-width="1" opacity="0.2549019607843137" d="M 132.5 510 L 135 510.5 L 132.5 511 L 132.5 510 Z " /><path fill="rgb(0,0,0)" stroke="rgb(0,0,0)" stroke-width="1" opacity="0.2549019607843137" d="M 168.5 510 L 171 510.5 L 168.5 511 L 168.5 510 Z " /><path fill="rgb(0,0,0)" stroke="rgb(0,0,0)" stroke-width="1" opacity="0.2549019607843137" d="M 141.5 511 L 161 511.5 L 141.5 512 L 141.5 511 Z " /><path fill="rgb(0,0,0)" stroke="rgb(0,0,0)" stroke-width="1" opacity="0" d="M 0 0 L 141 0.5 L 124.5 2 L 101.5 8 L 75.5 20 L 61.5 30 L 0 30 L 0 0 Z " /><path fill="rgb(0,0,0)" stroke="rgb(0,0,0)" stroke-width="1" opacity="0" d="M 162.5 0 L 512 0 L 512 224.5 L 511 224.5 L 511 217.5 L 507 199.5 Q 501.7 181.3 493 166.5 Q 480.1 144.4 461.5 128 Q 442 110.5 415.5 100 L 400.5 95 L 380.5 91 L 350.5 90 L 349.5 91 L 340.5 91 L 339.5 92 L 328.5 93 L 302.5 101 Q 270.4 115.4 249 140.5 Q 228.6 163.4 218 195 Q 259.2 210.5 286 241.5 Q 307.5 265.5 320 298.5 L 329 333.5 L 331 365.5 L 330 366.5 L 329 387 L 336.5 389 L 351.5 390 L 352.5 391 L 370.5 391 L 371.5 390 L 380.5 390 L 381.5 389 L 392.5 388 L 407.5 384 L 436.5 371 L 450.5 361 L 512 361 L 512 512 L 161.5 512 L 161.5 511 L 170.5 511 L 186.5 508 L 214.5 498 Q 243.8 483.8 264 460.5 Q 285.6 436.6 296 401.5 L 301 376.5 L 301 345.5 L 296 319.5 L 287 295.5 Q 274 269 253.5 250 Q 234.3 231.7 207.5 221 L 192.5 216 L 173.5 212 L 165.5 212 L 164.5 211 L 138.5 211 L 137.5 212 L 129.5 212 L 113.5 215 L 85.5 225 Q 60.3 237.3 42 256.5 Q 22.5 276.5 11 304.5 L 6 319.5 L 1 344.5 L 1 376.5 L 6 401.5 L 14 421.5 L 14 424.5 L 0.5 477 L 0 166.5 L 1 166.5 L 3 182.5 L 8 199.5 L 24 232 L 60.5 205 L 88.5 192 L 108.5 186 L 125.5 183 Q 131.7 184.7 133.5 182 L 166.5 182 L 190 186 Q 196.3 163.6 208 145.5 Q 222.4 122.4 242.5 105 Q 260.3 89.3 283 78.5 Q 270.9 55.6 252.5 39 Q 233.7 21.8 208.5 11 L 182.5 3 L 171.5 2 L 170.5 1 L 162.5 1 L 162.5 0 Z " /><path fill="rgb(0,0,0)" stroke="rgb(0,0,0)" stroke-width="1" opacity="0" d="M 0.5 34 L 14 89.5 Q 3.4 108.9 0.5 136 L 0.5 34 Z " /><path fill="rgb(0,0,0)" stroke="rgb(0,0,0)" stroke-width="1" opacity="0" d="M 316 196 L 405.5 196 L 406 196.5 L 406 225 L 316.5 225 L 316 224.5 L 316 196 Z " /><path fill="rgb(0,0,0)" stroke="rgb(0,0,0)" stroke-width="1" opacity="0" d="M 511.5 255 L 512 356.5 L 511 356.5 L 498 301.5 Q 508.6 282.1 511.5 255 Z " /><path fill="rgb(0,0,0)" stroke="rgb(0,0,0)" stroke-width="1" opacity="0" d="M 316 256 L 405.5 256 L 406 256.5 L 406 285 L 316.5 285 L 316 284.5 L 316 256 Z " /><path fill="rgb(0,0,0)" stroke="rgb(0,0,0)" stroke-width="1" opacity="0" d="M 76 346 L 106 346 L 106 375 L 76 375 L 76 346 Z " /><path fill="rgb(0,0,0)" stroke="rgb(0,0,0)" stroke-width="1" opacity="0" d="M 136 346 L 166 346 L 166 375 L 136 375 L 136 346 Z " /><path fill="rgb(0,0,0)" stroke="rgb(0,0,0)" stroke-width="1" opacity="0" d="M 196 346 L 226 346 L 226 375 L 196 375 L 196 346 Z " /><path fill="rgb(0,0,0)" stroke="rgb(0,0,0)" stroke-width="1" opacity="0" d="M 0 481 L 61.5 481 Q 78.1 494.9 100.5 503 L 120.5 509 L 141 511.5 L 0 512 L 0 481 Z " /></svg>