<svg width="512" height="512" version="1.1" xmlns="http://www.w3.org/2000/svg" desc="Created with imagetracer.js version 1.2.6" ><path fill="rgb(0,0,0)" stroke="rgb(0,0,0)" stroke-width="1" opacity="0" d="M 0 0 L 201 0.5 L 179.5 4 L 152.5 15 Q 131.7 26.7 117 44.5 Q 98.2 66.2 91 99.5 L 90 114.5 L 89 115.5 L 89 176 L 52.5 176 L 48.5 177 Q 33 181.5 24 192.5 Q 15.5 202 13 217.5 L 13 470.5 Q 17.3 492.3 32.5 503 Q 40.8 509.7 54 511.5 L 0 512 L 0 0 Z " /><path fill="rgb(0,0,0)" stroke="rgb(0,0,0)" stroke-width="1" opacity="0" d="M 223.5 0 L 512 0 L 512 512 L 370 511.5 L 383.5 508 L 397 499 L 404 489.5 L 410 475.5 L 411 470.5 L 411 443 Q 454.4 436.2 477 407.5 Q 489.8 392.8 496 371.5 L 499 357.5 L 499 330.5 L 497 319.5 L 492 304.5 L 481 285.5 L 471 273 L 454.5 260 L 439.5 252 Q 427.1 246.3 411 245 L 411 217.5 L 409 208.5 Q 404.3 195.3 394.5 187 Q 385.6 178.9 371.5 176 L 335 176 L 335 115.5 L 334 114.5 L 333 99.5 L 330 87.5 Q 317.9 50.1 290.5 28 Q 277.6 17.4 261.5 10 L 236.5 2 L 223.5 1 L 223.5 0 Z " /><path fill="rgb(0,0,0)" stroke="rgb(0,0,0)" stroke-width="1" opacity="0" d="M 202.5 22 L 221.5 22 L 247.5 28 Q 273.7 38.3 290 58.5 Q 306.6 77.4 312 107.5 L 312 115.5 L 313 116.5 L 313 176 L 279 176 L 279 116.5 L 277 105.5 L 271 90.5 Q 264.2 78.4 253.5 70 Q 244 62 230.5 58 L 220.5 56 L 203.5 56 Q 173.8 61.3 159 81.5 Q 149.6 92.6 146 109.5 Q 147.5 115 145 116.5 L 145 176 L 111 176 L 111 116.5 L 112 115.5 L 112 107.5 L 114 97.5 L 121 78.5 Q 131.1 58.6 147.5 45 Q 159.9 34.4 176.5 28 L 202.5 22 Z " /><path fill="rgb(0,0,0)" stroke="rgb(0,0,0)" stroke-width="1" opacity="0" d="M 205.5 78 L 218.5 78 L 229.5 81 Q 240.8 86.2 248 95.5 L 255 108.5 L 257 117.5 L 257 176 L 167 176 L 167 117.5 Q 170.4 96.9 184.5 87 Q 192.6 80.1 205.5 78 Z " /><path fill="rgb(0,0,0)" stroke="rgb(0,0,0)" stroke-width="1" opacity="0" d="M 55.5 198 L 368.5 198 Q 377.9 200.1 383 206.5 L 389 218.5 L 389 245 Q 372.9 246.3 360.5 252 L 345.5 260 L 329 273 L 315 291.5 L 310 302 L 268.5 302 Q 267.4 301.9 268 296.5 Q 262.9 273.1 246.5 261 Q 237.8 254.2 225.5 251 L 220.5 250 L 203.5 250 Q 179.2 254.7 167 271.5 L 159 285.5 L 156 295.5 L 156 305.5 L 155 306.5 L 156 307.5 L 156 316.5 L 158 324.5 Q 162 336.5 170 344.5 L 170 351.5 L 169 352.5 L 169 366.5 L 168 367.5 L 167 395.5 L 166 396.5 L 166 409.5 L 165 410.5 L 165 425.5 L 168.5 431 L 172.5 433 L 251.5 433 L 257 429.5 L 259 425.5 L 259 410.5 L 258 409.5 L 257 385 L 309.5 385 L 310 386.5 Q 319.7 407.3 336.5 421 Q 348.4 430.6 363.5 437 L 389 443 L 389 468.5 L 388 472.5 Q 384.8 481.3 377.5 486 L 367.5 490 L 56.5 490 Q 44.6 487.4 39 478.5 L 35 468.5 L 35 218.5 Q 37.4 208.4 44.5 203 L 55.5 198 Z " /><path fill="rgb(0,0,0)" stroke="rgb(0,0,0)" stroke-width="1" opacity="0" d="M 396.5 267 L 412.5 268 L 429.5 273 Q 444.5 279.5 455 290.5 Q 468.1 303.4 474 323.5 L 476 332.5 L 476 355.5 Q 469.7 387.7 447.5 404 Q 437.3 412.3 423.5 417 L 410.5 420 L 389.5 420 Q 356.8 413.7 340 391.5 Q 330.7 380.3 326 364.5 L 324 355.5 L 324 332.5 Q 329.4 304.9 346.5 289 Q 356.5 279 370.5 273 L 382.5 269 L 395.5 268 L 396.5 267 Z M 420 310 L 411 312 L 403 316 Q 393 323 389 337 L 389 352 L 395 365 Q 402 374 415 377 L 430 377 L 444 370 Q 452 363 455 352 Q 457 332 449 324 Q 441 310 420 310 Z " /><path fill="rgb(0,0,0)" stroke="rgb(0,0,0)" stroke-width="1" opacity="0" d="M 205.5 273 Q 217.6 271.4 224.5 275 Q 234.2 279.3 240 287.5 Q 244.6 293.3 245 302 L 179.5 302 L 179 299.5 Q 182.3 285.8 192.5 279 L 205.5 273 Z " /><path fill="rgb(0,0,0)" stroke="rgb(0,0,0)" stroke-width="1" opacity="0" d="M 185.5 325 L 301.5 325 Q 302.5 325 302 329.5 L 301 330.5 L 301 357.5 L 302 362 L 247.5 362 L 234.5 349 Q 231.5 346 225.5 346 L 218.5 349 L 205.5 362 L 192 362 L 192 353.5 L 193 352.5 L 193 335.5 L 186 327.5 L 185.5 325 Z " /><path fill="rgb(0,0,0)" stroke="rgb(0,0,0)" stroke-width="1" opacity="0" d="M 421.5 333 Q 428.1 333.9 431 338.5 L 432 347.5 L 427.5 353 L 418.5 354 L 413 349.5 L 412 340.5 L 416.5 335 L 421.5 333 Z " /><path fill="rgb(0,0,0)" stroke="rgb(0,0,0)" stroke-width="1" opacity="0" d="M 226.5 374 L 234 381.5 L 235 410 L 189.5 410 L 189 409.5 L 189 397.5 L 190 396.5 L 190 385 L 214.5 385 L 226.5 374 Z " /><path fill="rgb(0,0,0)" stroke="rgb(0,0,0)" stroke-width="1" opacity="0.9921568627450981" d="M 201.5 0 L 230.5 1 L 251.5 6 L 261.5 10 Q 289 22.5 307 44.5 Q 325.8 66.2 333 99.5 L 334 114.5 L 335 115.5 L 335 176 L 371.5 176 L 375.5 177 Q 391 181.5 400 192.5 Q 407.1 200.4 410 212.5 L 411 217.5 L 411 245 L 389 245 L 389 218.5 Q 386.6 208.4 379.5 203 L 368.5 198 L 55.5 198 Q 46.1 200.1 41 206.5 L 35 218.5 L 35 468.5 Q 37.6 480.4 46.5 486 L 56.5 490 L 367.5 490 Q 379.4 487.4 385 478.5 L 389 468.5 L 389 442 L 392.5 443 L 407.5 443 L 411 442 L 411 470.5 L 410 475.5 L 404 489.5 L 397 499 L 383.5 508 L 369.5 512 L 54.5 512 Q 32.8 507.8 22 492.5 Q 15.4 483.6 13 470.5 L 13 217.5 Q 16.4 197.4 29.5 187 Q 38.4 178.9 52.5 176 L 89 176 L 89 115.5 L 90 114.5 L 91 99.5 L 94 87.5 Q 106.1 50.1 133.5 28 Q 146.4 17.4 162.5 10 L 179.5 4 L 201.5 0 Z M 203 22 L 177 28 Q 160 34 148 45 Q 131 59 121 79 L 114 98 L 112 108 L 112 116 L 111 117 L 111 176 L 145 176 L 145 117 Q 148 115 146 110 Q 150 93 159 82 Q 174 61 204 56 L 221 56 L 231 58 Q 244 62 254 70 Q 264 78 271 91 L 277 106 L 279 117 L 279 176 L 313 176 L 313 117 L 312 116 L 312 108 Q 307 77 290 59 Q 274 38 248 28 L 222 22 L 203 22 Z M 206 78 Q 193 80 185 87 Q 170 97 167 118 L 167 176 L 257 176 L 257 118 L 255 109 L 248 96 Q 241 86 230 81 L 219 78 L 206 78 Z " /><path fill="rgb(49,197,197)" stroke="rgb(49,197,197)" stroke-width="1" opacity="0.7372549019607844" d="M 208.5 250 L 216 250.5 L 208.5 251 L 208.5 250 Z " /><path fill="rgb(49,197,197)" stroke="rgb(49,197,197)" stroke-width="1" opacity="0.7372549019607844" d="M 245.5 261 L 246.5 263 L 245.5 261 Z " /><path fill="rgb(49,197,197)" stroke="rgb(49,197,197)" stroke-width="1" opacity="0.7372549019607844" d="M 338.5 266 L 337.5 268 L 338.5 266 Z " /><path fill="rgb(49,197,197)" stroke="rgb(49,197,197)" stroke-width="1" opacity="0.7372549019607844" d="M 461.5 266 L 462.5 268 L 461.5 266 Z " /><path fill="rgb(49,197,197)" stroke="rgb(49,197,197)" stroke-width="1" opacity="0.7372549019607844" d="M 168.5 271 L 167.5 273 L 168.5 271 Z " /><path fill="rgb(49,197,197)" stroke="rgb(49,197,197)" stroke-width="1" opacity="0.7372549019607844" d="M 255.5 271 L 256.5 273 L 255.5 271 Z " /><path fill="rgb(49,197,197)" stroke="rgb(49,197,197)" stroke-width="1" opacity="0.7372549019607844" d="M 468.5 272 L 471.5 276 L 468.5 272 Z " /><path fill="rgb(49,197,197)" stroke="rgb(49,197,197)" stroke-width="1" opacity="0.7372549019607844" d="M 330.5 273 L 329.5 275 L 330.5 273 Z " /><path fill="rgb(49,197,197)" stroke="rgb(49,197,197)" stroke-width="1" opacity="0.7372549019607844" d="M 193.5 277 L 192.5 279 L 193.5 277 Z " /><path fill="rgb(49,197,197)" stroke="rgb(49,197,197)" stroke-width="1" opacity="0.7372549019607844" d="M 189.5 280 L 186.5 284 L 189.5 280 Z " /><path fill="rgb(49,197,197)" stroke="rgb(49,197,197)" stroke-width="1" opacity="0.7372549019607844" d="M 234.5 280 L 237.5 284 L 234.5 280 Z " /><path fill="rgb(49,197,197)" stroke="rgb(49,197,197)" stroke-width="1" opacity="0.7372549019607844" d="M 323.5 281 L 322.5 283 L 323.5 281 Z " /><path fill="rgb(49,197,197)" stroke="rgb(49,197,197)" stroke-width="1" opacity="0.7372549019607844" d="M 354.5 281 L 353.5 283 L 354.5 281 Z " /><path fill="rgb(49,197,197)" stroke="rgb(49,197,197)" stroke-width="1" opacity="0.7372549019607844" d="M 445.5 281 L 446.5 283 L 445.5 281 Z " /><path fill="rgb(49,197,197)" stroke="rgb(49,197,197)" stroke-width="1" opacity="0.7372549019607844" d="M 476.5 281 L 477.5 283 L 476.5 281 Z " /><path fill="rgb(49,197,197)" stroke="rgb(49,197,197)" stroke-width="1" opacity="0.7372549019607844" d="M 349.5 285 L 341.5 294 L 349.5 285 Z " /><path fill="rgb(49,197,197)" stroke="rgb(49,197,197)" stroke-width="1" opacity="0.7372549019607844" d="M 450.5 285 L 458.5 294 L 450.5 285 Z " /><path fill="rgb(49,197,197)" stroke="rgb(49,197,197)" stroke-width="1" opacity="0.7372549019607844" d="M 338.5 297 L 337.5 299 L 338.5 297 Z " /><path fill="rgb(49,197,197)" stroke="rgb(49,197,197)" stroke-width="1" opacity="0.7372549019607844" d="M 461.5 297 L 462.5 299 L 461.5 297 Z " /><path fill="rgb(49,197,197)" stroke="rgb(49,197,197)" stroke-width="1" opacity="0.7372549019607844" d="M 156.5 299 L 157 302.5 L 156 302.5 L 156.5 299 Z " /><path fill="rgb(49,197,197)" stroke="rgb(49,197,197)" stroke-width="1" opacity="0.7372549019607844" d="M 267.5 299 L 268 301.5 L 267 301.5 L 267.5 299 Z " /><path fill="rgb(49,197,197)" stroke="rgb(49,197,197)" stroke-width="1" opacity="0.7372549019607844" d="M 156.5 310 L 157 312.5 L 156 312.5 L 156.5 310 Z " /><path fill="rgb(49,197,197)" stroke="rgb(49,197,197)" stroke-width="1" opacity="0.7372549019607844" d="M 301.5 334 L 302 337.5 L 301 337.5 L 301.5 334 Z " /><path fill="rgb(49,197,197)" stroke="rgb(49,197,197)" stroke-width="1" opacity="0.7372549019607844" d="M 498.5 334 L 499 337.5 L 498 337.5 L 498.5 334 Z " /><path fill="rgb(49,197,197)" stroke="rgb(49,197,197)" stroke-width="1" opacity="0.7372549019607844" d="M 414.5 335 L 413.5 337 L 414.5 335 Z " /><path fill="rgb(49,197,197)" stroke="rgb(49,197,197)" stroke-width="1" opacity="0.7372549019607844" d="M 429.5 335 L 430.5 337 L 429.5 335 Z " /><path fill="rgb(49,197,197)" stroke="rgb(49,197,197)" stroke-width="1" opacity="0.7372549019607844" d="M 192.5 337 L 193 339.5 L 192 339.5 L 192.5 337 Z " /><path fill="rgb(49,197,197)" stroke="rgb(49,197,197)" stroke-width="1" opacity="0.7372549019607844" d="M 389.5 338 L 390 340.5 L 389 340.5 L 389.5 338 Z " /><path fill="rgb(49,197,197)" stroke="rgb(49,197,197)" stroke-width="1" opacity="0.7372549019607844" d="M 454.5 338 L 455 340.5 L 454 340.5 L 454.5 338 Z " /><path fill="rgb(49,197,197)" stroke="rgb(49,197,197)" stroke-width="1" opacity="0.7372549019607844" d="M 192.5 341 L 193 345.5 L 192 345.5 L 192.5 341 Z " /><path fill="rgb(49,197,197)" stroke="rgb(49,197,197)" stroke-width="1" opacity="0.7372549019607844" d="M 169.5 342 L 170.5 344 L 169.5 342 Z " /><path fill="rgb(49,197,197)" stroke="rgb(49,197,197)" stroke-width="1" opacity="0.7372549019607844" d="M 170.5 345 L 171 349.5 L 170 349.5 L 170.5 345 Z " /><path fill="rgb(49,197,197)" stroke="rgb(49,197,197)" stroke-width="1" opacity="0.7372549019607844" d="M 233.5 349 L 246.5 363 L 233.5 349 Z " /><path fill="rgb(49,197,197)" stroke="rgb(49,197,197)" stroke-width="1" opacity="0.7372549019607844" d="M 301.5 349 L 302 353.5 L 301 353.5 L 301.5 349 Z " /><path fill="rgb(49,197,197)" stroke="rgb(49,197,197)" stroke-width="1" opacity="0.7372549019607844" d="M 498.5 349 L 499 353.5 L 498 353.5 L 498.5 349 Z " /><path fill="rgb(49,197,197)" stroke="rgb(49,197,197)" stroke-width="1" opacity="0.7372549019607844" d="M 218.5 350 L 206.5 363 L 218.5 350 Z " /><path fill="rgb(49,197,197)" stroke="rgb(49,197,197)" stroke-width="1" opacity="0.7372549019607844" d="M 476.5 352 L 477 354.5 L 476 354.5 L 476.5 352 Z " /><path fill="rgb(49,197,197)" stroke="rgb(49,197,197)" stroke-width="1" opacity="0.7372549019607844" d="M 191.5 356 L 192 359.5 L 191 359.5 L 191.5 356 Z " /><path fill="rgb(49,197,197)" stroke="rgb(49,197,197)" stroke-width="1" opacity="0.7372549019607844" d="M 169.5 360 L 170 363.5 L 169 363.5 L 169.5 360 Z " /><path fill="rgb(49,197,197)" stroke="rgb(49,197,197)" stroke-width="1" opacity="0.7372549019607844" d="M 396.5 364 L 397.5 366 L 396.5 364 Z " /><path fill="rgb(49,197,197)" stroke="rgb(49,197,197)" stroke-width="1" opacity="0.7372549019607844" d="M 447.5 364 L 446.5 366 L 447.5 364 Z " /><path fill="rgb(49,197,197)" stroke="rgb(49,197,197)" stroke-width="1" opacity="0.7372549019607844" d="M 400.5 368 L 401.5 370 L 400.5 368 Z " /><path fill="rgb(49,197,197)" stroke="rgb(49,197,197)" stroke-width="1" opacity="0.7372549019607844" d="M 443.5 368 L 442.5 370 L 443.5 368 Z " /><path fill="rgb(49,197,197)" stroke="rgb(49,197,197)" stroke-width="1" opacity="0.7372549019607844" d="M 168.5 374 L 169 378.5 L 168 378.5 L 168.5 374 Z " /><path fill="rgb(49,197,197)" stroke="rgb(49,197,197)" stroke-width="1" opacity="0.7372549019607844" d="M 417.5 376 L 421 376.5 L 417.5 377 L 417.5 376 Z " /><path fill="rgb(49,197,197)" stroke="rgb(49,197,197)" stroke-width="1" opacity="0.7372549019607844" d="M 423.5 376 L 427 376.5 L 423.5 377 L 423.5 376 Z " /><path fill="rgb(49,197,197)" stroke="rgb(49,197,197)" stroke-width="1" opacity="0.7372549019607844" d="M 234.5 383 L 235 387.5 L 234 387.5 L 234.5 383 Z " /><path fill="rgb(49,197,197)" stroke="rgb(49,197,197)" stroke-width="1" opacity="0.7372549019607844" d="M 189.5 385 L 190 388.5 L 189 388.5 L 189.5 385 Z " /><path fill="rgb(49,197,197)" stroke="rgb(49,197,197)" stroke-width="1" opacity="0.7372549019607844" d="M 256.5 387 L 257 391.5 L 256 391.5 L 256.5 387 Z " /><path fill="rgb(49,197,197)" stroke="rgb(49,197,197)" stroke-width="1" opacity="0.7372549019607844" d="M 167.5 389 L 168 392.5 L 167 392.5 L 167.5 389 Z " /><path fill="rgb(49,197,197)" stroke="rgb(49,197,197)" stroke-width="1" opacity="0.7372549019607844" d="M 338.5 390 L 339.5 392 L 338.5 390 Z " /><path fill="rgb(49,197,197)" stroke="rgb(49,197,197)" stroke-width="1" opacity="0.7372549019607844" d="M 461.5 390 L 460.5 392 L 461.5 390 Z " /><path fill="rgb(49,197,197)" stroke="rgb(49,197,197)" stroke-width="1" opacity="0.7372549019607844" d="M 343.5 396 L 347.5 401 L 343.5 396 Z " /><path fill="rgb(49,197,197)" stroke="rgb(49,197,197)" stroke-width="1" opacity="0.7372549019607844" d="M 456.5 396 L 452.5 401 L 456.5 396 Z " /><path fill="rgb(49,197,197)" stroke="rgb(49,197,197)" stroke-width="1" opacity="0.7372549019607844" d="M 235.5 398 L 236 402.5 L 235 402.5 L 235.5 398 Z " /><path fill="rgb(49,197,197)" stroke="rgb(49,197,197)" stroke-width="1" opacity="0.7372549019607844" d="M 188.5 399 L 189 403.5 L 188 403.5 L 188.5 399 Z " /><path fill="rgb(49,197,197)" stroke="rgb(49,197,197)" stroke-width="1" opacity="0.7372549019607844" d="M 257.5 402 L 258 406.5 L 257 406.5 L 257.5 402 Z " /><path fill="rgb(49,197,197)" stroke="rgb(49,197,197)" stroke-width="1" opacity="0.7372549019607844" d="M 166.5 403 L 167 407.5 L 166 407.5 L 166.5 403 Z " /><path fill="rgb(49,197,197)" stroke="rgb(49,197,197)" stroke-width="1" opacity="0.7372549019607844" d="M 352.5 404 L 353.5 406 L 352.5 404 Z " /><path fill="rgb(49,197,197)" stroke="rgb(49,197,197)" stroke-width="1" opacity="0.7372549019607844" d="M 447.5 404 L 446.5 406 L 447.5 404 Z " /><path fill="rgb(49,197,197)" stroke="rgb(49,197,197)" stroke-width="1" opacity="0.7372549019607844" d="M 323.5 406 L 324.5 408 L 323.5 406 Z " /><path fill="rgb(49,197,197)" stroke="rgb(49,197,197)" stroke-width="1" opacity="0.7372549019607844" d="M 476.5 406 L 474.5 409 L 476.5 406 Z " /><path fill="rgb(49,197,197)" stroke="rgb(49,197,197)" stroke-width="1" opacity="0.7372549019607844" d="M 258.5 417 L 259 423.5 L 258 423.5 L 258.5 417 Z " /><path fill="rgb(49,197,197)" stroke="rgb(49,197,197)" stroke-width="1" opacity="0.7372549019607844" d="M 165.5 418 L 166 423.5 L 165 423.5 L 165.5 418 Z " /><path fill="rgb(49,197,197)" stroke="rgb(49,197,197)" stroke-width="1" opacity="0.7372549019607844" d="M 335.5 418 L 337.5 421 L 335.5 418 Z " /><path fill="rgb(49,197,197)" stroke="rgb(49,197,197)" stroke-width="1" opacity="0.7372549019607844" d="M 464.5 418 L 462.5 421 L 464.5 418 Z " /><path fill="rgb(49,197,197)" stroke="rgb(49,197,197)" stroke-width="1" opacity="0.7372549019607844" d="M 390.5 420 L 393 420.5 L 390.5 421 L 390.5 420 Z " /><path fill="rgb(49,197,197)" stroke="rgb(49,197,197)" stroke-width="1" opacity="0.7372549019607844" d="M 407.5 420 L 410 420.5 L 407.5 421 L 407.5 420 Z " /><path fill="rgb(49,197,197)" stroke="rgb(49,197,197)" stroke-width="1" opacity="0.7372549019607844" d="M 168.5 429 L 169.5 431 L 168.5 429 Z " /><path fill="rgb(49,197,197)" stroke="rgb(49,197,197)" stroke-width="1" opacity="0.7372549019607844" d="M 255.5 429 L 254.5 431 L 255.5 429 Z " /><path fill="rgb(51,204,204)" stroke="rgb(51,204,204)" stroke-width="1" opacity="0.9921568627450981" d="M 389.5 245 L 410.5 245 L 425.5 248 L 439.5 253 Q 461.5 263 476 280.5 Q 486.6 292.9 493 309.5 L 498 329.5 L 499 348.5 L 498 349.5 L 498 358.5 L 496 368.5 L 492 380.5 Q 482.6 403.1 465.5 418 Q 453.1 429.1 436.5 436 L 419.5 441 L 414.5 441 L 407.5 443 L 392.5 443 L 372.5 439 L 349.5 429 Q 335.5 420.5 325 408.5 Q 315.5 398.6 311 385 L 256.5 385 Q 255.3 385.3 256 391.5 L 257 392.5 L 257 406.5 L 258 407.5 L 258 425.5 L 253.5 431 L 247.5 433 L 176.5 433 Q 169.9 432.1 167 427.5 L 166 425.5 L 166 408.5 L 167 407.5 L 167 393.5 L 168 392.5 L 168 379.5 L 169 378.5 L 169 364.5 L 170 363.5 L 171 343.5 Q 156.3 330.7 156 303.5 L 157 302.5 L 158 291.5 L 164 277.5 L 176.5 263 L 194.5 253 L 202.5 251 L 221.5 251 Q 243.4 255.6 255 270.5 L 264 285.5 L 267 295.5 L 267 301.5 L 268.5 303 L 309.5 303 L 311 301.5 Q 320.1 281.1 336.5 268 L 360.5 253 L 371.5 249 L 389.5 245 Z M 389 267 Q 364 271 350 285 Q 329 302 323 334 L 323 355 L 325 365 Q 331 384 343 397 Q 353 407 367 414 L 377 418 L 391 421 L 410 421 L 424 418 Q 440 412 453 401 Q 472 385 477 355 L 477 334 L 475 324 Q 470 306 459 294 Q 447 280 430 272 L 412 267 L 389 267 Z M 207 272 Q 196 274 190 280 Q 181 287 178 300 L 179 303 L 246 303 L 245 296 L 238 284 Q 229 271 207 272 Z M 184 325 L 191 334 L 193 341 L 192 342 L 192 356 L 191 357 L 191 363 L 207 363 L 222 348 L 225 347 L 232 348 L 247 363 L 303 363 Q 301 358 302 350 L 301 349 L 301 339 L 303 329 L 303 325 L 184 325 Z M 227 373 L 215 384 L 211 385 L 189 385 L 189 399 L 188 400 L 188 411 L 189 411 L 236 411 L 235 384 L 234 381 L 227 373 Z " /><path fill="rgb(51,204,204)" stroke="rgb(51,204,204)" stroke-width="1" opacity="0.9921568627450981" d="M 418.5 311 Q 439.6 310.9 448 323.5 L 454 335.5 L 455 346.5 L 453 355.5 L 444.5 368 L 435.5 374 L 421.5 377 L 408.5 374 L 398 366.5 L 391 355.5 L 389 341.5 Q 391.2 340.3 390 335.5 L 394 326.5 L 401.5 318 Q 408.1 312.6 418.5 311 Z M 419 333 L 415 335 L 411 341 L 412 350 L 419 355 L 428 354 L 433 348 Q 434 340 431 337 Q 428 332 419 333 Z " /><path fill="rgb(49,205,205)" stroke="rgb(49,205,205)" stroke-width="1" opacity="0.22745098039215686" d="M 385.5 245 L 389 245.5 L 385.5 246 L 385.5 245 Z " /><path fill="rgb(49,205,205)" stroke="rgb(49,205,205)" stroke-width="1" opacity="0.22745098039215686" d="M 411.5 245 L 415 245.5 L 411.5 246 L 411.5 245 Z " /><path fill="rgb(49,205,205)" stroke="rgb(49,205,205)" stroke-width="1" opacity="0.22745098039215686" d="M 379.5 246 L 382 246.5 L 379.5 247 L 379.5 246 Z " /><path fill="rgb(49,205,205)" stroke="rgb(49,205,205)" stroke-width="1" opacity="0.22745098039215686" d="M 418.5 246 L 421 246.5 L 418.5 247 L 418.5 246 Z " /><path fill="rgb(49,205,205)" stroke="rgb(49,205,205)" stroke-width="1" opacity="0.22745098039215686" d="M 371.5 248 L 374 248.5 L 371.5 249 L 371.5 248 Z " /><path fill="rgb(49,205,205)" stroke="rgb(49,205,205)" stroke-width="1" opacity="0.22745098039215686" d="M 203.5 250 L 208 250.5 L 203.5 251 L 203.5 250 Z " /><path fill="rgb(49,205,205)" stroke="rgb(49,205,205)" stroke-width="1" opacity="0.22745098039215686" d="M 216.5 250 L 221 250.5 L 216.5 251 L 216.5 250 Z " /><path fill="rgb(49,205,205)" stroke="rgb(49,205,205)" stroke-width="1" opacity="0.22745098039215686" d="M 223.5 251 L 226 251.5 L 223.5 252 L 223.5 251 Z " /><path fill="rgb(49,205,205)" stroke="rgb(49,205,205)" stroke-width="1" opacity="0.22745098039215686" d="M 194.5 252 L 197 252.5 L 192.5 254 L 192.5 253 L 194.5 252 Z " /><path fill="rgb(49,205,205)" stroke="rgb(49,205,205)" stroke-width="1" opacity="0.22745098039215686" d="M 360.5 252 L 362 252.5 L 358.5 254 L 358.5 253 L 360.5 252 Z " /><path fill="rgb(49,205,205)" stroke="rgb(49,205,205)" stroke-width="1" opacity="0.22745098039215686" d="M 189.5 254 L 191 254.5 L 187.5 256 L 187.5 255 L 189.5 254 Z " /><path fill="rgb(49,205,205)" stroke="rgb(49,205,205)" stroke-width="1" opacity="0.22745098039215686" d="M 356.5 254 L 355.5 256 L 349.5 259 L 350.5 257 L 356.5 254 Z " /><path fill="rgb(49,205,205)" stroke="rgb(49,205,205)" stroke-width="1" opacity="0.22745098039215686" d="M 185.5 256 L 184.5 258 L 182.5 259 L 183.5 257 L 185.5 256 Z " /><path fill="rgb(49,205,205)" stroke="rgb(49,205,205)" stroke-width="1" opacity="0.22745098039215686" d="M 238.5 256 L 242 258.5 L 240.5 258 L 238.5 256 Z " /><path fill="rgb(49,205,205)" stroke="rgb(49,205,205)" stroke-width="1" opacity="0.22745098039215686" d="M 447.5 256 L 451 258.5 L 449.5 258 L 447.5 256 Z " /><path fill="rgb(49,205,205)" stroke="rgb(49,205,205)" stroke-width="1" opacity="0.22745098039215686" d="M 180.5 259 L 178.5 262 L 167.5 272 L 177.5 261 L 180.5 259 Z " /><path fill="rgb(49,205,205)" stroke="rgb(49,205,205)" stroke-width="1" opacity="0.22745098039215686" d="M 243.5 259 L 244.5 261 L 243.5 259 Z " /><path fill="rgb(49,205,205)" stroke="rgb(49,205,205)" stroke-width="1" opacity="0.22745098039215686" d="M 347.5 259 L 346.5 261 L 343.5 263 L 345.5 260 L 347.5 259 Z " /><path fill="rgb(49,205,205)" stroke="rgb(49,205,205)" stroke-width="1" opacity="0.22745098039215686" d="M 452.5 259 L 457 262.5 L 454.5 261 L 452.5 259 Z " /><path fill="rgb(49,205,205)" stroke="rgb(49,205,205)" stroke-width="1" opacity="0.22745098039215686" d="M 246.5 261 L 256.5 272 L 246.5 261 Z " /><path fill="rgb(49,205,205)" stroke="rgb(49,205,205)" stroke-width="1" opacity="0.22745098039215686" d="M 341.5 263 L 339.5 266 L 341.5 263 Z " /><path fill="rgb(49,205,205)" stroke="rgb(49,205,205)" stroke-width="1" opacity="0.22745098039215686" d="M 458.5 263 L 460.5 266 L 458.5 263 Z " /><path fill="rgb(49,205,205)" stroke="rgb(49,205,205)" stroke-width="1" opacity="0.22745098039215686" d="M 337.5 266 L 331.5 273 L 337.5 266 Z " /><path fill="rgb(49,205,205)" stroke="rgb(49,205,205)" stroke-width="1" opacity="0.22745098039215686" d="M 462.5 266 L 467.5 272 L 462.5 266 Z " /><path fill="rgb(49,205,205)" stroke="rgb(49,205,205)" stroke-width="1" opacity="0.22745098039215686" d="M 390.5 267 L 396 267.5 L 390.5 268 L 390.5 267 Z " /><path fill="rgb(49,205,205)" stroke="rgb(49,205,205)" stroke-width="1" opacity="0.22745098039215686" d="M 404.5 267 L 410 267.5 L 404.5 268 L 404.5 267 Z " /><path fill="rgb(49,205,205)" stroke="rgb(49,205,205)" stroke-width="1" opacity="0.22745098039215686" d="M 384.5 268 L 387 268.5 L 384.5 269 L 384.5 268 Z " /><path fill="rgb(49,205,205)" stroke="rgb(49,205,205)" stroke-width="1" opacity="0.22745098039215686" d="M 413.5 268 L 416 268.5 L 413.5 269 L 413.5 268 Z " /><path fill="rgb(49,205,205)" stroke="rgb(49,205,205)" stroke-width="1" opacity="0.22745098039215686" d="M 208.5 272 L 216 272.5 L 208.5 273 L 208.5 272 Z " /><path fill="rgb(49,205,205)" stroke="rgb(49,205,205)" stroke-width="1" opacity="0.22745098039215686" d="M 166.5 273 L 165 275.5 L 163.5 278 L 164 276.5 L 166.5 273 Z " /><path fill="rgb(49,205,205)" stroke="rgb(49,205,205)" stroke-width="1" opacity="0.22745098039215686" d="M 257.5 273 L 258.5 275 L 257.5 273 Z " /><path fill="rgb(49,205,205)" stroke="rgb(49,205,205)" stroke-width="1" opacity="0.22745098039215686" d="M 328.5 275 L 322.5 282 L 328.5 275 Z " /><path fill="rgb(49,205,205)" stroke="rgb(49,205,205)" stroke-width="1" opacity="0.22745098039215686" d="M 259.5 276 L 260.5 278 L 259.5 276 Z " /><path fill="rgb(49,205,205)" stroke="rgb(49,205,205)" stroke-width="1" opacity="0.22745098039215686" d="M 472.5 276 L 477.5 282 L 472.5 276 Z " /><path fill="rgb(49,205,205)" stroke="rgb(49,205,205)" stroke-width="1" opacity="0.22745098039215686" d="M 194.5 277 L 193.5 279 L 194.5 277 Z " /><path fill="rgb(49,205,205)" stroke="rgb(49,205,205)" stroke-width="1" opacity="0.22745098039215686" d="M 229.5 277 L 240 286.5 L 231.5 279 L 229.5 277 Z " /><path fill="rgb(49,205,205)" stroke="rgb(49,205,205)" stroke-width="1" opacity="0.22745098039215686" d="M 361.5 277 L 360.5 279 L 358.5 280 L 359.5 278 L 361.5 277 Z " /><path fill="rgb(49,205,205)" stroke="rgb(49,205,205)" stroke-width="1" opacity="0.22745098039215686" d="M 438.5 277 L 442 279.5 L 440.5 279 L 438.5 277 Z " /><path fill="rgb(49,205,205)" stroke="rgb(49,205,205)" stroke-width="1" opacity="0.22745098039215686" d="M 191.5 279 L 184.5 287 L 191.5 279 Z " /><path fill="rgb(49,205,205)" stroke="rgb(49,205,205)" stroke-width="1" opacity="0.22745098039215686" d="M 356.5 280 L 354.5 283 L 356.5 280 Z " /><path fill="rgb(49,205,205)" stroke="rgb(49,205,205)" stroke-width="1" opacity="0.22745098039215686" d="M 443.5 280 L 445.5 283 L 443.5 280 Z " /><path fill="rgb(49,205,205)" stroke="rgb(49,205,205)" stroke-width="1" opacity="0.22745098039215686" d="M 321.5 283 L 319.5 286 L 321.5 283 Z " /><path fill="rgb(49,205,205)" stroke="rgb(49,205,205)" stroke-width="1" opacity="0.22745098039215686" d="M 352.5 283 L 347.5 289 L 352.5 283 Z " /><path fill="rgb(49,205,205)" stroke="rgb(49,205,205)" stroke-width="1" opacity="0.22745098039215686" d="M 447.5 283 L 452.5 289 L 447.5 283 Z " /><path fill="rgb(49,205,205)" stroke="rgb(49,205,205)" stroke-width="1" opacity="0.22745098039215686" d="M 478.5 283 L 480.5 286 L 478.5 283 Z " /><path fill="rgb(49,205,205)" stroke="rgb(49,205,205)" stroke-width="1" opacity="0.22745098039215686" d="M 318.5 287 L 317.5 289 L 318.5 287 Z " /><path fill="rgb(49,205,205)" stroke="rgb(49,205,205)" stroke-width="1" opacity="0.22745098039215686" d="M 481.5 287 L 482.5 289 L 481.5 287 Z " /><path fill="rgb(49,205,205)" stroke="rgb(49,205,205)" stroke-width="1" opacity="0.22745098039215686" d="M 183.5 288 L 183 289.5 L 180.5 295 L 180 293.5 L 183.5 288 Z " /><path fill="rgb(49,205,205)" stroke="rgb(49,205,205)" stroke-width="1" opacity="0.22745098039215686" d="M 240.5 288 L 243 292.5 L 242 292.5 L 240.5 288 Z " /><path fill="rgb(49,205,205)" stroke="rgb(49,205,205)" stroke-width="1" opacity="0.22745098039215686" d="M 316.5 290 L 315.5 292 L 316.5 290 Z " /><path fill="rgb(49,205,205)" stroke="rgb(49,205,205)" stroke-width="1" opacity="0.22745098039215686" d="M 483.5 290 L 484.5 292 L 483.5 290 Z " /><path fill="rgb(49,205,205)" stroke="rgb(49,205,205)" stroke-width="1" opacity="0.22745098039215686" d="M 157.5 291 L 158 293.5 L 157 293.5 L 157.5 291 Z " /><path fill="rgb(49,205,205)" stroke="rgb(49,205,205)" stroke-width="1" opacity="0.22745098039215686" d="M 266.5 291 L 267 293.5 L 266 293.5 L 266.5 291 Z " /><path fill="rgb(49,205,205)" stroke="rgb(49,205,205)" stroke-width="1" opacity="0.22745098039215686" d="M 344.5 291 L 339.5 297 L 344.5 291 Z " /><path fill="rgb(49,205,205)" stroke="rgb(49,205,205)" stroke-width="1" opacity="0.22745098039215686" d="M 455.5 291 L 460.5 297 L 455.5 291 Z " /><path fill="rgb(49,205,205)" stroke="rgb(49,205,205)" stroke-width="1" opacity="0.22745098039215686" d="M 156.5 295 L 157 298.5 L 156 298.5 L 156.5 295 Z " /><path fill="rgb(49,205,205)" stroke="rgb(49,205,205)" stroke-width="1" opacity="0.22745098039215686" d="M 313.5 295 L 313 296.5 L 309.5 303 L 268 302.5 L 310 302 L 313.5 295 Z " /><path fill="rgb(49,205,205)" stroke="rgb(49,205,205)" stroke-width="1" opacity="0.22745098039215686" d="M 486.5 295 L 492 305.5 L 491 305.5 L 486.5 295 Z " /><path fill="rgb(49,205,205)" stroke="rgb(49,205,205)" stroke-width="1" opacity="0.22745098039215686" d="M 179.5 296 L 180 298.5 L 179 298.5 L 179.5 296 Z " /><path fill="rgb(49,205,205)" stroke="rgb(49,205,205)" stroke-width="1" opacity="0.22745098039215686" d="M 244.5 296 L 245 298.5 L 244 298.5 L 244.5 296 Z " /><path fill="rgb(49,205,205)" stroke="rgb(49,205,205)" stroke-width="1" opacity="0.22745098039215686" d="M 267.5 296 L 268 298.5 L 267 298.5 L 267.5 296 Z " /><path fill="rgb(49,205,205)" stroke="rgb(49,205,205)" stroke-width="1" opacity="0.22745098039215686" d="M 338.5 298 L 337 300.5 L 333.5 306 L 334 304.5 L 338.5 298 Z " /><path fill="rgb(49,205,205)" stroke="rgb(49,205,205)" stroke-width="1" opacity="0.22745098039215686" d="M 461.5 298 L 467 305.5 L 465 304.5 L 461.5 298 Z " /><path fill="rgb(49,205,205)" stroke="rgb(49,205,205)" stroke-width="1" opacity="0.22745098039215686" d="M 178.5 301 L 179.5 302 L 244.5 302 L 246 301.5 L 245.5 303 L 178 303 L 178.5 301 Z " /><path fill="rgb(49,205,205)" stroke="rgb(49,205,205)" stroke-width="1" opacity="0.22745098039215686" d="M 419.5 310 L 425 310.5 L 419.5 311 L 419.5 310 Z " /><path fill="rgb(49,205,205)" stroke="rgb(49,205,205)" stroke-width="1" opacity="0.22745098039215686" d="M 413.5 311 L 416 311.5 L 413.5 312 L 413.5 311 Z " /><path fill="rgb(49,205,205)" stroke="rgb(49,205,205)" stroke-width="1" opacity="0.22745098039215686" d="M 428.5 311 L 431 311.5 L 428.5 312 L 428.5 311 Z " /><path fill="rgb(49,205,205)" stroke="rgb(49,205,205)" stroke-width="1" opacity="0.22745098039215686" d="M 156.5 313 L 157 316.5 L 156 316.5 L 156.5 313 Z " /><path fill="rgb(49,205,205)" stroke="rgb(49,205,205)" stroke-width="1" opacity="0.22745098039215686" d="M 404.5 315 L 403.5 317 L 395.5 324 L 402.5 316 L 404.5 315 Z " /><path fill="rgb(49,205,205)" stroke="rgb(49,205,205)" stroke-width="1" opacity="0.22745098039215686" d="M 439.5 315 L 449 323.5 L 441.5 317 L 439.5 315 Z " /><path fill="rgb(49,205,205)" stroke="rgb(49,205,205)" stroke-width="1" opacity="0.22745098039215686" d="M 496.5 319 L 497 321.5 L 496 321.5 L 496.5 319 Z " /><path fill="rgb(49,205,205)" stroke="rgb(49,205,205)" stroke-width="1" opacity="0.22745098039215686" d="M 325.5 324 L 326 326.5 L 325 326.5 L 325.5 324 Z " /><path fill="rgb(49,205,205)" stroke="rgb(49,205,205)" stroke-width="1" opacity="0.22745098039215686" d="M 474.5 324 L 475 326.5 L 474 326.5 L 474.5 324 Z " /><path fill="rgb(49,205,205)" stroke="rgb(49,205,205)" stroke-width="1" opacity="0.22745098039215686" d="M 497.5 324 L 498 326.5 L 497 326.5 L 497.5 324 Z " /><path fill="rgb(49,205,205)" stroke="rgb(49,205,205)" stroke-width="1" opacity="0.22745098039215686" d="M 184.5 325 L 193 336.5 L 192 336.5 Q 190.5 330 185 327.5 L 184.5 325 Z " /><path fill="rgb(49,205,205)" stroke="rgb(49,205,205)" stroke-width="1" opacity="0.22745098039215686" d="M 394.5 325 L 393.5 327 L 394.5 325 Z " /><path fill="rgb(49,205,205)" stroke="rgb(49,205,205)" stroke-width="1" opacity="0.22745098039215686" d="M 449.5 325 L 450.5 327 L 449.5 325 Z " /><path fill="rgb(49,205,205)" stroke="rgb(49,205,205)" stroke-width="1" opacity="0.22745098039215686" d="M 160.5 328 Q 164.1 337.9 171 344.5 L 168 342.5 Q 162.1 336.4 160.5 328 Z " /><path fill="rgb(49,205,205)" stroke="rgb(49,205,205)" stroke-width="1" opacity="0.22745098039215686" d="M 324.5 329 L 325 331.5 L 324 331.5 L 324.5 329 Z " /><path fill="rgb(49,205,205)" stroke="rgb(49,205,205)" stroke-width="1" opacity="0.22745098039215686" d="M 475.5 329 L 476 331.5 L 475 331.5 L 475.5 329 Z " /><path fill="rgb(49,205,205)" stroke="rgb(49,205,205)" stroke-width="1" opacity="0.22745098039215686" d="M 301.5 330 L 302 333.5 L 301 333.5 L 301.5 330 Z " /><path fill="rgb(49,205,205)" stroke="rgb(49,205,205)" stroke-width="1" opacity="0.22745098039215686" d="M 498.5 330 L 499 333.5 L 498 333.5 L 498.5 330 Z " /><path fill="rgb(49,205,205)" stroke="rgb(49,205,205)" stroke-width="1" opacity="0.22745098039215686" d="M 418.5 333 L 421 333.5 Q 415.4 334.4 413 338.5 L 412.5 340 L 412 338.5 L 418.5 333 Z " /><path fill="rgb(49,205,205)" stroke="rgb(49,205,205)" stroke-width="1" opacity="0.22745098039215686" d="M 423.5 333 Q 429.9 333.7 432 338.5 L 431.5 340 L 427.5 335 L 423.5 334 L 423.5 333 Z " /><path fill="rgb(49,205,205)" stroke="rgb(49,205,205)" stroke-width="1" opacity="0.22745098039215686" d="M 323.5 335 L 324 352.5 L 323 352.5 L 323.5 335 Z " /><path fill="rgb(49,205,205)" stroke="rgb(49,205,205)" stroke-width="1" opacity="0.22745098039215686" d="M 476.5 335 L 477 351.5 L 476 351.5 L 476.5 335 Z " /><path fill="rgb(49,205,205)" stroke="rgb(49,205,205)" stroke-width="1" opacity="0.22745098039215686" d="M 411.5 341 L 412 346.5 L 411 346.5 L 411.5 341 Z " /><path fill="rgb(49,205,205)" stroke="rgb(49,205,205)" stroke-width="1" opacity="0.22745098039215686" d="M 432.5 341 L 433 346.5 L 432 346.5 L 432.5 341 Z " /><path fill="rgb(49,205,205)" stroke="rgb(49,205,205)" stroke-width="1" opacity="0.22745098039215686" d="M 192.5 346 L 193 352.5 L 192 352.5 L 192.5 346 Z " /><path fill="rgb(49,205,205)" stroke="rgb(49,205,205)" stroke-width="1" opacity="0.22745098039215686" d="M 225.5 346 L 228 346.5 L 225.5 347 L 225.5 346 Z " /><path fill="rgb(49,205,205)" stroke="rgb(49,205,205)" stroke-width="1" opacity="0.22745098039215686" d="M 221.5 347 L 223 347.5 L 218.5 350 L 205.5 363 L 191 363 L 191.5 360 L 192 362 L 205.5 362 L 221.5 347 Z " /><path fill="rgb(49,205,205)" stroke="rgb(49,205,205)" stroke-width="1" opacity="0.22745098039215686" d="M 230.5 347 L 233 348.5 L 231.5 348 L 230.5 347 Z " /><path fill="rgb(49,205,205)" stroke="rgb(49,205,205)" stroke-width="1" opacity="0.22745098039215686" d="M 234.5 349 L 247.5 362 L 301.5 362 L 303 361.5 L 302.5 363 L 247.5 363 L 234.5 349 Z " /><path fill="rgb(49,205,205)" stroke="rgb(49,205,205)" stroke-width="1" opacity="0.22745098039215686" d="M 389.5 349 L 390 351.5 L 389 351.5 L 389.5 349 Z " /><path fill="rgb(49,205,205)" stroke="rgb(49,205,205)" stroke-width="1" opacity="0.22745098039215686" d="M 454.5 349 L 455 351.5 L 454 351.5 L 454.5 349 Z " /><path fill="rgb(49,205,205)" stroke="rgb(49,205,205)" stroke-width="1" opacity="0.22745098039215686" d="M 413.5 350 L 415.5 353 L 413.5 350 Z " /><path fill="rgb(49,205,205)" stroke="rgb(49,205,205)" stroke-width="1" opacity="0.22745098039215686" d="M 430.5 350 L 428.5 353 L 430.5 350 Z " /><path fill="rgb(49,205,205)" stroke="rgb(49,205,205)" stroke-width="1" opacity="0.22745098039215686" d="M 169.5 352 L 170 359.5 L 169 359.5 L 169.5 352 Z " /><path fill="rgb(49,205,205)" stroke="rgb(49,205,205)" stroke-width="1" opacity="0.22745098039215686" d="M 301.5 354 L 302 357.5 L 301 357.5 L 301.5 354 Z " /><path fill="rgb(49,205,205)" stroke="rgb(49,205,205)" stroke-width="1" opacity="0.22745098039215686" d="M 419.5 354 L 425 354.5 L 419.5 355 L 419.5 354 Z " /><path fill="rgb(49,205,205)" stroke="rgb(49,205,205)" stroke-width="1" opacity="0.22745098039215686" d="M 498.5 354 L 499 357.5 L 498 357.5 L 498.5 354 Z " /><path fill="rgb(49,205,205)" stroke="rgb(49,205,205)" stroke-width="1" opacity="0.22745098039215686" d="M 324.5 356 L 325 358.5 L 324 358.5 L 324.5 356 Z " /><path fill="rgb(49,205,205)" stroke="rgb(49,205,205)" stroke-width="1" opacity="0.22745098039215686" d="M 475.5 356 L 476 358.5 L 475 358.5 L 475.5 356 Z " /><path fill="rgb(49,205,205)" stroke="rgb(49,205,205)" stroke-width="1" opacity="0.22745098039215686" d="M 392.5 359 L 401 369.5 L 395 364.5 L 392.5 359 Z " /><path fill="rgb(49,205,205)" stroke="rgb(49,205,205)" stroke-width="1" opacity="0.22745098039215686" d="M 451.5 359 L 451 360.5 L 443.5 370 L 448 364.5 L 451.5 359 Z " /><path fill="rgb(49,205,205)" stroke="rgb(49,205,205)" stroke-width="1" opacity="0.22745098039215686" d="M 497.5 361 L 498 363.5 L 497 363.5 L 497.5 361 Z " /><path fill="rgb(49,205,205)" stroke="rgb(49,205,205)" stroke-width="1" opacity="0.22745098039215686" d="M 168.5 367 L 169 373.5 L 168 373.5 L 168.5 367 Z " /><path fill="rgb(49,205,205)" stroke="rgb(49,205,205)" stroke-width="1" opacity="0.22745098039215686" d="M 402.5 370 L 410 374.5 L 408.5 375 Q 403.5 373.5 402.5 370 Z " /><path fill="rgb(49,205,205)" stroke="rgb(49,205,205)" stroke-width="1" opacity="0.22745098039215686" d="M 441.5 370 L 439.5 373 L 437.5 374 L 438.5 372 L 441.5 370 Z " /><path fill="rgb(49,205,205)" stroke="rgb(49,205,205)" stroke-width="1" opacity="0.22745098039215686" d="M 329.5 373 L 331 376.5 L 330 376.5 L 329.5 373 Z " /><path fill="rgb(49,205,205)" stroke="rgb(49,205,205)" stroke-width="1" opacity="0.22745098039215686" d="M 470.5 373 L 471 374.5 L 469.5 377 L 469 375.5 L 470.5 373 Z " /><path fill="rgb(49,205,205)" stroke="rgb(49,205,205)" stroke-width="1" opacity="0.22745098039215686" d="M 225.5 374 L 216.5 384 L 225.5 374 Z " /><path fill="rgb(49,205,205)" stroke="rgb(49,205,205)" stroke-width="1" opacity="0.22745098039215686" d="M 227.5 374 L 233.5 381 L 227.5 374 Z " /><path fill="rgb(49,205,205)" stroke="rgb(49,205,205)" stroke-width="1" opacity="0.22745098039215686" d="M 414.5 376 L 417 376.5 L 414.5 377 L 414.5 376 Z " /><path fill="rgb(49,205,205)" stroke="rgb(49,205,205)" stroke-width="1" opacity="0.22745098039215686" d="M 427.5 376 L 430 376.5 L 427.5 377 L 427.5 376 Z " /><path fill="rgb(49,205,205)" stroke="rgb(49,205,205)" stroke-width="1" opacity="0.22745098039215686" d="M 332.5 380 L 335 383.5 L 333 382.5 L 332.5 380 Z " /><path fill="rgb(49,205,205)" stroke="rgb(49,205,205)" stroke-width="1" opacity="0.22745098039215686" d="M 467.5 380 L 467 381.5 L 465.5 384 L 466 382.5 L 467.5 380 Z " /><path fill="rgb(49,205,205)" stroke="rgb(49,205,205)" stroke-width="1" opacity="0.22745098039215686" d="M 167.5 381 L 168 388.5 L 167 388.5 L 167.5 381 Z " /><path fill="rgb(49,205,205)" stroke="rgb(49,205,205)" stroke-width="1" opacity="0.22745098039215686" d="M 335.5 385 L 336.5 387 L 335.5 385 Z " /><path fill="rgb(49,205,205)" stroke="rgb(49,205,205)" stroke-width="1" opacity="0.22745098039215686" d="M 464.5 385 L 463.5 387 L 464.5 385 Z " /><path fill="rgb(49,205,205)" stroke="rgb(49,205,205)" stroke-width="1" opacity="0.22745098039215686" d="M 489.5 386 L 490 387.5 L 487.5 391 L 488 389.5 L 489.5 386 Z " /><path fill="rgb(49,205,205)" stroke="rgb(49,205,205)" stroke-width="1" opacity="0.22745098039215686" d="M 234.5 388 L 235 395.5 L 234 395.5 L 234.5 388 Z " /><path fill="rgb(49,205,205)" stroke="rgb(49,205,205)" stroke-width="1" opacity="0.22745098039215686" d="M 337.5 388 L 339.5 391 L 337.5 388 Z " /><path fill="rgb(49,205,205)" stroke="rgb(49,205,205)" stroke-width="1" opacity="0.22745098039215686" d="M 462.5 388 L 460.5 391 L 462.5 388 Z " /><path fill="rgb(49,205,205)" stroke="rgb(49,205,205)" stroke-width="1" opacity="0.22745098039215686" d="M 189.5 389 L 190 396.5 L 189 396.5 L 189.5 389 Z " /><path fill="rgb(49,205,205)" stroke="rgb(49,205,205)" stroke-width="1" opacity="0.22745098039215686" d="M 340.5 392 L 351.5 404 L 340.5 392 Z " /><path fill="rgb(49,205,205)" stroke="rgb(49,205,205)" stroke-width="1" opacity="0.22745098039215686" d="M 459.5 392 L 448.5 404 L 459.5 392 Z " /><path fill="rgb(49,205,205)" stroke="rgb(49,205,205)" stroke-width="1" opacity="0.22745098039215686" d="M 314.5 394 L 320 401.5 L 317 399.5 L 314.5 394 Z " /><path fill="rgb(49,205,205)" stroke="rgb(49,205,205)" stroke-width="1" opacity="0.22745098039215686" d="M 485.5 394 L 485 395.5 L 480.5 402 L 482 399.5 L 485.5 394 Z " /><path fill="rgb(49,205,205)" stroke="rgb(49,205,205)" stroke-width="1" opacity="0.22745098039215686" d="M 257.5 395 L 258 401.5 L 257 401.5 L 257.5 395 Z " /><path fill="rgb(49,205,205)" stroke="rgb(49,205,205)" stroke-width="1" opacity="0.22745098039215686" d="M 166.5 396 L 167 402.5 L 166 402.5 L 166.5 396 Z " /><path fill="rgb(49,205,205)" stroke="rgb(49,205,205)" stroke-width="1" opacity="0.22745098039215686" d="M 235.5 403 L 236 411 L 188.5 411 Q 187.3 410.8 188 404.5 L 189 404.5 Q 188.4 409.9 189.5 410 L 235 410 L 235.5 403 Z " /><path fill="rgb(49,205,205)" stroke="rgb(49,205,205)" stroke-width="1" opacity="0.22745098039215686" d="M 320.5 403 L 322.5 406 L 320.5 403 Z " /><path fill="rgb(49,205,205)" stroke="rgb(49,205,205)" stroke-width="1" opacity="0.22745098039215686" d="M 479.5 403 L 477.5 406 L 479.5 403 Z " /><path fill="rgb(49,205,205)" stroke="rgb(49,205,205)" stroke-width="1" opacity="0.22745098039215686" d="M 353.5 404 L 355.5 407 L 353.5 404 Z " /><path fill="rgb(49,205,205)" stroke="rgb(49,205,205)" stroke-width="1" opacity="0.22745098039215686" d="M 446.5 404 L 444.5 407 L 446.5 404 Z " /><path fill="rgb(49,205,205)" stroke="rgb(49,205,205)" stroke-width="1" opacity="0.22745098039215686" d="M 323.5 407 L 336.5 421 L 323.5 407 Z " /><path fill="rgb(49,205,205)" stroke="rgb(49,205,205)" stroke-width="1" opacity="0.22745098039215686" d="M 357.5 407 L 358.5 409 L 357.5 407 Z " /><path fill="rgb(49,205,205)" stroke="rgb(49,205,205)" stroke-width="1" opacity="0.22745098039215686" d="M 442.5 407 L 441.5 409 L 442.5 407 Z " /><path fill="rgb(49,205,205)" stroke="rgb(49,205,205)" stroke-width="1" opacity="0.22745098039215686" d="M 476.5 407 L 463.5 421 L 476.5 407 Z " /><path fill="rgb(49,205,205)" stroke="rgb(49,205,205)" stroke-width="1" opacity="0.22745098039215686" d="M 165.5 410 L 166 417.5 L 165 417.5 L 165.5 410 Z " /><path fill="rgb(49,205,205)" stroke="rgb(49,205,205)" stroke-width="1" opacity="0.22745098039215686" d="M 258.5 410 L 259 416.5 L 258 416.5 L 258.5 410 Z " /><path fill="rgb(49,205,205)" stroke="rgb(49,205,205)" stroke-width="1" opacity="0.22745098039215686" d="M 362.5 410 L 371 414.5 L 369.5 415 L 363.5 412 L 362.5 410 Z " /><path fill="rgb(49,205,205)" stroke="rgb(49,205,205)" stroke-width="1" opacity="0.22745098039215686" d="M 437.5 410 L 436.5 412 L 429.5 415 L 429.5 414 L 437.5 410 Z " /><path fill="rgb(49,205,205)" stroke="rgb(49,205,205)" stroke-width="1" opacity="0.22745098039215686" d="M 381.5 418 L 384 418.5 L 381.5 419 L 381.5 418 Z " /><path fill="rgb(49,205,205)" stroke="rgb(49,205,205)" stroke-width="1" opacity="0.22745098039215686" d="M 416.5 418 L 419 418.5 L 416.5 419 L 416.5 418 Z " /><path fill="rgb(49,205,205)" stroke="rgb(49,205,205)" stroke-width="1" opacity="0.22745098039215686" d="M 386.5 419 L 389 419.5 L 386.5 420 L 386.5 419 Z " /><path fill="rgb(49,205,205)" stroke="rgb(49,205,205)" stroke-width="1" opacity="0.22745098039215686" d="M 411.5 419 L 414 419.5 L 411.5 420 L 411.5 419 Z " /><path fill="rgb(49,205,205)" stroke="rgb(49,205,205)" stroke-width="1" opacity="0.22745098039215686" d="M 393.5 420 L 407 420.5 L 393.5 421 L 393.5 420 Z " /><path fill="rgb(49,205,205)" stroke="rgb(49,205,205)" stroke-width="1" opacity="0.22745098039215686" d="M 338.5 421 L 340.5 424 L 338.5 421 Z " /><path fill="rgb(49,205,205)" stroke="rgb(49,205,205)" stroke-width="1" opacity="0.22745098039215686" d="M 461.5 421 L 459.5 424 L 461.5 421 Z " /><path fill="rgb(49,205,205)" stroke="rgb(49,205,205)" stroke-width="1" opacity="0.22745098039215686" d="M 342.5 424 L 347 427.5 L 345.5 427 L 342.5 424 Z " /><path fill="rgb(49,205,205)" stroke="rgb(49,205,205)" stroke-width="1" opacity="0.22745098039215686" d="M 457.5 424 L 455.5 427 L 453.5 428 L 454.5 426 L 457.5 424 Z " /><path fill="rgb(49,205,205)" stroke="rgb(49,205,205)" stroke-width="1" opacity="0.22745098039215686" d="M 166.5 427 L 169 430.5 L 167 429.5 L 166.5 427 Z " /><path fill="rgb(49,205,205)" stroke="rgb(49,205,205)" stroke-width="1" opacity="0.22745098039215686" d="M 257.5 427 L 257 428.5 L 255.5 431 L 256 429.5 L 257.5 427 Z " /><path fill="rgb(49,205,205)" stroke="rgb(49,205,205)" stroke-width="1" opacity="0.22745098039215686" d="M 348.5 428 L 349.5 430 L 348.5 428 Z " /><path fill="rgb(49,205,205)" stroke="rgb(49,205,205)" stroke-width="1" opacity="0.22745098039215686" d="M 451.5 428 L 450.5 430 L 451.5 428 Z " /><path fill="rgb(49,205,205)" stroke="rgb(49,205,205)" stroke-width="1" opacity="0.22745098039215686" d="M 361.5 435 L 365 436.5 L 363.5 437 L 361.5 435 Z " /><path fill="rgb(49,205,205)" stroke="rgb(49,205,205)" stroke-width="1" opacity="0.22745098039215686" d="M 372.5 439 L 375 439.5 L 372.5 440 L 372.5 439 Z " /><path fill="rgb(49,205,205)" stroke="rgb(49,205,205)" stroke-width="1" opacity="0.22745098039215686" d="M 376.5 440 L 379 440.5 L 376.5 441 L 376.5 440 Z " /><path fill="rgb(49,205,205)" stroke="rgb(49,205,205)" stroke-width="1" opacity="0.22745098039215686" d="M 421.5 440 L 424 440.5 L 421.5 441 L 421.5 440 Z " /><path fill="rgb(49,205,205)" stroke="rgb(49,205,205)" stroke-width="1" opacity="0.22745098039215686" d="M 381.5 441 L 384 441.5 L 381.5 442 L 381.5 441 Z " /><path fill="rgb(49,205,205)" stroke="rgb(49,205,205)" stroke-width="1" opacity="0.22745098039215686" d="M 416.5 441 L 419 441.5 L 416.5 442 L 416.5 441 Z " /></svg>