<?xml version="1.0" encoding="UTF-8"?>
<svg version="1.1" xmlns="http://www.w3.org/2000/svg" width="512" height="512">
<path d="M0 0 C2.41901615 -0.00898649 4.83802802 -0.01919677 7.2570343 -0.03053284 C13.12222591 -0.05420089 18.98733233 -0.063691 24.85256197 -0.06536997 C29.62193962 -0.06680092 34.39128769 -0.07299222 39.16065598 -0.08247185 C52.7074861 -0.1088467 66.25424529 -0.12273581 79.80110128 -0.12048043 C80.89366503 -0.12030062 80.89366503 -0.12030062 82.00830078 -0.12011719 C83.10220987 -0.11993322 83.10220987 -0.11993322 84.21821813 -0.11974555 C96.04779915 -0.11852509 107.87709423 -0.147272 119.70659252 -0.18953229 C131.87727462 -0.23266606 144.04781729 -0.25334085 156.21857774 -0.25075096 C163.04205776 -0.249757 169.86523735 -0.25791297 176.68864822 -0.29028511 C183.10252482 -0.3205222 189.51593115 -0.31955165 195.92984581 -0.29773521 C198.27999868 -0.29460099 200.63019123 -0.301667 202.98027611 -0.31981659 C206.19548875 -0.3430353 209.40852076 -0.32901051 212.62368774 -0.30592346 C214.00931331 -0.3290695 214.00931331 -0.3290695 215.42293131 -0.35268313 C222.53342082 -0.24030132 227.50186953 2.11753923 233.12255859 6.43579102 C238.06712907 11.64383262 239.85770605 17.15161952 240.43505859 24.31079102 C240.23549289 30.74678498 238.24279341 37.38004623 233.69907475 42.09937572 C223.79275581 50.49697831 212.03066994 49.13380247 199.77319336 49.06347656 C197.49402279 49.0686591 195.21485635 49.07606199 192.93569946 49.08551025 C188.04063016 49.10104377 183.14590341 49.10092358 178.25082588 49.0885067 C170.50515954 49.06892724 162.75979637 49.08418645 155.0141449 49.10395813 C144.15075305 49.12800623 133.28748563 49.13614658 122.42407227 49.13037109 C111.26651012 49.12451061 100.10897716 49.12343573 88.95141602 49.13232422 C88.26429272 49.13286679 87.57716942 49.13340936 86.8692242 49.13396838 C79.35786137 49.14014255 71.84650585 49.14889047 64.33515072 49.16132069 C63.6738216 49.16241317 63.01249249 49.16350566 62.3311231 49.16463125 C59.03258397 49.1701444 55.73404548 49.17591339 52.43550724 49.18193275 C44.7413208 49.19498114 37.04724795 49.19627604 29.35305607 49.18779981 C24.56047511 49.18416622 19.76792298 49.18848515 14.97534561 49.19464111 C12.75946508 49.1957234 10.54357972 49.19338328 8.32770729 49.18729591 C5.29293785 49.17936173 2.25841404 49.18375849 -0.77635193 49.19096375 C-1.64408043 49.18561841 -2.51180893 49.18027308 -3.40583223 49.17476577 C-13.99860828 49.23086856 -23.41953053 50.72881607 -31.87744141 57.43579102 C-40.71568977 66.46050032 -41.31944884 76.1545798 -41.26512146 88.22531128 C-41.26929758 89.73476975 -41.27477662 91.24422509 -41.28144127 92.75367463 C-41.29587829 96.88933258 -41.29165663 101.02479096 -41.28427446 105.16045976 C-41.27954075 109.62546544 -41.29205445 114.09042807 -41.30229187 118.55541992 C-41.3194814 127.29808516 -41.32031953 136.04067854 -41.31507897 144.78335629 C-41.31103622 151.89025769 -41.31248208 158.99713786 -41.31782722 166.10403824 C-41.31894986 167.62175484 -41.31894986 167.62175484 -41.32009517 169.17013238 C-41.32162666 171.2256848 -41.32316501 173.28123721 -41.32471014 175.33678962 C-41.33843581 194.61029568 -41.33299708 213.88376114 -41.32152493 233.15726627 C-41.31159314 250.78426006 -41.32453217 268.41114886 -41.34845912 286.03812645 C-41.37285001 304.14349762 -41.38245797 322.24881989 -41.37580639 340.35420716 C-41.37231407 350.51660408 -41.3745471 360.67892028 -41.39205742 370.84130478 C-41.40677928 379.49259208 -41.40741505 388.14374181 -41.38998651 396.79502641 C-41.38147391 401.20743763 -41.37933328 405.61960309 -41.39463806 410.0320015 C-41.40848746 414.0749237 -41.40371896 418.11738966 -41.38439883 422.16028549 C-41.38063925 423.6191635 -41.3835596 425.07807809 -41.39401048 426.53692351 C-41.46099043 436.60644952 -40.30254785 444.19739293 -34.75244141 452.68579102 C-24.91351113 462.09694172 -13.93448613 463.76514327 -0.73838806 463.67388916 C0.69845334 463.67622767 0.69845334 463.67622767 2.16432184 463.67861342 C5.34066296 463.68154433 8.51679434 463.67044041 11.69311523 463.65942383 C13.98390195 463.65889904 16.27468907 463.6593366 18.56547546 463.66065979 C23.48226369 463.66198927 28.39900176 463.65760719 33.31578255 463.64905548 C41.09478467 463.63663706 48.87369454 463.64364137 56.6526947 463.65447998 C59.32033248 463.65790821 61.98797025 463.66130237 64.65560818 463.664608 C65.65529356 463.66585501 65.65529356 463.66585501 66.67517461 463.66712721 C74.24300196 463.67629108 81.81083 463.68125732 89.37866211 463.68432617 C90.06962234 463.68461192 90.76058258 463.68489767 91.472481 463.68519208 C102.67800458 463.68929956 113.88347501 463.67805884 125.0889867 463.66295066 C136.61784 463.64796452 148.14650184 463.65636849 159.67533582 463.68356776 C166.13891356 463.69785238 172.60207038 463.70089967 179.06562996 463.67734528 C185.14223638 463.65520137 191.21818858 463.66074606 197.29477119 463.68733025 C199.52074918 463.69209545 201.7467767 463.68665574 203.97269821 463.67009926 C225.90858166 463.51773254 225.90858166 463.51773254 233.12255859 470.43579102 C238.3799942 476.12829602 240.61592569 482.47782728 240.37255859 490.32641602 C239.5996052 496.8482103 237.30462588 503.16885484 232.12255859 507.43579102 C225.35419247 511.74038063 219.62065648 513.16635573 211.68183899 513.0639801 C210.17806703 513.07462168 210.17806703 513.07462168 208.64391583 513.08547825 C205.30998178 513.10297363 201.97722667 513.08499553 198.64331055 513.06689453 C196.24255342 513.07203671 193.84180008 513.07932023 191.4410553 513.08857727 C185.61123169 513.10514834 179.78178035 513.09847816 173.95196781 513.08048905 C169.20831796 513.0664215 164.46475903 513.06257914 159.72109032 513.06593132 C158.70551063 513.06664748 158.70551063 513.06664748 157.66941419 513.06737811 C156.29361348 513.06840454 154.91781279 513.0694599 153.54201212 513.07054388 C141.39114099 513.07910042 129.24043141 513.06247378 117.08959961 513.03271484 C105.32878829 513.00391192 93.56820995 512.9967801 81.80737305 513.01220703 C68.97464273 513.02901716 56.14202291 513.03295209 43.30928963 513.01549667 C41.93722833 513.01365248 40.56516702 513.01181776 39.1931057 513.0099926 C38.51819513 513.00908051 37.84328456 513.00816842 37.14792216 513.00722869 C32.41894694 513.00165065 27.69002609 513.0049051 22.96105385 513.01153755 C16.57757114 513.01923919 10.19442121 513.00694777 3.8109951 512.97968864 C1.47747662 512.97284287 -0.85607316 512.97266556 -3.18959045 512.97990417 C-18.9363997 513.02309567 -33.06659353 512.18970914 -47.25244141 504.62329102 C-47.92106201 504.27564697 -48.58968262 503.92800293 -49.27856445 503.56982422 C-54.62876127 500.71625588 -59.39172341 497.53678502 -63.87744141 493.43579102 C-64.76947266 492.6352832 -65.66150391 491.83477539 -66.58056641 491.01000977 C-80.4970147 477.87303467 -89.69241422 460.03587193 -91.15385902 440.79694021 C-91.26448636 436.76341701 -91.28302472 432.74022281 -91.26512146 428.70573425 C-91.26930314 427.15498878 -91.2747852 425.60424636 -91.28144127 424.05350953 C-91.29580543 419.82671716 -91.29167965 415.60012127 -91.28427446 411.37331855 C-91.27952253 406.80126456 -91.2920705 402.22925184 -91.30229187 397.6572113 C-91.31944602 388.71335791 -91.32032687 379.76957487 -91.31507897 370.82570931 C-91.31102951 363.55212185 -91.31249002 356.27855511 -91.31782722 349.00496864 C-91.31857565 347.96781375 -91.31932407 346.93065886 -91.32009517 345.86207503 C-91.32162673 343.75475467 -91.32316507 341.64743432 -91.32471014 339.54011396 C-91.33842308 319.79904917 -91.3330061 300.05802407 -91.32152493 280.31696019 C-91.31159511 262.28048089 -91.32453104 244.24410421 -91.34845912 226.20764073 C-91.37287702 207.66137773 -91.38245129 189.11516247 -91.37580639 170.56888372 C-91.37231999 160.16715562 -91.37450789 149.76550641 -91.39205742 139.36379051 C-91.40681312 130.50858135 -91.40737098 121.65350661 -91.38998651 112.79829999 C-91.38150159 108.28587454 -91.37926517 103.77368889 -91.39463806 99.26127625 C-91.40857058 95.12017188 -91.40361339 90.9795108 -91.38439883 86.83843151 C-91.38066453 85.35065957 -91.38348544 83.86285137 -91.39401048 82.37511196 C-91.48137818 69.06544915 -89.47415503 55.84737896 -83.06494141 43.99829102 C-82.71729736 43.33418213 -82.36965332 42.67007324 -82.01147461 41.98583984 C-79.15260962 36.662189 -75.96369454 31.90538526 -71.87744141 27.43579102 C-71.07693359 26.54375977 -70.27642578 25.65172852 -69.45166016 24.73266602 C-60.05817652 14.78182662 -48.91139439 7.74995323 -35.87744141 3.43579102 C-35.18057535 3.18865891 -34.4837093 2.94152681 -33.76572609 2.68690586 C-22.76154129 -0.66320585 -11.38866842 -0.0084514 0 0 Z " fill="#000000" transform="translate(123.87744140625,-0.435791015625)"/>
<path d="M0 0 C7.10403086 5.24751612 13.17539886 12.01380319 19.41723633 18.24023438 C20.54636004 19.36308008 21.67566821 20.48574032 22.80514526 21.60823059 C26.48430605 25.26653117 30.15829456 28.93000385 33.83203125 32.59375 C35.10236647 33.8600328 36.37273396 35.12628322 37.64313316 36.39250183 C43.60600354 42.33637097 49.56649483 48.28261313 55.52405149 54.23180819 C62.3871963 61.08515841 69.25856293 67.93012641 76.13693601 74.76819181 C81.46642643 80.06752362 86.7882188 85.37450741 92.10430735 90.68728304 C95.27460536 93.8552331 98.44810825 97.01980588 101.6298008 100.17631531 C104.61896481 103.14219399 107.59845644 106.11745902 110.570858 109.1001339 C111.66102902 110.19080003 112.75461128 111.27806906 113.85187721 112.36159706 C115.35312588 113.8450985 116.84141479 115.3405357 118.32722473 116.83947754 C119.16211835 117.6719828 119.99701197 118.50448807 120.85720539 119.36222076 C124.95373671 124.40504904 126.43016038 129.41258221 126.4375 135.9375 C126.46650391 137.65259766 126.46650391 137.65259766 126.49609375 139.40234375 C125.07777759 149.68792787 117.6537096 155.91809687 110.64135742 162.8762207 C109.4690451 164.05395957 108.29758402 165.23254628 107.12690735 166.41191101 C103.95838492 169.59860417 100.77741827 172.77259214 97.59345412 175.94384789 C94.25684262 179.27030176 90.93003617 182.60653898 87.60163879 185.94120789 C82.01267707 191.53743694 76.41535671 197.12520154 70.81323242 202.70825195 C64.34255548 209.1571514 57.88642869 215.62034857 51.43764991 222.09114009 C45.8924293 227.65452797 40.33943241 233.2100637 34.77989274 238.75914258 C31.46289005 242.06991906 28.14862575 245.38331536 24.84136009 248.70382118 C21.73214948 251.82460923 18.61327266 254.9354063 15.48675346 258.03885078 C14.34290997 259.17741784 13.20243337 260.31937925 12.06565475 261.46500015 C10.50970711 263.03192837 8.94187515 264.58594069 7.37052917 266.1374054 C6.49725574 267.00917073 5.6239823 267.88093607 4.72424603 268.77911854 C-1.27204366 273.6674614 -8.36357534 275.49764978 -16.03515625 274.8203125 C-22.55016639 273.55098647 -28.43500285 270.13161172 -32.64453125 264.9921875 C-36.57654328 258.66924019 -37.76461145 251.93015089 -36.625 244.58203125 C-34.1347653 235.53936648 -26.32717195 229.17625496 -19.87133789 222.7578125 C-19.18655334 222.07290741 -18.50176878 221.38800232 -17.79623318 220.68234253 C-15.60736861 218.49421666 -13.41510541 216.30953352 -11.22265625 214.125 C-9.85943223 212.76324864 -8.49643504 211.40127017 -7.13366699 210.0390625 C-4.10266364 207.01045797 -1.06986727 203.98366238 1.96408081 200.95800781 C9.24518447 193.69668504 16.52238785 186.43145503 23.8000499 179.1666832 C27.60742773 175.36608623 31.41493146 171.56561539 35.22242737 167.76513672 C36.54069358 166.44929057 37.85895924 165.13344387 39.17722416 163.81759644 C40.10874019 162.88778961 41.04025621 161.95798279 42 161 C41.00755028 160.99853344 40.01510056 160.99706688 38.9925766 160.99555588 C14.8386733 160.958953 -9.31509141 160.899493 -33.4688797 160.81609726 C-45.14950286 160.77629619 -56.83005854 160.74390908 -68.51074219 160.72900391 C-78.69220503 160.71599298 -88.87351947 160.68904246 -99.05489874 160.64538693 C-104.44535981 160.62275971 -109.83563774 160.60709009 -115.22615051 160.60811615 C-120.30202312 160.608862 -125.3774907 160.59094084 -130.45325851 160.55883217 C-132.31399564 160.55032802 -134.17477817 160.54858674 -136.03552628 160.55419731 C-138.58181295 160.56085104 -141.12681612 160.54288469 -143.67297363 160.51898193 C-144.40451487 160.52674235 -145.13605611 160.53450277 -145.88976526 160.54249835 C-152.2906056 160.43656596 -157.42504461 158.25645045 -162.2421875 154.03515625 C-163.05042969 153.05869141 -163.05042969 153.05869141 -163.875 152.0625 C-164.42929688 151.41410156 -164.98359375 150.76570312 -165.5546875 150.09765625 C-170.03412097 143.59642443 -169.67463728 136.62859083 -169 129 C-167.31914417 122.34040667 -162.53621678 117.81452553 -157 114 C-152.71418188 111.84439061 -148.73650324 111.70923634 -144.03373718 111.7215271 C-143.2372559 111.7157347 -142.44077462 111.7099423 -141.62015754 111.70397437 C-138.95465695 111.68698614 -136.28932963 111.68409888 -133.6237793 111.68115234 C-131.71173173 111.67185336 -129.79968822 111.66168473 -127.88764954 111.65071106 C-122.6980371 111.62339371 -117.50845184 111.60825647 -112.31878638 111.59528303 C-106.89485031 111.57966013 -101.47096979 111.55286721 -96.04707336 111.5272522 C-85.77663024 111.48044956 -75.50617668 111.44371261 -65.23568135 111.41057932 C-53.54288776 111.37236846 -41.85014994 111.32295557 -30.15740335 111.27259517 C-6.10497689 111.16925321 17.94748538 111.08000014 42 111 C41.06927673 110.0826004 40.13855347 109.16520081 39.17962646 108.22000122 C30.39425697 99.5564611 21.62492533 90.87696987 12.87089157 82.1817646 C8.37023877 77.71237328 3.86419819 73.24871416 -0.65478516 68.79785156 C-5.01873579 64.49927327 -9.36770297 60.18604204 -13.70684052 55.86242294 C-15.36172276 54.21859456 -17.02186215 52.58004064 -18.68738556 50.94699478 C-21.02626658 48.6519094 -23.34544783 46.33847586 -25.66113281 44.02001953 C-26.69151924 43.02199059 -26.69151924 43.02199059 -27.74272156 42.00379944 C-33.21530337 36.46030873 -37.06238518 29.89383483 -37.4375 21.9375 C-36.54447725 13.90029524 -34.25551485 7.38785955 -28 2 C-18.96622457 -3.72661294 -9.78433856 -4.60201962 0 0 Z " fill="#000000" transform="translate(353,120)"/>
</svg>
