<svg width="512" height="512" version="1.1" xmlns="http://www.w3.org/2000/svg" desc="Created with imagetracer.js version 1.2.6" ><path fill="rgb(0,0,0)" stroke="rgb(0,0,0)" stroke-width="1" opacity="0.996078431372549" d="M 386.5 1 L 413.5 1 L 432.5 5 L 443.5 9 Q 467.6 19.9 484 38.5 Q 499.1 55.4 507 79.5 L 511 98.5 L 511 122.5 Q 506.4 143.4 498 160.5 L 477 197.5 Q 446.3 244.8 408.5 285 Q 404.5 288.5 395.5 287 Q 388 284 384 277.5 Q 356.8 246.7 333 212.5 L 305 166.5 Q 296.6 150.4 291 131.5 Q 291.6 125.4 289 122.5 L 289 98.5 L 293 79.5 L 303 56.5 Q 312.7 40.2 326.5 28 Q 339.4 16.4 356.5 9 L 367.5 5 L 386.5 1 Z M 389 32 L 370 37 L 350 49 Q 326 66 320 101 L 320 120 L 321 125 L 326 139 L 338 163 Q 365 208 398 247 L 401 248 Q 429 215 453 178 L 474 139 L 480 120 L 480 101 L 477 88 Q 472 72 463 62 Q 450 44 428 36 L 412 32 L 389 32 Z " /><path fill="rgb(0,0,0)" stroke="rgb(0,0,0)" stroke-width="1" opacity="0.996078431372549" d="M 390.5 65 L 409.5 65 L 422.5 70 L 434 78 L 442 89.5 L 447 102.5 L 447 121.5 L 442 134.5 L 434 146 L 422.5 154 L 409.5 159 L 390.5 159 L 377.5 154 L 366 146 L 358 134.5 L 353 121.5 L 353 102.5 L 358 89.5 L 366 78 L 377.5 70 L 390.5 65 Z M 395 96 L 391 98 L 384 107 Q 382 117 386 122 Q 389 126 396 128 Q 405 129 410 126 Q 414 123 416 117 Q 417 107 414 103 Q 410 94 395 96 Z " /><path fill="rgb(0,0,0)" stroke="rgb(0,0,0)" stroke-width="1" opacity="0.996078431372549" d="M 171.5 129 L 183.5 130 L 278.5 168 L 285 173.5 L 288 182.5 L 285 191.5 L 281.5 195 L 274.5 198 L 269.5 198 L 192.5 167 L 192 422 L 319.5 473 L 320 304.5 L 323 295.5 L 327.5 291 Q 331.5 287.5 340.5 289 L 349 295.5 L 352 304.5 L 352.5 473 L 480 422 L 480 240.5 L 483 231.5 L 487.5 227 Q 491.5 223.5 500.5 225 L 509 231.5 L 511 235.5 L 511 436.5 L 504.5 445 L 343.5 510 L 331.5 511 L 180.5 450 L 174.5 449 L 23.5 510 L 11.5 511 L 3 504.5 L 1 500.5 L 1 203.5 L 7.5 195 L 171.5 129 Z M 160 167 L 32 218 L 33 473 L 160 422 L 160 167 Z " /><path fill="rgb(0,0,0)" stroke="rgb(0,0,0)" stroke-width="1" opacity="0" d="M 0 0 L 388 0.5 L 368.5 4 L 346.5 13 Q 327.5 23.5 314 39.5 Q 299.3 56.3 292 80.5 L 288 99.5 L 288 119.5 L 291 134.5 L 298 153.5 L 319 192.5 Q 351.1 243.4 391.5 286 Q 395.5 289 403.5 288 Q 412.8 285.3 417 277.5 Q 452 238 481 192.5 Q 494 172 504 148.5 L 509 134.5 L 511.5 120 L 512 234.5 L 511 234.5 Q 509.6 228.4 504.5 226 Q 500.5 222.5 491.5 224 L 482 231.5 L 480 235.5 L 480 420.5 L 478.5 422 L 352 472 L 352 299.5 L 344.5 290 Q 340.5 286.5 331.5 288 L 322 295.5 L 320 299.5 L 319.5 472 L 192 421 L 192 168.5 L 193.5 168 L 266.5 198 L 273.5 199 Q 281.3 197.8 285 192.5 Q 289.3 188.3 288 178.5 Q 286.5 172 281.5 169 L 180.5 128 L 171.5 128 L 11.5 192 L 2 199.5 L 0.5 203 L 0 0 Z " /><path fill="rgb(0,0,0)" stroke="rgb(0,0,0)" stroke-width="1" opacity="0" d="M 412.5 0 L 512 0 L 512 99.5 L 511 99.5 L 511 93.5 L 508 80.5 L 499 58.5 Q 488.8 40.2 473.5 27 Q 462 17 447.5 10 Q 433 2.5 412.5 1 L 412.5 0 Z " /><path fill="rgb(0,0,0)" stroke="rgb(0,0,0)" stroke-width="1" opacity="0" d="M 395.5 32 L 413.5 33 L 430.5 38 Q 449.6 46.4 462 61.5 Q 478.9 80.1 480 114.5 L 478 125.5 L 472 141.5 L 454 174.5 Q 429.1 212.9 401 247 Q 398.3 248.1 399 245.5 Q 363.6 205.4 336 157.5 L 322 125.5 L 320 107.5 L 324 86.5 L 331 71.5 Q 338.5 59 349.5 50 Q 360.2 41.2 374.5 36 L 395.5 32 Z M 394 64 L 382 67 L 367 77 Q 356 88 352 106 L 353 124 Q 357 137 365 146 L 382 157 L 394 160 L 412 159 Q 425 155 434 147 Q 444 136 448 119 L 447 101 Q 443 87 435 79 Q 428 71 418 67 L 407 64 L 394 64 Z " /><path fill="rgb(0,0,0)" stroke="rgb(0,0,0)" stroke-width="1" opacity="0" d="M 397.5 96 Q 408.7 95.8 413 102.5 Q 416 106.5 416 113.5 Q 414.8 121.3 409.5 125 Q 405.5 128 398.5 128 Q 390.7 126.8 387 121.5 L 384 114.5 L 384 109.5 Q 385.6 102.6 390.5 99 L 397.5 96 Z " /><path fill="rgb(0,0,0)" stroke="rgb(0,0,0)" stroke-width="1" opacity="0" d="M 158.5 168 L 160 168.5 L 160 421 L 32.5 472 L 32 219.5 L 158.5 168 Z " /><path fill="rgb(0,0,0)" stroke="rgb(0,0,0)" stroke-width="1" opacity="0" d="M 511.5 437 L 512 512 L 341 511.5 L 500.5 448 L 510 440.5 L 511.5 437 Z " /><path fill="rgb(0,0,0)" stroke="rgb(0,0,0)" stroke-width="1" opacity="0" d="M 173.5 450 L 178.5 450 L 331 511.5 L 20.5 512 L 20.5 511 L 25.5 510 L 173.5 450 Z " /><path fill="rgb(0,0,0)" stroke="rgb(0,0,0)" stroke-width="1" opacity="0" d="M 0.5 500 Q 1.9 507.1 7.5 510 L 11 511.5 L 0 512 L 0.5 500 Z " /><path fill="rgb(0,0,0)" stroke="rgb(0,0,0)" stroke-width="1" opacity="0.5137254901960784" d="M 388.5 0 L 394 0.5 L 388.5 1 L 388.5 0 Z " /><path fill="rgb(0,0,0)" stroke="rgb(0,0,0)" stroke-width="1" opacity="0.5137254901960784" d="M 406.5 0 L 412 0.5 L 406.5 1 L 406.5 0 Z " /><path fill="rgb(0,0,0)" stroke="rgb(0,0,0)" stroke-width="1" opacity="0.5137254901960784" d="M 381.5 1 L 384 1.5 L 381.5 2 L 381.5 1 Z " /><path fill="rgb(0,0,0)" stroke="rgb(0,0,0)" stroke-width="1" opacity="0.5137254901960784" d="M 416.5 1 L 419 1.5 L 416.5 2 L 416.5 1 Z " /><path fill="rgb(0,0,0)" stroke="rgb(0,0,0)" stroke-width="1" opacity="0.5137254901960784" d="M 335.5 20 L 334.5 22 L 335.5 20 Z " /><path fill="rgb(0,0,0)" stroke="rgb(0,0,0)" stroke-width="1" opacity="0.5137254901960784" d="M 464.5 20 L 465.5 22 L 464.5 20 Z " /><path fill="rgb(0,0,0)" stroke="rgb(0,0,0)" stroke-width="1" opacity="0.5137254901960784" d="M 468.5 23 L 469.5 25 L 468.5 23 Z " /><path fill="rgb(0,0,0)" stroke="rgb(0,0,0)" stroke-width="1" opacity="0.5137254901960784" d="M 327.5 26 L 322.5 32 L 327.5 26 Z " /><path fill="rgb(0,0,0)" stroke="rgb(0,0,0)" stroke-width="1" opacity="0.5137254901960784" d="M 473.5 27 L 477.5 32 L 473.5 27 Z " /><path fill="rgb(0,0,0)" stroke="rgb(0,0,0)" stroke-width="1" opacity="0.5137254901960784" d="M 390.5 32 L 395 32.5 L 390.5 33 L 390.5 32 Z " /><path fill="rgb(0,0,0)" stroke="rgb(0,0,0)" stroke-width="1" opacity="0.5137254901960784" d="M 405.5 32 L 410 32.5 L 405.5 33 L 405.5 32 Z " /><path fill="rgb(0,0,0)" stroke="rgb(0,0,0)" stroke-width="1" opacity="0.5137254901960784" d="M 319.5 34 L 314.5 40 L 319.5 34 Z " /><path fill="rgb(0,0,0)" stroke="rgb(0,0,0)" stroke-width="1" opacity="0.5137254901960784" d="M 480.5 34 L 484.5 39 L 480.5 34 Z " /><path fill="rgb(0,0,0)" stroke="rgb(0,0,0)" stroke-width="1" opacity="0.5137254901960784" d="M 487.5 42 L 488.5 44 L 487.5 42 Z " /><path fill="rgb(0,0,0)" stroke="rgb(0,0,0)" stroke-width="1" opacity="0.5137254901960784" d="M 355.5 45 L 354.5 47 L 355.5 45 Z " /><path fill="rgb(0,0,0)" stroke="rgb(0,0,0)" stroke-width="1" opacity="0.5137254901960784" d="M 444.5 45 L 445.5 47 L 444.5 45 Z " /><path fill="rgb(0,0,0)" stroke="rgb(0,0,0)" stroke-width="1" opacity="0.5137254901960784" d="M 309.5 46 L 308.5 48 L 309.5 46 Z " /><path fill="rgb(0,0,0)" stroke="rgb(0,0,0)" stroke-width="1" opacity="0.5137254901960784" d="M 490.5 46 L 491.5 48 L 490.5 46 Z " /><path fill="rgb(0,0,0)" stroke="rgb(0,0,0)" stroke-width="1" opacity="0.5137254901960784" d="M 351.5 48 L 350.5 50 L 351.5 48 Z " /><path fill="rgb(0,0,0)" stroke="rgb(0,0,0)" stroke-width="1" opacity="0.5137254901960784" d="M 448.5 48 L 449.5 50 L 448.5 48 Z " /><path fill="rgb(0,0,0)" stroke="rgb(0,0,0)" stroke-width="1" opacity="0.5137254901960784" d="M 345.5 53 L 341.5 58 L 345.5 53 Z " /><path fill="rgb(0,0,0)" stroke="rgb(0,0,0)" stroke-width="1" opacity="0.5137254901960784" d="M 454.5 53 L 458.5 58 L 454.5 53 Z " /><path fill="rgb(0,0,0)" stroke="rgb(0,0,0)" stroke-width="1" opacity="0.5137254901960784" d="M 337.5 62 L 336.5 64 L 337.5 62 Z " /><path fill="rgb(0,0,0)" stroke="rgb(0,0,0)" stroke-width="1" opacity="0.5137254901960784" d="M 462.5 62 L 463.5 64 L 462.5 62 Z " /><path fill="rgb(0,0,0)" stroke="rgb(0,0,0)" stroke-width="1" opacity="0.5137254901960784" d="M 393.5 64 L 397 64.5 L 393.5 65 L 393.5 64 Z " /><path fill="rgb(0,0,0)" stroke="rgb(0,0,0)" stroke-width="1" opacity="0.5137254901960784" d="M 403.5 64 L 407 64.5 L 403.5 65 L 403.5 64 Z " /><path fill="rgb(0,0,0)" stroke="rgb(0,0,0)" stroke-width="1" opacity="0.5137254901960784" d="M 334.5 66 L 333.5 68 L 334.5 66 Z " /><path fill="rgb(0,0,0)" stroke="rgb(0,0,0)" stroke-width="1" opacity="0.5137254901960784" d="M 465.5 66 L 466.5 68 L 465.5 66 Z " /><path fill="rgb(0,0,0)" stroke="rgb(0,0,0)" stroke-width="1" opacity="0.5137254901960784" d="M 371.5 73 L 370.5 75 L 371.5 73 Z " /><path fill="rgb(0,0,0)" stroke="rgb(0,0,0)" stroke-width="1" opacity="0.5137254901960784" d="M 428.5 73 L 429.5 75 L 428.5 73 Z " /><path fill="rgb(0,0,0)" stroke="rgb(0,0,0)" stroke-width="1" opacity="0.5137254901960784" d="M 366.5 77 L 365.5 79 L 366.5 77 Z " /><path fill="rgb(0,0,0)" stroke="rgb(0,0,0)" stroke-width="1" opacity="0.5137254901960784" d="M 433.5 77 L 434.5 79 L 433.5 77 Z " /><path fill="rgb(0,0,0)" stroke="rgb(0,0,0)" stroke-width="1" opacity="0.5137254901960784" d="M 362.5 82 L 361.5 84 L 362.5 82 Z " /><path fill="rgb(0,0,0)" stroke="rgb(0,0,0)" stroke-width="1" opacity="0.5137254901960784" d="M 437.5 82 L 438.5 84 L 437.5 82 Z " /><path fill="rgb(0,0,0)" stroke="rgb(0,0,0)" stroke-width="1" opacity="0.5137254901960784" d="M 289.5 93 L 290 95.5 L 289 95.5 L 289.5 93 Z " /><path fill="rgb(0,0,0)" stroke="rgb(0,0,0)" stroke-width="1" opacity="0.5137254901960784" d="M 510.5 93 L 511 95.5 L 510 95.5 L 510.5 93 Z " /><path fill="rgb(0,0,0)" stroke="rgb(0,0,0)" stroke-width="1" opacity="0.5137254901960784" d="M 478.5 96 L 479 98.5 L 478 98.5 L 478.5 96 Z " /><path fill="rgb(0,0,0)" stroke="rgb(0,0,0)" stroke-width="1" opacity="0.5137254901960784" d="M 288.5 99 L 289 104.5 L 288 104.5 L 288.5 99 Z " /><path fill="rgb(0,0,0)" stroke="rgb(0,0,0)" stroke-width="1" opacity="0.5137254901960784" d="M 511.5 100 L 512 105.5 L 511 105.5 L 511.5 100 Z " /><path fill="rgb(0,0,0)" stroke="rgb(0,0,0)" stroke-width="1" opacity="0.5137254901960784" d="M 320.5 102 L 321 106.5 L 320 106.5 L 320.5 102 Z " /><path fill="rgb(0,0,0)" stroke="rgb(0,0,0)" stroke-width="1" opacity="0.5137254901960784" d="M 479.5 102 L 480 106.5 L 479 106.5 L 479.5 102 Z " /><path fill="rgb(0,0,0)" stroke="rgb(0,0,0)" stroke-width="1" opacity="0.5137254901960784" d="M 352.5 105 L 353 108.5 L 352 108.5 L 352.5 105 Z " /><path fill="rgb(0,0,0)" stroke="rgb(0,0,0)" stroke-width="1" opacity="0.5137254901960784" d="M 447.5 105 L 448 108.5 L 447 108.5 L 447.5 105 Z " /><path fill="rgb(0,0,0)" stroke="rgb(0,0,0)" stroke-width="1" opacity="0.5137254901960784" d="M 320.5 115 L 321 118.5 L 320 118.5 L 320.5 115 Z " /><path fill="rgb(0,0,0)" stroke="rgb(0,0,0)" stroke-width="1" opacity="0.5137254901960784" d="M 352.5 115 L 353 118.5 L 352 118.5 L 352.5 115 Z " /><path fill="rgb(0,0,0)" stroke="rgb(0,0,0)" stroke-width="1" opacity="0.5137254901960784" d="M 447.5 115 L 448 118.5 L 447 118.5 L 447.5 115 Z " /><path fill="rgb(0,0,0)" stroke="rgb(0,0,0)" stroke-width="1" opacity="0.5137254901960784" d="M 479.5 115 L 480 118.5 L 479 118.5 L 479.5 115 Z " /><path fill="rgb(0,0,0)" stroke="rgb(0,0,0)" stroke-width="1" opacity="0.5137254901960784" d="M 511.5 115 L 512 119.5 L 511 119.5 L 511.5 115 Z " /><path fill="rgb(0,0,0)" stroke="rgb(0,0,0)" stroke-width="1" opacity="0.5137254901960784" d="M 288.5 116 L 289 119.5 L 288 119.5 L 288.5 116 Z " /><path fill="rgb(0,0,0)" stroke="rgb(0,0,0)" stroke-width="1" opacity="0.5137254901960784" d="M 361.5 140 L 362.5 142 L 361.5 140 Z " /><path fill="rgb(0,0,0)" stroke="rgb(0,0,0)" stroke-width="1" opacity="0.5137254901960784" d="M 438.5 140 L 437.5 142 L 438.5 140 Z " /><path fill="rgb(0,0,0)" stroke="rgb(0,0,0)" stroke-width="1" opacity="0.5137254901960784" d="M 365.5 145 L 366.5 147 L 365.5 145 Z " /><path fill="rgb(0,0,0)" stroke="rgb(0,0,0)" stroke-width="1" opacity="0.5137254901960784" d="M 434.5 145 L 433.5 147 L 434.5 145 Z " /><path fill="rgb(0,0,0)" stroke="rgb(0,0,0)" stroke-width="1" opacity="0.5137254901960784" d="M 370.5 149 L 371.5 151 L 370.5 149 Z " /><path fill="rgb(0,0,0)" stroke="rgb(0,0,0)" stroke-width="1" opacity="0.5137254901960784" d="M 429.5 149 L 428.5 151 L 429.5 149 Z " /><path fill="rgb(0,0,0)" stroke="rgb(0,0,0)" stroke-width="1" opacity="0.5137254901960784" d="M 393.5 159 L 397 159.5 L 393.5 160 L 393.5 159 Z " /><path fill="rgb(0,0,0)" stroke="rgb(0,0,0)" stroke-width="1" opacity="0.5137254901960784" d="M 403.5 159 L 407 159.5 L 403.5 160 L 403.5 159 Z " /><path fill="rgb(0,0,0)" stroke="rgb(0,0,0)" stroke-width="1" opacity="0.5137254901960784" d="M 457.5 168 L 456.5 170 L 457.5 168 Z " /><path fill="rgb(0,0,0)" stroke="rgb(0,0,0)" stroke-width="1" opacity="0.5137254901960784" d="M 281.5 169 L 282.5 171 L 281.5 169 Z " /><path fill="rgb(0,0,0)" stroke="rgb(0,0,0)" stroke-width="1" opacity="0.5137254901960784" d="M 284.5 172 L 285.5 174 L 284.5 172 Z " /><path fill="rgb(0,0,0)" stroke="rgb(0,0,0)" stroke-width="1" opacity="0.5137254901960784" d="M 356.5 190 L 357.5 192 L 356.5 190 Z " /><path fill="rgb(0,0,0)" stroke="rgb(0,0,0)" stroke-width="1" opacity="0.5137254901960784" d="M 284.5 192 L 281.5 196 L 284.5 192 Z " /><path fill="rgb(0,0,0)" stroke="rgb(0,0,0)" stroke-width="1" opacity="0.5137254901960784" d="M 358.5 193 L 359.5 195 L 358.5 193 Z " /><path fill="rgb(0,0,0)" stroke="rgb(0,0,0)" stroke-width="1" opacity="0.5137254901960784" d="M 270.5 198 L 274 198.5 L 270.5 199 L 270.5 198 Z " /><path fill="rgb(0,0,0)" stroke="rgb(0,0,0)" stroke-width="1" opacity="0.5137254901960784" d="M 324.5 200 L 325.5 202 L 324.5 200 Z " /><path fill="rgb(0,0,0)" stroke="rgb(0,0,0)" stroke-width="1" opacity="0.5137254901960784" d="M 363.5 200 L 364.5 202 L 363.5 200 Z " /><path fill="rgb(0,0,0)" stroke="rgb(0,0,0)" stroke-width="1" opacity="0.5137254901960784" d="M 436.5 200 L 435.5 202 L 436.5 200 Z " /><path fill="rgb(0,0,0)" stroke="rgb(0,0,0)" stroke-width="1" opacity="0.5137254901960784" d="M 475.5 200 L 474.5 202 L 475.5 200 Z " /><path fill="rgb(0,0,0)" stroke="rgb(0,0,0)" stroke-width="1" opacity="0.5137254901960784" d="M 0.5 203 L 1 205.5 L 0 205.5 L 0.5 203 Z " /><path fill="rgb(0,0,0)" stroke="rgb(0,0,0)" stroke-width="1" opacity="0.5137254901960784" d="M 326.5 203 L 327.5 205 L 326.5 203 Z " /><path fill="rgb(0,0,0)" stroke="rgb(0,0,0)" stroke-width="1" opacity="0.5137254901960784" d="M 473.5 203 L 472.5 205 L 473.5 203 Z " /><path fill="rgb(0,0,0)" stroke="rgb(0,0,0)" stroke-width="1" opacity="0.5137254901960784" d="M 433.5 204 L 432.5 206 L 433.5 204 Z " /><path fill="rgb(0,0,0)" stroke="rgb(0,0,0)" stroke-width="1" opacity="0.5137254901960784" d="M 328.5 206 L 329.5 208 L 328.5 206 Z " /><path fill="rgb(0,0,0)" stroke="rgb(0,0,0)" stroke-width="1" opacity="0.5137254901960784" d="M 471.5 206 L 470.5 208 L 471.5 206 Z " /><path fill="rgb(0,0,0)" stroke="rgb(0,0,0)" stroke-width="1" opacity="0.5137254901960784" d="M 368.5 207 L 369.5 209 L 368.5 207 Z " /><path fill="rgb(0,0,0)" stroke="rgb(0,0,0)" stroke-width="1" opacity="0.5137254901960784" d="M 330.5 209 L 331.5 211 L 330.5 209 Z " /><path fill="rgb(0,0,0)" stroke="rgb(0,0,0)" stroke-width="1" opacity="0.5137254901960784" d="M 371.5 211 L 372.5 213 L 371.5 211 Z " /><path fill="rgb(0,0,0)" stroke="rgb(0,0,0)" stroke-width="1" opacity="0.5137254901960784" d="M 428.5 211 L 427.5 213 L 428.5 211 Z " /><path fill="rgb(0,0,0)" stroke="rgb(0,0,0)" stroke-width="1" opacity="0.5137254901960784" d="M 374.5 215 L 375.5 217 L 374.5 215 Z " /><path fill="rgb(0,0,0)" stroke="rgb(0,0,0)" stroke-width="1" opacity="0.5137254901960784" d="M 425.5 215 L 424.5 217 L 425.5 215 Z " /><path fill="rgb(0,0,0)" stroke="rgb(0,0,0)" stroke-width="1" opacity="0.5137254901960784" d="M 464.5 216 L 463.5 218 L 464.5 216 Z " /><path fill="rgb(0,0,0)" stroke="rgb(0,0,0)" stroke-width="1" opacity="0.5137254901960784" d="M 377.5 219 L 378.5 221 L 377.5 219 Z " /><path fill="rgb(0,0,0)" stroke="rgb(0,0,0)" stroke-width="1" opacity="0.5137254901960784" d="M 422.5 219 L 421.5 221 L 422.5 219 Z " /><path fill="rgb(0,0,0)" stroke="rgb(0,0,0)" stroke-width="1" opacity="0.5137254901960784" d="M 340.5 223 L 341.5 225 L 340.5 223 Z " /><path fill="rgb(0,0,0)" stroke="rgb(0,0,0)" stroke-width="1" opacity="0.5137254901960784" d="M 459.5 223 L 458.5 225 L 459.5 223 Z " /><path fill="rgb(0,0,0)" stroke="rgb(0,0,0)" stroke-width="1" opacity="0.5137254901960784" d="M 343.5 227 L 344.5 229 L 343.5 227 Z " /><path fill="rgb(0,0,0)" stroke="rgb(0,0,0)" stroke-width="1" opacity="0.5137254901960784" d="M 456.5 227 L 455.5 229 L 456.5 227 Z " /><path fill="rgb(0,0,0)" stroke="rgb(0,0,0)" stroke-width="1" opacity="0.5137254901960784" d="M 384.5 228 L 385.5 230 L 384.5 228 Z " /><path fill="rgb(0,0,0)" stroke="rgb(0,0,0)" stroke-width="1" opacity="0.5137254901960784" d="M 415.5 228 L 414.5 230 L 415.5 228 Z " /><path fill="rgb(0,0,0)" stroke="rgb(0,0,0)" stroke-width="1" opacity="0.5137254901960784" d="M 453.5 231 L 452.5 233 L 453.5 231 Z " /><path fill="rgb(0,0,0)" stroke="rgb(0,0,0)" stroke-width="1" opacity="0.5137254901960784" d="M 387.5 232 L 389.5 235 L 387.5 232 Z " /><path fill="rgb(0,0,0)" stroke="rgb(0,0,0)" stroke-width="1" opacity="0.5137254901960784" d="M 412.5 232 L 410.5 235 L 412.5 232 Z " /><path fill="rgb(0,0,0)" stroke="rgb(0,0,0)" stroke-width="1" opacity="0.5137254901960784" d="M 348.5 234 L 349.5 236 L 348.5 234 Z " /><path fill="rgb(0,0,0)" stroke="rgb(0,0,0)" stroke-width="1" opacity="0.5137254901960784" d="M 351.5 238 L 352.5 240 L 351.5 238 Z " /><path fill="rgb(0,0,0)" stroke="rgb(0,0,0)" stroke-width="1" opacity="0.5137254901960784" d="M 392.5 238 L 393.5 240 L 392.5 238 Z " /><path fill="rgb(0,0,0)" stroke="rgb(0,0,0)" stroke-width="1" opacity="0.5137254901960784" d="M 407.5 238 L 406.5 240 L 407.5 238 Z " /><path fill="rgb(0,0,0)" stroke="rgb(0,0,0)" stroke-width="1" opacity="0.5137254901960784" d="M 448.5 238 L 447.5 240 L 448.5 238 Z " /><path fill="rgb(0,0,0)" stroke="rgb(0,0,0)" stroke-width="1" opacity="0.5137254901960784" d="M 355.5 243 L 356.5 245 L 355.5 243 Z " /><path fill="rgb(0,0,0)" stroke="rgb(0,0,0)" stroke-width="1" opacity="0.5137254901960784" d="M 396.5 243 L 398.5 246 L 396.5 243 Z " /><path fill="rgb(0,0,0)" stroke="rgb(0,0,0)" stroke-width="1" opacity="0.5137254901960784" d="M 403.5 243 L 401.5 246 L 403.5 243 Z " /><path fill="rgb(0,0,0)" stroke="rgb(0,0,0)" stroke-width="1" opacity="0.5137254901960784" d="M 444.5 243 L 443.5 245 L 444.5 243 Z " /><path fill="rgb(0,0,0)" stroke="rgb(0,0,0)" stroke-width="1" opacity="0.5137254901960784" d="M 359.5 248 L 360.5 250 L 359.5 248 Z " /><path fill="rgb(0,0,0)" stroke="rgb(0,0,0)" stroke-width="1" opacity="0.5137254901960784" d="M 440.5 248 L 439.5 250 L 440.5 248 Z " /><path fill="rgb(0,0,0)" stroke="rgb(0,0,0)" stroke-width="1" opacity="0.5137254901960784" d="M 363.5 253 L 364.5 255 L 363.5 253 Z " /><path fill="rgb(0,0,0)" stroke="rgb(0,0,0)" stroke-width="1" opacity="0.5137254901960784" d="M 436.5 253 L 435.5 255 L 436.5 253 Z " /><path fill="rgb(0,0,0)" stroke="rgb(0,0,0)" stroke-width="1" opacity="0.5137254901960784" d="M 366.5 257 L 368.5 260 L 366.5 257 Z " /><path fill="rgb(0,0,0)" stroke="rgb(0,0,0)" stroke-width="1" opacity="0.5137254901960784" d="M 432.5 258 L 431.5 260 L 432.5 258 Z " /><path fill="rgb(0,0,0)" stroke="rgb(0,0,0)" stroke-width="1" opacity="0.5137254901960784" d="M 371.5 263 L 373.5 266 L 371.5 263 Z " /><path fill="rgb(0,0,0)" stroke="rgb(0,0,0)" stroke-width="1" opacity="0.5137254901960784" d="M 427.5 264 L 425.5 267 L 427.5 264 Z " /><path fill="rgb(0,0,0)" stroke="rgb(0,0,0)" stroke-width="1" opacity="0.5137254901960784" d="M 377.5 270 L 379.5 273 L 377.5 270 Z " /><path fill="rgb(0,0,0)" stroke="rgb(0,0,0)" stroke-width="1" opacity="0.5137254901960784" d="M 422.5 270 L 420.5 273 L 422.5 270 Z " /><path fill="rgb(0,0,0)" stroke="rgb(0,0,0)" stroke-width="1" opacity="0.5137254901960784" d="M 383.5 277 L 385.5 280 L 383.5 277 Z " /><path fill="rgb(0,0,0)" stroke="rgb(0,0,0)" stroke-width="1" opacity="0.5137254901960784" d="M 416.5 277 L 414.5 280 L 416.5 277 Z " /><path fill="rgb(0,0,0)" stroke="rgb(0,0,0)" stroke-width="1" opacity="0.5137254901960784" d="M 511.5 434 L 512 436.5 L 511 436.5 L 511.5 434 Z " /><path fill="rgb(0,0,0)" stroke="rgb(0,0,0)" stroke-width="1" opacity="0.5137254901960784" d="M 11.5 511 L 14 511.5 L 11.5 512 L 11.5 511 Z " /><path fill="rgb(0,0,0)" stroke="rgb(0,0,0)" stroke-width="1" opacity="0.8431372549019608" d="M 394.5 0 L 398 0.5 L 394.5 1 L 394.5 0 Z " /><path fill="rgb(0,0,0)" stroke="rgb(0,0,0)" stroke-width="1" opacity="0.8431372549019608" d="M 402.5 0 L 406 0.5 L 402.5 1 L 402.5 0 Z " /><path fill="rgb(0,0,0)" stroke="rgb(0,0,0)" stroke-width="1" opacity="0.8431372549019608" d="M 330.5 24 L 329.5 26 L 330.5 24 Z " /><path fill="rgb(0,0,0)" stroke="rgb(0,0,0)" stroke-width="1" opacity="0.8431372549019608" d="M 321.5 32 L 320.5 34 L 321.5 32 Z " /><path fill="rgb(0,0,0)" stroke="rgb(0,0,0)" stroke-width="1" opacity="0.8431372549019608" d="M 478.5 32 L 479.5 34 L 478.5 32 Z " /><path fill="rgb(0,0,0)" stroke="rgb(0,0,0)" stroke-width="1" opacity="0.8431372549019608" d="M 313.5 41 L 312.5 43 L 313.5 41 Z " /><path fill="rgb(0,0,0)" stroke="rgb(0,0,0)" stroke-width="1" opacity="0.8431372549019608" d="M 348.5 50 L 346.5 53 L 348.5 50 Z " /><path fill="rgb(0,0,0)" stroke="rgb(0,0,0)" stroke-width="1" opacity="0.8431372549019608" d="M 451.5 50 L 453.5 53 L 451.5 50 Z " /><path fill="rgb(0,0,0)" stroke="rgb(0,0,0)" stroke-width="1" opacity="0.8431372549019608" d="M 340.5 58 L 338.5 61 L 340.5 58 Z " /><path fill="rgb(0,0,0)" stroke="rgb(0,0,0)" stroke-width="1" opacity="0.8431372549019608" d="M 459.5 58 L 461.5 61 L 459.5 58 Z " /><path fill="rgb(0,0,0)" stroke="rgb(0,0,0)" stroke-width="1" opacity="0.8431372549019608" d="M 369.5 75 L 368.5 77 L 369.5 75 Z " /><path fill="rgb(0,0,0)" stroke="rgb(0,0,0)" stroke-width="1" opacity="0.8431372549019608" d="M 430.5 75 L 431.5 77 L 430.5 75 Z " /><path fill="rgb(0,0,0)" stroke="rgb(0,0,0)" stroke-width="1" opacity="0.8431372549019608" d="M 364.5 80 L 363.5 82 L 364.5 80 Z " /><path fill="rgb(0,0,0)" stroke="rgb(0,0,0)" stroke-width="1" opacity="0.8431372549019608" d="M 435.5 80 L 436.5 82 L 435.5 80 Z " /><path fill="rgb(0,0,0)" stroke="rgb(0,0,0)" stroke-width="1" opacity="0.8431372549019608" d="M 389.5 99 L 387.5 102 L 389.5 99 Z " /><path fill="rgb(0,0,0)" stroke="rgb(0,0,0)" stroke-width="1" opacity="0.8431372549019608" d="M 410.5 99 L 411.5 101 L 410.5 99 Z " /><path fill="rgb(0,0,0)" stroke="rgb(0,0,0)" stroke-width="1" opacity="0.8431372549019608" d="M 288.5 105 L 289 109.5 L 288 109.5 L 288.5 105 Z " /><path fill="rgb(0,0,0)" stroke="rgb(0,0,0)" stroke-width="1" opacity="0.8431372549019608" d="M 511.5 106 L 512 110.5 L 511 110.5 L 511.5 106 Z " /><path fill="rgb(0,0,0)" stroke="rgb(0,0,0)" stroke-width="1" opacity="0.8431372549019608" d="M 288.5 113 L 289 115.5 L 288 115.5 L 288.5 113 Z " /><path fill="rgb(0,0,0)" stroke="rgb(0,0,0)" stroke-width="1" opacity="0.8431372549019608" d="M 387.5 122 L 388.5 124 L 387.5 122 Z " /><path fill="rgb(0,0,0)" stroke="rgb(0,0,0)" stroke-width="1" opacity="0.8431372549019608" d="M 363.5 142 L 364.5 144 L 363.5 142 Z " /><path fill="rgb(0,0,0)" stroke="rgb(0,0,0)" stroke-width="1" opacity="0.8431372549019608" d="M 436.5 142 L 435.5 144 L 436.5 142 Z " /><path fill="rgb(0,0,0)" stroke="rgb(0,0,0)" stroke-width="1" opacity="0.8431372549019608" d="M 368.5 147 L 369.5 149 L 368.5 147 Z " /><path fill="rgb(0,0,0)" stroke="rgb(0,0,0)" stroke-width="1" opacity="0.8431372549019608" d="M 431.5 147 L 430.5 149 L 431.5 147 Z " /><path fill="rgb(0,0,0)" stroke="rgb(0,0,0)" stroke-width="1" opacity="0.8431372549019608" d="M 6.5 195 L 3.5 199 L 6.5 195 Z " /><path fill="rgb(0,0,0)" stroke="rgb(0,0,0)" stroke-width="1" opacity="0.8431372549019608" d="M 432.5 206 L 431.5 208 L 432.5 206 Z " /><path fill="rgb(0,0,0)" stroke="rgb(0,0,0)" stroke-width="1" opacity="0.8431372549019608" d="M 372.5 213 L 373.5 215 L 372.5 213 Z " /><path fill="rgb(0,0,0)" stroke="rgb(0,0,0)" stroke-width="1" opacity="0.8431372549019608" d="M 336.5 217 L 337.5 219 L 336.5 217 Z " /><path fill="rgb(0,0,0)" stroke="rgb(0,0,0)" stroke-width="1" opacity="0.8431372549019608" d="M 379.5 222 L 380.5 224 L 379.5 222 Z " /><path fill="rgb(0,0,0)" stroke="rgb(0,0,0)" stroke-width="1" opacity="0.8431372549019608" d="M 420.5 222 L 419.5 224 L 420.5 222 Z " /><path fill="rgb(0,0,0)" stroke="rgb(0,0,0)" stroke-width="1" opacity="0.8431372549019608" d="M 382.5 226 L 383.5 228 L 382.5 226 Z " /><path fill="rgb(0,0,0)" stroke="rgb(0,0,0)" stroke-width="1" opacity="0.8431372549019608" d="M 417.5 226 L 416.5 228 L 417.5 226 Z " /><path fill="rgb(0,0,0)" stroke="rgb(0,0,0)" stroke-width="1" opacity="0.8431372549019608" d="M 486.5 227 L 483.5 231 L 486.5 227 Z " /><path fill="rgb(0,0,0)" stroke="rgb(0,0,0)" stroke-width="1" opacity="0.8431372549019608" d="M 505.5 227 L 508.5 231 L 505.5 227 Z " /><path fill="rgb(0,0,0)" stroke="rgb(0,0,0)" stroke-width="1" opacity="0.8431372549019608" d="M 347.5 232 L 348.5 234 L 347.5 232 Z " /><path fill="rgb(0,0,0)" stroke="rgb(0,0,0)" stroke-width="1" opacity="0.8431372549019608" d="M 390.5 236 L 391.5 238 L 390.5 236 Z " /><path fill="rgb(0,0,0)" stroke="rgb(0,0,0)" stroke-width="1" opacity="0.8431372549019608" d="M 409.5 236 L 408.5 238 L 409.5 236 Z " /><path fill="rgb(0,0,0)" stroke="rgb(0,0,0)" stroke-width="1" opacity="0.8431372549019608" d="M 353.5 240 L 354.5 242 L 353.5 240 Z " /><path fill="rgb(0,0,0)" stroke="rgb(0,0,0)" stroke-width="1" opacity="0.8431372549019608" d="M 446.5 240 L 445.5 242 L 446.5 240 Z " /><path fill="rgb(0,0,0)" stroke="rgb(0,0,0)" stroke-width="1" opacity="0.8431372549019608" d="M 357.5 245 L 358.5 247 L 357.5 245 Z " /><path fill="rgb(0,0,0)" stroke="rgb(0,0,0)" stroke-width="1" opacity="0.8431372549019608" d="M 442.5 245 L 441.5 247 L 442.5 245 Z " /><path fill="rgb(0,0,0)" stroke="rgb(0,0,0)" stroke-width="1" opacity="0.8431372549019608" d="M 438.5 250 L 437.5 252 L 438.5 250 Z " /><path fill="rgb(0,0,0)" stroke="rgb(0,0,0)" stroke-width="1" opacity="0.8431372549019608" d="M 369.5 260 L 370.5 262 L 369.5 260 Z " /><path fill="rgb(0,0,0)" stroke="rgb(0,0,0)" stroke-width="1" opacity="0.8431372549019608" d="M 430.5 260 L 429.5 262 L 430.5 260 Z " /><path fill="rgb(0,0,0)" stroke="rgb(0,0,0)" stroke-width="1" opacity="0.8431372549019608" d="M 374.5 266 L 376.5 269 L 374.5 266 Z " /><path fill="rgb(0,0,0)" stroke="rgb(0,0,0)" stroke-width="1" opacity="0.8431372549019608" d="M 424.5 267 L 423.5 269 L 424.5 267 Z " /><path fill="rgb(0,0,0)" stroke="rgb(0,0,0)" stroke-width="1" opacity="0.8431372549019608" d="M 380.5 273 L 382.5 276 L 380.5 273 Z " /><path fill="rgb(0,0,0)" stroke="rgb(0,0,0)" stroke-width="1" opacity="0.8431372549019608" d="M 419.5 273 L 417.5 276 L 419.5 273 Z " /><path fill="rgb(0,0,0)" stroke="rgb(0,0,0)" stroke-width="1" opacity="0.8431372549019608" d="M 386.5 280 L 390.5 285 L 386.5 280 Z " /><path fill="rgb(0,0,0)" stroke="rgb(0,0,0)" stroke-width="1" opacity="0.8431372549019608" d="M 413.5 280 L 409.5 285 L 413.5 280 Z " /><path fill="rgb(0,0,0)" stroke="rgb(0,0,0)" stroke-width="1" opacity="0.8431372549019608" d="M 326.5 291 L 323.5 295 L 326.5 291 Z " /><path fill="rgb(0,0,0)" stroke="rgb(0,0,0)" stroke-width="1" opacity="0.8431372549019608" d="M 345.5 291 L 348.5 295 L 345.5 291 Z " /><path fill="rgb(0,0,0)" stroke="rgb(0,0,0)" stroke-width="1" opacity="0.8431372549019608" d="M 508.5 441 L 505.5 445 L 508.5 441 Z " /><path fill="rgb(0,0,0)" stroke="rgb(0,0,0)" stroke-width="1" opacity="0.8431372549019608" d="M 3.5 505 L 6.5 509 L 3.5 505 Z " /><path fill="rgb(0,0,0)" stroke="rgb(0,0,0)" stroke-width="1" opacity="0.9686274509803922" d="M 398.5 0 L 402 0.5 L 398.5 1 L 398.5 0 Z " /><path fill="rgb(0,0,0)" stroke="rgb(0,0,0)" stroke-width="1" opacity="0.9686274509803922" d="M 328.5 26 L 327.5 28 L 328.5 26 Z " /><path fill="rgb(0,0,0)" stroke="rgb(0,0,0)" stroke-width="1" opacity="0.9686274509803922" d="M 471.5 26 L 472.5 28 L 471.5 26 Z " /><path fill="rgb(0,0,0)" stroke="rgb(0,0,0)" stroke-width="1" opacity="0.9686274509803922" d="M 315.5 39 L 314.5 41 L 315.5 39 Z " /><path fill="rgb(0,0,0)" stroke="rgb(0,0,0)" stroke-width="1" opacity="0.9686274509803922" d="M 484.5 39 L 485.5 41 L 484.5 39 Z " /><path fill="rgb(0,0,0)" stroke="rgb(0,0,0)" stroke-width="1" opacity="0.9686274509803922" d="M 412.5 101 L 413.5 103 L 412.5 101 Z " /><path fill="rgb(0,0,0)" stroke="rgb(0,0,0)" stroke-width="1" opacity="0.9686274509803922" d="M 288.5 110 L 289 112.5 L 288 112.5 L 288.5 110 Z " /><path fill="rgb(0,0,0)" stroke="rgb(0,0,0)" stroke-width="1" opacity="0.9686274509803922" d="M 413.5 121 L 412.5 123 L 413.5 121 Z " /><path fill="rgb(0,0,0)" stroke="rgb(0,0,0)" stroke-width="1" opacity="0.9686274509803922" d="M 389.5 124 L 390.5 126 L 389.5 124 Z " /><path fill="rgb(0,0,0)" stroke="rgb(0,0,0)" stroke-width="1" opacity="0.9686274509803922" d="M 410.5 124 L 409.5 126 L 410.5 124 Z " /><path fill="rgb(0,0,0)" stroke="rgb(0,0,0)" stroke-width="1" opacity="0.9686274509803922" d="M 0.5 208 L 1 495.5 L 0 495.5 L 0.5 208 Z " /><path fill="rgb(0,0,0)" stroke="rgb(0,0,0)" stroke-width="1" opacity="0.9686274509803922" d="M 511.5 239 L 512 431.5 L 511 431.5 L 511.5 239 Z " /><path fill="rgb(0,0,0)" stroke="rgb(0,0,0)" stroke-width="1" opacity="0.9686274509803922" d="M 393.5 240 L 394.5 242 L 393.5 240 Z " /><path fill="rgb(0,0,0)" stroke="rgb(0,0,0)" stroke-width="1" opacity="0.9686274509803922" d="M 406.5 240 L 405.5 242 L 406.5 240 Z " /><path fill="rgb(0,0,0)" stroke="rgb(0,0,0)" stroke-width="1" opacity="0.9686274509803922" d="M 428.5 262 L 427.5 264 L 428.5 262 Z " /></svg>