<svg width="512" height="512" version="1.1" xmlns="http://www.w3.org/2000/svg" desc="Created with imagetracer.js version 1.2.6" ><path fill="rgb(0,0,0)" stroke="rgb(0,0,0)" stroke-width="1" opacity="0.803921568627451" d="M 243.5 0 L 252 0.5 L 243.5 1 L 243.5 0 Z " /><path fill="rgb(0,0,0)" stroke="rgb(0,0,0)" stroke-width="1" opacity="0.803921568627451" d="M 260.5 0 L 269 0.5 L 260.5 1 L 260.5 0 Z " /><path fill="rgb(0,0,0)" stroke="rgb(0,0,0)" stroke-width="1" opacity="0.803921568627451" d="M 235.5 1 L 239 1.5 L 235.5 2 L 235.5 1 Z " /><path fill="rgb(0,0,0)" stroke="rgb(0,0,0)" stroke-width="1" opacity="0.803921568627451" d="M 273.5 1 L 277 1.5 L 273.5 2 L 273.5 1 Z " /><path fill="rgb(0,0,0)" stroke="rgb(0,0,0)" stroke-width="1" opacity="0.803921568627451" d="M 322.5 17 L 323.5 19 L 322.5 17 Z " /><path fill="rgb(0,0,0)" stroke="rgb(0,0,0)" stroke-width="1" opacity="0.803921568627451" d="M 327.5 20 L 328.5 22 L 327.5 20 Z " /><path fill="rgb(0,0,0)" stroke="rgb(0,0,0)" stroke-width="1" opacity="0.803921568627451" d="M 181.5 22 L 180.5 24 L 181.5 22 Z " /><path fill="rgb(0,0,0)" stroke="rgb(0,0,0)" stroke-width="1" opacity="0.803921568627451" d="M 330.5 22 L 331.5 24 L 330.5 22 Z " /><path fill="rgb(0,0,0)" stroke="rgb(0,0,0)" stroke-width="1" opacity="0.803921568627451" d="M 178.5 24 L 177.5 26 L 178.5 24 Z " /><path fill="rgb(0,0,0)" stroke="rgb(0,0,0)" stroke-width="1" opacity="0.803921568627451" d="M 333.5 24 L 334.5 26 L 333.5 24 Z " /><path fill="rgb(0,0,0)" stroke="rgb(0,0,0)" stroke-width="1" opacity="0.803921568627451" d="M 174.5 27 L 172.5 30 L 174.5 27 Z " /><path fill="rgb(0,0,0)" stroke="rgb(0,0,0)" stroke-width="1" opacity="0.803921568627451" d="M 337.5 27 L 339.5 30 L 337.5 27 Z " /><path fill="rgb(0,0,0)" stroke="rgb(0,0,0)" stroke-width="1" opacity="0.803921568627451" d="M 169.5 31 L 166.5 35 L 169.5 31 Z " /><path fill="rgb(0,0,0)" stroke="rgb(0,0,0)" stroke-width="1" opacity="0.803921568627451" d="M 342.5 31 L 345.5 35 L 342.5 31 Z " /><path fill="rgb(0,0,0)" stroke="rgb(0,0,0)" stroke-width="1" opacity="0.803921568627451" d="M 155.5 45 L 152.5 49 L 155.5 45 Z " /><path fill="rgb(0,0,0)" stroke="rgb(0,0,0)" stroke-width="1" opacity="0.803921568627451" d="M 356.5 45 L 359.5 49 L 356.5 45 Z " /><path fill="rgb(0,0,0)" stroke="rgb(0,0,0)" stroke-width="1" opacity="0.803921568627451" d="M 150.5 51 L 148.5 54 L 150.5 51 Z " /><path fill="rgb(0,0,0)" stroke="rgb(0,0,0)" stroke-width="1" opacity="0.803921568627451" d="M 361.5 51 L 363.5 54 L 361.5 51 Z " /><path fill="rgb(0,0,0)" stroke="rgb(0,0,0)" stroke-width="1" opacity="0.803921568627451" d="M 146.5 56 L 145.5 58 L 146.5 56 Z " /><path fill="rgb(0,0,0)" stroke="rgb(0,0,0)" stroke-width="1" opacity="0.803921568627451" d="M 365.5 56 L 366.5 58 L 365.5 56 Z " /><path fill="rgb(0,0,0)" stroke="rgb(0,0,0)" stroke-width="1" opacity="0.803921568627451" d="M 144.5 59 L 143.5 61 L 144.5 59 Z " /><path fill="rgb(0,0,0)" stroke="rgb(0,0,0)" stroke-width="1" opacity="0.803921568627451" d="M 367.5 59 L 368.5 61 L 367.5 59 Z " /><path fill="rgb(0,0,0)" stroke="rgb(0,0,0)" stroke-width="1" opacity="0.803921568627451" d="M 142.5 62 L 141.5 64 L 142.5 62 Z " /><path fill="rgb(0,0,0)" stroke="rgb(0,0,0)" stroke-width="1" opacity="0.803921568627451" d="M 369.5 62 L 370.5 64 L 369.5 62 Z " /><path fill="rgb(0,0,0)" stroke="rgb(0,0,0)" stroke-width="1" opacity="0.803921568627451" d="M 139.5 67 L 138.5 69 L 139.5 67 Z " /><path fill="rgb(0,0,0)" stroke="rgb(0,0,0)" stroke-width="1" opacity="0.803921568627451" d="M 372.5 67 L 373.5 69 L 372.5 67 Z " /><path fill="rgb(0,0,0)" stroke="rgb(0,0,0)" stroke-width="1" opacity="0.803921568627451" d="M 122.5 114 L 123 117.5 L 122 117.5 L 122.5 114 Z " /><path fill="rgb(0,0,0)" stroke="rgb(0,0,0)" stroke-width="1" opacity="0.803921568627451" d="M 389.5 114 L 390 117.5 L 389 117.5 L 389.5 114 Z " /><path fill="rgb(0,0,0)" stroke="rgb(0,0,0)" stroke-width="1" opacity="0.803921568627451" d="M 121.5 122 L 122 130.5 L 121 130.5 L 121.5 122 Z " /><path fill="rgb(0,0,0)" stroke="rgb(0,0,0)" stroke-width="1" opacity="0.803921568627451" d="M 390.5 123 L 391 130.5 L 390 130.5 L 390.5 123 Z " /><path fill="rgb(0,0,0)" stroke="rgb(0,0,0)" stroke-width="1" opacity="0.803921568627451" d="M 121.5 139 L 122 147.5 L 121 147.5 L 121.5 139 Z " /><path fill="rgb(0,0,0)" stroke="rgb(0,0,0)" stroke-width="1" opacity="0.803921568627451" d="M 390.5 139 L 391 146.5 L 390 146.5 L 390.5 139 Z " /><path fill="rgb(0,0,0)" stroke="rgb(0,0,0)" stroke-width="1" opacity="0.803921568627451" d="M 122.5 152 L 123 155.5 L 122 155.5 L 122.5 152 Z " /><path fill="rgb(0,0,0)" stroke="rgb(0,0,0)" stroke-width="1" opacity="0.803921568627451" d="M 389.5 152 L 390 155.5 L 389 155.5 L 389.5 152 Z " /><path fill="rgb(0,0,0)" stroke="rgb(0,0,0)" stroke-width="1" opacity="0.803921568627451" d="M 388.5 158 L 389 160.5 L 388 160.5 L 388.5 158 Z " /><path fill="rgb(0,0,0)" stroke="rgb(0,0,0)" stroke-width="1" opacity="0.803921568627451" d="M 138.5 201 L 139.5 203 L 138.5 201 Z " /><path fill="rgb(0,0,0)" stroke="rgb(0,0,0)" stroke-width="1" opacity="0.803921568627451" d="M 141.5 206 L 142.5 208 L 141.5 206 Z " /><path fill="rgb(0,0,0)" stroke="rgb(0,0,0)" stroke-width="1" opacity="0.803921568627451" d="M 370.5 206 L 369.5 208 L 370.5 206 Z " /><path fill="rgb(0,0,0)" stroke="rgb(0,0,0)" stroke-width="1" opacity="0.803921568627451" d="M 143.5 209 L 144.5 211 L 143.5 209 Z " /><path fill="rgb(0,0,0)" stroke="rgb(0,0,0)" stroke-width="1" opacity="0.803921568627451" d="M 368.5 209 L 367.5 211 L 368.5 209 Z " /><path fill="rgb(0,0,0)" stroke="rgb(0,0,0)" stroke-width="1" opacity="0.803921568627451" d="M 145.5 212 L 146.5 214 L 145.5 212 Z " /><path fill="rgb(0,0,0)" stroke="rgb(0,0,0)" stroke-width="1" opacity="0.803921568627451" d="M 366.5 212 L 365.5 214 L 366.5 212 Z " /><path fill="rgb(0,0,0)" stroke="rgb(0,0,0)" stroke-width="1" opacity="0.803921568627451" d="M 148.5 216 L 150.5 219 L 148.5 216 Z " /><path fill="rgb(0,0,0)" stroke="rgb(0,0,0)" stroke-width="1" opacity="0.803921568627451" d="M 363.5 216 L 361.5 219 L 363.5 216 Z " /><path fill="rgb(0,0,0)" stroke="rgb(0,0,0)" stroke-width="1" opacity="0.803921568627451" d="M 152.5 221 L 155.5 225 L 152.5 221 Z " /><path fill="rgb(0,0,0)" stroke="rgb(0,0,0)" stroke-width="1" opacity="0.803921568627451" d="M 359.5 221 L 356.5 225 L 359.5 221 Z " /><path fill="rgb(0,0,0)" stroke="rgb(0,0,0)" stroke-width="1" opacity="0.803921568627451" d="M 166.5 235 L 169.5 239 L 166.5 235 Z " /><path fill="rgb(0,0,0)" stroke="rgb(0,0,0)" stroke-width="1" opacity="0.803921568627451" d="M 345.5 235 L 342.5 239 L 345.5 235 Z " /><path fill="rgb(0,0,0)" stroke="rgb(0,0,0)" stroke-width="1" opacity="0.803921568627451" d="M 172.5 240 L 174.5 243 L 172.5 240 Z " /><path fill="rgb(0,0,0)" stroke="rgb(0,0,0)" stroke-width="1" opacity="0.803921568627451" d="M 339.5 240 L 337.5 243 L 339.5 240 Z " /><path fill="rgb(0,0,0)" stroke="rgb(0,0,0)" stroke-width="1" opacity="0.803921568627451" d="M 334.5 244 L 333.5 246 L 334.5 244 Z " /><path fill="rgb(0,0,0)" stroke="rgb(0,0,0)" stroke-width="1" opacity="0.803921568627451" d="M 180.5 246 L 181.5 248 L 180.5 246 Z " /><path fill="rgb(0,0,0)" stroke="rgb(0,0,0)" stroke-width="1" opacity="0.803921568627451" d="M 331.5 246 L 330.5 248 L 331.5 246 Z " /><path fill="rgb(0,0,0)" stroke="rgb(0,0,0)" stroke-width="1" opacity="0.803921568627451" d="M 328.5 248 L 327.5 250 L 328.5 248 Z " /><path fill="rgb(0,0,0)" stroke="rgb(0,0,0)" stroke-width="1" opacity="0.803921568627451" d="M 323.5 251 L 322.5 253 L 323.5 251 Z " /><path fill="rgb(0,0,0)" stroke="rgb(0,0,0)" stroke-width="1" opacity="0.803921568627451" d="M 279.5 267 L 282 267.5 L 279.5 268 L 279.5 267 Z " /><path fill="rgb(0,0,0)" stroke="rgb(0,0,0)" stroke-width="1" opacity="0.803921568627451" d="M 235.5 268 L 239 268.5 L 235.5 269 L 235.5 268 Z " /><path fill="rgb(0,0,0)" stroke="rgb(0,0,0)" stroke-width="1" opacity="0.803921568627451" d="M 273.5 268 L 277 268.5 L 273.5 269 L 273.5 268 Z " /><path fill="rgb(0,0,0)" stroke="rgb(0,0,0)" stroke-width="1" opacity="0.803921568627451" d="M 244.5 269 L 252 269.5 L 244.5 270 L 244.5 269 Z " /><path fill="rgb(0,0,0)" stroke="rgb(0,0,0)" stroke-width="1" opacity="0.803921568627451" d="M 260.5 269 L 268 269.5 L 260.5 270 L 260.5 269 Z " /><path fill="rgb(0,0,0)" stroke="rgb(0,0,0)" stroke-width="1" opacity="0.803921568627451" d="M 211.5 300 L 222 300.5 L 211.5 301 L 211.5 300 Z " /><path fill="rgb(0,0,0)" stroke="rgb(0,0,0)" stroke-width="1" opacity="0.803921568627451" d="M 290.5 300 L 301 300.5 L 290.5 301 L 290.5 300 Z " /><path fill="rgb(0,0,0)" stroke="rgb(0,0,0)" stroke-width="1" opacity="0.803921568627451" d="M 202.5 301 L 206 301.5 L 202.5 302 L 202.5 301 Z " /><path fill="rgb(0,0,0)" stroke="rgb(0,0,0)" stroke-width="1" opacity="0.803921568627451" d="M 307.5 301 L 311 301.5 L 307.5 302 L 307.5 301 Z " /><path fill="rgb(0,0,0)" stroke="rgb(0,0,0)" stroke-width="1" opacity="0.803921568627451" d="M 195.5 302 L 198 302.5 L 195.5 303 L 195.5 302 Z " /><path fill="rgb(0,0,0)" stroke="rgb(0,0,0)" stroke-width="1" opacity="0.803921568627451" d="M 314.5 302 L 317 302.5 L 314.5 303 L 314.5 302 Z " /><path fill="rgb(0,0,0)" stroke="rgb(0,0,0)" stroke-width="1" opacity="0.803921568627451" d="M 189.5 303 L 192 303.5 L 189.5 304 L 189.5 303 Z " /><path fill="rgb(0,0,0)" stroke="rgb(0,0,0)" stroke-width="1" opacity="0.803921568627451" d="M 320.5 303 L 323 303.5 L 320.5 304 L 320.5 303 Z " /><path fill="rgb(0,0,0)" stroke="rgb(0,0,0)" stroke-width="1" opacity="0.803921568627451" d="M 372.5 320 L 376 322.5 L 374.5 322 L 372.5 320 Z " /><path fill="rgb(0,0,0)" stroke="rgb(0,0,0)" stroke-width="1" opacity="0.803921568627451" d="M 383.5 326 L 384.5 328 L 383.5 326 Z " /><path fill="rgb(0,0,0)" stroke="rgb(0,0,0)" stroke-width="1" opacity="0.803921568627451" d="M 391.5 331 L 392.5 333 L 391.5 331 Z " /><path fill="rgb(0,0,0)" stroke="rgb(0,0,0)" stroke-width="1" opacity="0.803921568627451" d="M 117.5 333 L 116.5 335 L 117.5 333 Z " /><path fill="rgb(0,0,0)" stroke="rgb(0,0,0)" stroke-width="1" opacity="0.803921568627451" d="M 394.5 333 L 395.5 335 L 394.5 333 Z " /><path fill="rgb(0,0,0)" stroke="rgb(0,0,0)" stroke-width="1" opacity="0.803921568627451" d="M 113.5 336 L 112.5 338 L 113.5 336 Z " /><path fill="rgb(0,0,0)" stroke="rgb(0,0,0)" stroke-width="1" opacity="0.803921568627451" d="M 398.5 336 L 399.5 338 L 398.5 336 Z " /><path fill="rgb(0,0,0)" stroke="rgb(0,0,0)" stroke-width="1" opacity="0.803921568627451" d="M 110.5 338 L 108.5 341 L 110.5 338 Z " /><path fill="rgb(0,0,0)" stroke="rgb(0,0,0)" stroke-width="1" opacity="0.803921568627451" d="M 401.5 338 L 403.5 341 L 401.5 338 Z " /><path fill="rgb(0,0,0)" stroke="rgb(0,0,0)" stroke-width="1" opacity="0.803921568627451" d="M 105.5 342 L 103.5 345 L 105.5 342 Z " /><path fill="rgb(0,0,0)" stroke="rgb(0,0,0)" stroke-width="1" opacity="0.803921568627451" d="M 406.5 342 L 408.5 345 L 406.5 342 Z " /><path fill="rgb(0,0,0)" stroke="rgb(0,0,0)" stroke-width="1" opacity="0.803921568627451" d="M 411.5 346 L 416.5 352 L 411.5 346 Z " /><path fill="rgb(0,0,0)" stroke="rgb(0,0,0)" stroke-width="1" opacity="0.803921568627451" d="M 99.5 347 L 94.5 353 L 99.5 347 Z " /><path fill="rgb(0,0,0)" stroke="rgb(0,0,0)" stroke-width="1" opacity="0.803921568627451" d="M 84.5 362 L 79.5 368 L 84.5 362 Z " /><path fill="rgb(0,0,0)" stroke="rgb(0,0,0)" stroke-width="1" opacity="0.803921568627451" d="M 427.5 362 L 432.5 368 L 427.5 362 Z " /><path fill="rgb(0,0,0)" stroke="rgb(0,0,0)" stroke-width="1" opacity="0.803921568627451" d="M 76.5 371 L 74.5 374 L 76.5 371 Z " /><path fill="rgb(0,0,0)" stroke="rgb(0,0,0)" stroke-width="1" opacity="0.803921568627451" d="M 435.5 371 L 437.5 374 L 435.5 371 Z " /><path fill="rgb(0,0,0)" stroke="rgb(0,0,0)" stroke-width="1" opacity="0.803921568627451" d="M 72.5 376 L 70.5 379 L 72.5 376 Z " /><path fill="rgb(0,0,0)" stroke="rgb(0,0,0)" stroke-width="1" opacity="0.803921568627451" d="M 439.5 376 L 441.5 379 L 439.5 376 Z " /><path fill="rgb(0,0,0)" stroke="rgb(0,0,0)" stroke-width="1" opacity="0.803921568627451" d="M 69.5 380 L 68.5 382 L 69.5 380 Z " /><path fill="rgb(0,0,0)" stroke="rgb(0,0,0)" stroke-width="1" opacity="0.803921568627451" d="M 442.5 380 L 443.5 382 L 442.5 380 Z " /><path fill="rgb(0,0,0)" stroke="rgb(0,0,0)" stroke-width="1" opacity="0.803921568627451" d="M 66.5 384 L 65.5 386 L 66.5 384 Z " /><path fill="rgb(0,0,0)" stroke="rgb(0,0,0)" stroke-width="1" opacity="0.803921568627451" d="M 445.5 384 L 446.5 386 L 445.5 384 Z " /><path fill="rgb(0,0,0)" stroke="rgb(0,0,0)" stroke-width="1" opacity="0.803921568627451" d="M 64.5 387 L 63.5 389 L 64.5 387 Z " /><path fill="rgb(0,0,0)" stroke="rgb(0,0,0)" stroke-width="1" opacity="0.803921568627451" d="M 447.5 387 L 448.5 389 L 447.5 387 Z " /><path fill="rgb(0,0,0)" stroke="rgb(0,0,0)" stroke-width="1" opacity="0.803921568627451" d="M 62.5 390 L 61.5 392 L 62.5 390 Z " /><path fill="rgb(0,0,0)" stroke="rgb(0,0,0)" stroke-width="1" opacity="0.803921568627451" d="M 59.5 395 L 58.5 397 L 59.5 395 Z " /><path fill="rgb(0,0,0)" stroke="rgb(0,0,0)" stroke-width="1" opacity="0.803921568627451" d="M 452.5 395 L 453.5 397 L 452.5 395 Z " /><path fill="rgb(0,0,0)" stroke="rgb(0,0,0)" stroke-width="1" opacity="0.803921568627451" d="M 55.5 402 L 54.5 404 L 55.5 402 Z " /><path fill="rgb(0,0,0)" stroke="rgb(0,0,0)" stroke-width="1" opacity="0.803921568627451" d="M 456.5 402 L 457.5 404 L 456.5 402 Z " /><path fill="rgb(0,0,0)" stroke="rgb(0,0,0)" stroke-width="1" opacity="0.803921568627451" d="M 34.5 459 L 35 461.5 L 34 461.5 L 34.5 459 Z " /><path fill="rgb(0,0,0)" stroke="rgb(0,0,0)" stroke-width="1" opacity="0.803921568627451" d="M 477.5 459 L 478 461.5 L 477 461.5 L 477.5 459 Z " /><path fill="rgb(0,0,0)" stroke="rgb(0,0,0)" stroke-width="1" opacity="0.803921568627451" d="M 33.5 465 L 34 467.5 L 33 467.5 L 33.5 465 Z " /><path fill="rgb(0,0,0)" stroke="rgb(0,0,0)" stroke-width="1" opacity="0.803921568627451" d="M 478.5 465 L 479 467.5 L 478 467.5 L 478.5 465 Z " /><path fill="rgb(0,0,0)" stroke="rgb(0,0,0)" stroke-width="1" opacity="0.803921568627451" d="M 32.5 472 L 33 475.5 L 32 475.5 L 32.5 472 Z " /><path fill="rgb(0,0,0)" stroke="rgb(0,0,0)" stroke-width="1" opacity="0.803921568627451" d="M 479.5 472 L 480 475.5 L 479 475.5 L 479.5 472 Z " /><path fill="rgb(0,0,0)" stroke="rgb(0,0,0)" stroke-width="1" opacity="0.803921568627451" d="M 31.5 482 L 32 492.5 L 31 492.5 L 31.5 482 Z " /><path fill="rgb(0,0,0)" stroke="rgb(0,0,0)" stroke-width="1" opacity="0.803921568627451" d="M 480.5 482 L 481 492.5 L 480 492.5 L 480.5 482 Z " /><path fill="rgb(0,0,0)" stroke="rgb(0,0,0)" stroke-width="1" opacity="0.803921568627451" d="M 32.5 503 L 33.5 505 L 32.5 503 Z " /><path fill="rgb(0,0,0)" stroke="rgb(0,0,0)" stroke-width="1" opacity="0.803921568627451" d="M 479.5 503 L 478.5 505 L 479.5 503 Z " /><path fill="rgb(0,0,0)" stroke="rgb(0,0,0)" stroke-width="1" opacity="0.803921568627451" d="M 34.5 506 L 36.5 509 L 34.5 506 Z " /><path fill="rgb(0,0,0)" stroke="rgb(0,0,0)" stroke-width="1" opacity="0.803921568627451" d="M 477.5 506 L 475.5 509 L 477.5 506 Z " /><path fill="rgb(0,0,0)" stroke="rgb(0,0,0)" stroke-width="1" opacity="0.803921568627451" d="M 38.5 509 L 39.5 511 L 38.5 509 Z " /><path fill="rgb(0,0,0)" stroke="rgb(0,0,0)" stroke-width="1" opacity="0.803921568627451" d="M 473.5 509 L 472.5 511 L 473.5 509 Z " /><path fill="rgb(0,0,0)" stroke="rgb(0,0,0)" stroke-width="1" opacity="0" d="M 0 0 L 243 0.5 L 235.5 1 L 214.5 6 L 191.5 16 Q 168.3 28.8 152 48.5 Q 135.8 67.3 127 93.5 L 121 122.5 L 121 147.5 L 127 176.5 L 138 201.5 Q 150.7 223.3 169.5 239 Q 188.4 255.1 214.5 264 L 235.5 269 L 267.5 270 L 297.5 264 L 322.5 253 Q 344.3 240.3 360 221.5 Q 376.1 202.6 385 176.5 L 390 155.5 L 391 123.5 L 385 93.5 L 374 68.5 Q 361.3 46.7 342.5 31 Q 315.3 6.3 269 0.5 L 512 0 L 512 511.5 L 511.5 512 L 470.5 512 L 470.5 511 L 472.5 511 L 478 506.5 L 481 500.5 L 481 482.5 L 480 481.5 L 480 472.5 L 479 471.5 L 478 459.5 L 473 439.5 Q 467 420 458 403.5 Q 439.5 370 411.5 346 Q 378.2 316.3 327.5 304 L 310.5 301 L 301.5 301 L 300.5 300 L 211.5 300 L 210.5 301 L 195.5 302 L 176.5 306 L 143.5 318 Q 105.2 336.7 79 367.5 Q 55.5 394 42 430.5 L 33 465.5 L 32 481.5 L 31 482.5 L 31 500.5 L 36.5 509 L 42 511.5 L 0 512 L 0 0 Z " /><path fill="rgb(0,0,0)" stroke="rgb(0,0,0)" stroke-width="1" opacity="1" d="M 252.5 0 L 279.5 2 L 309.5 11 Q 337.1 23.4 356 44.5 Q 372.2 62.3 382 86.5 L 389 111.5 L 391 138.5 L 390 139.5 L 390 151.5 L 389 152.5 L 388 163.5 L 379 190.5 Q 366.8 216.8 346.5 235 Q 328.7 251.2 304.5 261 L 284.5 267 L 279.5 267 L 272.5 269 L 252.5 270 L 251.5 269 L 239.5 269 L 238.5 268 L 227.5 267 L 200.5 258 Q 174.2 245.8 156 225.5 Q 139.8 207.7 130 183.5 L 123 158.5 L 121 131.5 L 122 130.5 L 122 118.5 L 123 117.5 L 124 106.5 L 133 79.5 Q 145.2 53.2 165.5 35 Q 183.3 18.8 207.5 9 L 227.5 3 L 238.5 2 L 239.5 1 L 251.5 1 L 252.5 0 Z " /><path fill="rgb(0,0,0)" stroke="rgb(0,0,0)" stroke-width="1" opacity="1" d="M 222.5 300 L 289.5 300 L 290.5 301 L 306.5 301 L 307.5 302 L 325.5 304 L 344.5 309 Q 394.8 326.2 427 361.5 Q 453 388.5 468 426.5 L 478 462.5 L 479 475.5 L 480 476.5 L 481 498.5 Q 479.9 505.9 474.5 509 L 467.5 512 L 44.5 512 Q 37.1 510.9 34 505.5 L 32 502.5 L 31 493.5 L 32 492.5 L 32 476.5 L 33 475.5 L 33 468.5 L 36 452.5 L 49 414.5 Q 66.1 378.6 93.5 353 Q 117.9 329.4 151.5 315 L 186.5 304 L 205.5 302 L 206.5 301 L 221.5 301 L 222.5 300 Z " /></svg>