<svg width="512" height="512" version="1.1" xmlns="http://www.w3.org/2000/svg" desc="Created with imagetracer.js version 1.2.6" ><path fill="rgb(220,92,105)" stroke="rgb(220,92,105)" stroke-width="1" opacity="0.9921568627450981" d="M 264.5 91 L 265 137.5 L 264 137.5 L 264.5 91 Z " /><path fill="rgb(220,92,105)" stroke="rgb(220,92,105)" stroke-width="1" opacity="0.9921568627450981" d="M 264.5 186 L 265 231.5 L 264 231.5 L 264.5 186 Z " /><path fill="rgb(220,92,105)" stroke="rgb(220,92,105)" stroke-width="1" opacity="0.9921568627450981" d="M 16.5 280 L 17 325.5 L 16 325.5 L 16.5 280 Z " /><path fill="rgb(220,92,105)" stroke="rgb(220,92,105)" stroke-width="1" opacity="0.9921568627450981" d="M 23.5 380 L 24.5 382 L 23.5 380 Z " /><path fill="rgb(220,92,105)" stroke="rgb(220,92,105)" stroke-width="1" opacity="0.9921568627450981" d="M 25.5 383 L 26.5 385 L 25.5 383 Z " /><path fill="rgb(220,92,105)" stroke="rgb(220,92,105)" stroke-width="1" opacity="0.9921568627450981" d="M 29.5 388 L 32.5 392 L 29.5 388 Z " /><path fill="rgb(220,92,105)" stroke="rgb(220,92,105)" stroke-width="1" opacity="0.9921568627450981" d="M 36.5 394 L 37.5 396 L 36.5 394 Z " /><path fill="rgb(220,92,105)" stroke="rgb(220,92,105)" stroke-width="1" opacity="0.9921568627450981" d="M 61.5 404 L 512 404.5 L 61.5 405 L 61.5 404 Z " /><path fill="rgb(229,100,110)" stroke="rgb(229,100,110)" stroke-width="1" opacity="1" d="M 265 91 L 499.5 91 Q 506 92.5 509 97.5 L 512 103.5 L 512 138 L 265.5 138 L 265 137.5 L 265 91 Z " /><path fill="rgb(229,100,110)" stroke="rgb(229,100,110)" stroke-width="1" opacity="1" d="M 264.5 185 L 511.5 185 L 512 185.5 L 512 232 L 265.5 232 L 265 231.5 L 265 186.5 L 264.5 185 Z " /><path fill="rgb(229,100,110)" stroke="rgb(229,100,110)" stroke-width="1" opacity="1" d="M 17 280 L 511.5 280 L 512 280.5 L 512 327 L 0 326.5 L 17 326 L 17 280 Z " /><path fill="rgb(229,100,110)" stroke="rgb(229,100,110)" stroke-width="1" opacity="1" d="M 21 374 L 511.5 374 L 512 374.5 L 512 404 L 57.5 404 Q 37.4 399.6 27 385.5 L 21 374 Z " /><path fill="rgb(0,0,0)" stroke="rgb(0,0,0)" stroke-width="1" opacity="0" d="M 0 0 L 511.5 0 L 512 0.5 L 512 100.5 L 511 100.5 L 505.5 93 L 497.5 90 L 14.5 90 Q 6.7 91.2 3 96.5 L 0.5 101 L 0 0 Z " /><path fill="rgb(0,0,0)" stroke="rgb(0,0,0)" stroke-width="1" opacity="0" d="M 0.5 411 L 6.5 419 L 14.5 422 L 497.5 422 Q 505.3 420.8 509 415.5 L 511.5 411 L 512 512 L 0.5 512 L 0 511.5 L 0.5 411 Z " /><path fill="rgb(81,86,160)" stroke="rgb(81,86,160)" stroke-width="1" opacity="1" d="M 17 91 L 264 91 L 264 280 L 16 279.5 L 17 275.5 L 16 273.5 L 17 272.5 L 17 91 Z M 31 111 L 29 112 L 25 117 L 25 123 L 27 126 L 32 128 L 39 126 L 41 123 L 40 115 Q 38 110 31 111 Z M 81 111 L 79 112 L 74 119 L 75 124 L 82 128 L 87 127 L 91 122 Q 92 115 89 113 Q 87 110 81 111 Z M 130 111 L 128 112 Q 123 114 124 123 L 131 128 L 137 127 L 141 120 L 140 116 Q 138 110 130 111 Z M 180 111 L 178 112 L 173 119 L 174 124 L 181 128 L 186 127 L 190 122 Q 191 115 188 113 Q 186 110 180 111 Z M 230 111 L 225 113 L 223 117 L 224 124 L 230 128 L 236 127 L 240 121 L 239 116 Q 237 110 230 111 Z M 55 128 L 50 133 Q 48 142 55 144 L 63 143 Q 67 141 66 133 Q 64 126 55 128 Z M 105 128 L 103 129 L 99 134 L 100 141 L 105 144 L 111 144 L 114 142 L 116 138 L 114 131 Q 112 127 105 128 Z M 154 128 L 149 133 Q 147 142 154 144 L 162 143 Q 166 141 165 133 Q 163 126 154 128 Z M 204 128 L 202 129 L 198 135 L 200 142 L 204 144 L 212 143 L 215 138 L 214 132 Q 212 127 204 128 Z M 32 144 L 29 145 L 25 150 L 25 156 L 27 159 L 32 161 L 39 159 L 41 156 L 40 148 Q 38 143 32 144 Z M 81 144 L 79 145 L 74 151 L 75 157 L 82 161 L 87 160 L 91 155 Q 92 148 89 146 Q 87 143 81 144 Z M 131 144 L 127 146 Q 123 148 124 156 L 131 161 L 137 160 L 141 153 L 140 149 Q 138 143 131 144 Z M 180 144 L 178 145 L 173 152 L 174 157 L 181 161 L 186 160 L 190 155 Q 191 148 188 146 Q 186 143 180 144 Z M 230 144 L 225 146 L 223 150 L 224 157 L 230 161 L 236 160 L 240 154 L 239 149 Q 237 143 230 144 Z M 55 161 L 50 166 Q 48 175 55 177 L 63 176 L 66 172 L 65 165 Q 63 159 55 161 Z M 105 161 L 103 162 L 99 167 L 100 174 L 105 177 L 113 176 L 116 171 L 114 164 Q 112 160 105 161 Z M 154 161 L 149 166 Q 147 175 154 177 L 162 176 L 165 172 L 164 165 Q 162 159 154 161 Z M 204 161 L 202 162 L 198 168 L 200 175 L 204 177 L 212 176 L 215 171 L 214 165 Q 212 160 204 161 Z M 32 177 L 29 178 L 25 183 L 26 191 L 32 194 L 38 193 L 41 189 L 40 181 Q 38 176 32 177 Z M 81 177 L 79 178 L 74 185 L 75 190 L 82 194 L 87 193 L 91 188 L 90 182 Q 88 176 81 177 Z M 131 177 L 127 179 L 124 183 L 124 189 L 126 192 L 131 194 L 137 193 L 141 186 L 140 182 Q 138 176 131 177 Z M 180 177 L 178 178 L 173 185 L 174 190 L 181 194 L 186 193 L 190 188 L 189 182 Q 187 176 180 177 Z M 230 177 L 225 179 L 223 183 L 223 189 L 230 194 L 236 193 L 240 187 L 239 182 Q 237 176 230 177 Z M 55 194 L 50 199 Q 48 208 55 210 L 63 209 L 66 205 L 65 198 Q 63 192 55 194 Z M 105 194 L 103 195 L 99 200 L 100 207 L 105 210 L 113 209 L 116 204 L 114 197 Q 112 193 105 194 Z M 154 194 L 149 199 Q 147 208 154 210 L 162 209 L 165 205 L 164 198 Q 162 192 154 194 Z M 204 194 L 202 195 L 198 201 L 200 208 L 204 210 L 212 209 L 215 204 L 214 198 Q 212 193 204 194 Z M 32 210 L 28 212 L 25 216 L 26 224 L 32 227 L 38 226 L 41 222 L 40 214 Q 38 210 32 210 Z M 81 210 L 79 211 L 74 218 L 75 223 L 81 227 L 87 226 L 91 221 L 90 215 Q 88 209 81 210 Z M 131 210 L 126 212 L 124 216 L 124 222 L 126 225 L 131 227 L 137 226 L 141 219 L 139 214 Q 137 210 131 210 Z M 180 210 L 178 211 L 173 218 L 174 223 L 180 227 L 186 226 L 190 221 L 189 215 Q 187 209 180 210 Z M 230 210 L 225 212 L 223 216 L 224 223 L 230 227 L 236 226 L 240 220 L 239 215 Q 237 209 230 210 Z M 55 227 L 50 232 Q 48 241 55 243 L 63 242 L 66 238 L 65 231 Q 63 226 55 227 Z M 105 227 L 103 228 L 99 233 L 100 240 L 105 243 L 113 242 L 116 237 L 114 230 Q 112 226 105 227 Z M 154 227 L 149 232 Q 147 241 154 243 L 162 242 L 165 238 L 164 231 Q 162 226 154 227 Z M 204 227 L 202 228 L 198 234 L 199 240 L 204 243 L 212 242 L 215 237 L 214 231 Q 212 226 204 227 Z M 32 243 L 28 245 L 25 249 L 26 257 L 32 260 L 38 259 L 41 255 L 40 247 Q 38 243 32 243 Z M 81 243 L 79 244 L 74 251 L 75 256 L 81 260 L 87 259 L 91 254 L 90 248 Q 88 242 81 243 Z M 131 243 L 126 245 L 124 249 L 124 255 L 126 258 L 131 260 L 137 259 L 140 256 L 141 252 L 140 248 Q 138 243 131 243 Z M 180 243 L 178 244 L 173 251 L 174 256 L 180 260 L 186 259 L 190 254 L 189 248 Q 187 242 180 243 Z M 230 243 L 225 245 L 223 249 L 223 255 L 225 258 L 230 260 L 236 259 L 240 253 L 239 248 Q 237 242 230 243 Z " /><path fill="rgb(63,63,143)" stroke="rgb(63,63,143)" stroke-width="1" opacity="0.996078431372549" d="M 11.5 91 Q 16.9 90.4 17 91.5 L 17 272.5 L 16 274.5 L 17 278.5 L 15.5 280 L 0 280 L 0 102.5 L 7.5 93 L 11.5 91 Z " /><path fill="rgb(219,210,222)" stroke="rgb(219,210,222)" stroke-width="1" opacity="0.996078431372549" d="M 30.5 111 L 36 111.5 L 30.5 112 L 30.5 111 Z " /><path fill="rgb(219,210,222)" stroke="rgb(219,210,222)" stroke-width="1" opacity="0.996078431372549" d="M 80.5 111 L 85 111.5 L 80.5 112 L 80.5 111 Z " /><path fill="rgb(219,210,222)" stroke="rgb(219,210,222)" stroke-width="1" opacity="0.996078431372549" d="M 129.5 111 L 135 111.5 L 129.5 112 L 129.5 111 Z " /><path fill="rgb(219,210,222)" stroke="rgb(219,210,222)" stroke-width="1" opacity="0.996078431372549" d="M 179.5 111 L 184 111.5 L 179.5 112 L 179.5 111 Z " /><path fill="rgb(219,210,222)" stroke="rgb(219,210,222)" stroke-width="1" opacity="0.996078431372549" d="M 28.5 112 L 26.5 115 L 28.5 112 Z " /><path fill="rgb(219,210,222)" stroke="rgb(219,210,222)" stroke-width="1" opacity="0.996078431372549" d="M 37.5 112 L 39.5 115 L 37.5 112 Z " /><path fill="rgb(219,210,222)" stroke="rgb(219,210,222)" stroke-width="1" opacity="0.996078431372549" d="M 127.5 112 L 125.5 115 L 127.5 112 Z " /><path fill="rgb(219,210,222)" stroke="rgb(219,210,222)" stroke-width="1" opacity="0.996078431372549" d="M 138.5 114 L 139.5 116 L 138.5 114 Z " /><path fill="rgb(219,210,222)" stroke="rgb(219,210,222)" stroke-width="1" opacity="0.996078431372549" d="M 175.5 114 L 174.5 116 L 175.5 114 Z " /><path fill="rgb(219,210,222)" stroke="rgb(219,210,222)" stroke-width="1" opacity="0.996078431372549" d="M 90.5 117 L 91 121.5 L 90 121.5 L 90.5 117 Z " /><path fill="rgb(219,210,222)" stroke="rgb(219,210,222)" stroke-width="1" opacity="0.996078431372549" d="M 74.5 118 L 75 120.5 L 74 120.5 L 74.5 118 Z " /><path fill="rgb(219,210,222)" stroke="rgb(219,210,222)" stroke-width="1" opacity="0.996078431372549" d="M 173.5 118 L 174 120.5 L 173 120.5 L 173.5 118 Z " /><path fill="rgb(219,210,222)" stroke="rgb(219,210,222)" stroke-width="1" opacity="0.996078431372549" d="M 239.5 118 L 240 120.5 L 239 120.5 L 239.5 118 Z " /><path fill="rgb(219,210,222)" stroke="rgb(219,210,222)" stroke-width="1" opacity="0.996078431372549" d="M 75.5 123 L 78.5 127 L 75.5 123 Z " /><path fill="rgb(219,210,222)" stroke="rgb(219,210,222)" stroke-width="1" opacity="0.996078431372549" d="M 174.5 123 L 177.5 127 L 174.5 123 Z " /><path fill="rgb(219,210,222)" stroke="rgb(219,210,222)" stroke-width="1" opacity="0.996078431372549" d="M 238.5 123 L 235.5 127 L 238.5 123 Z " /><path fill="rgb(219,210,222)" stroke="rgb(219,210,222)" stroke-width="1" opacity="0.996078431372549" d="M 39.5 124 L 38.5 126 L 39.5 124 Z " /><path fill="rgb(219,210,222)" stroke="rgb(219,210,222)" stroke-width="1" opacity="0.996078431372549" d="M 138.5 124 L 136.5 127 L 138.5 124 Z " /><path fill="rgb(219,210,222)" stroke="rgb(219,210,222)" stroke-width="1" opacity="0.996078431372549" d="M 31.5 127 L 35 127.5 L 31.5 128 L 31.5 127 Z " /><path fill="rgb(219,210,222)" stroke="rgb(219,210,222)" stroke-width="1" opacity="0.996078431372549" d="M 81.5 127 L 85 127.5 L 81.5 128 L 81.5 127 Z " /><path fill="rgb(219,210,222)" stroke="rgb(219,210,222)" stroke-width="1" opacity="0.996078431372549" d="M 130.5 127 L 134 127.5 L 130.5 128 L 130.5 127 Z " /><path fill="rgb(219,210,222)" stroke="rgb(219,210,222)" stroke-width="1" opacity="0.996078431372549" d="M 180.5 127 L 184 127.5 L 180.5 128 L 180.5 127 Z " /><path fill="rgb(219,210,222)" stroke="rgb(219,210,222)" stroke-width="1" opacity="0.996078431372549" d="M 229.5 127 L 233 127.5 L 229.5 128 L 229.5 127 Z " /><path fill="rgb(219,210,222)" stroke="rgb(219,210,222)" stroke-width="1" opacity="0.996078431372549" d="M 102.5 129 L 100.5 132 L 102.5 129 Z " /><path fill="rgb(219,210,222)" stroke="rgb(219,210,222)" stroke-width="1" opacity="0.996078431372549" d="M 112.5 129 L 113.5 131 L 112.5 129 Z " /><path fill="rgb(219,210,222)" stroke="rgb(219,210,222)" stroke-width="1" opacity="0.996078431372549" d="M 201.5 129 L 199.5 132 L 201.5 129 Z " /><path fill="rgb(219,210,222)" stroke="rgb(219,210,222)" stroke-width="1" opacity="0.996078431372549" d="M 211.5 129 L 213.5 132 L 211.5 129 Z " /><path fill="rgb(219,210,222)" stroke="rgb(219,210,222)" stroke-width="1" opacity="0.996078431372549" d="M 64.5 131 L 66 133.5 L 65 133.5 L 64.5 131 Z " /><path fill="rgb(219,210,222)" stroke="rgb(219,210,222)" stroke-width="1" opacity="0.996078431372549" d="M 163.5 131 L 165 133.5 L 164 133.5 L 163.5 131 Z " /><path fill="rgb(219,210,222)" stroke="rgb(219,210,222)" stroke-width="1" opacity="0.996078431372549" d="M 99.5 133 L 100 138.5 L 99 138.5 L 99.5 133 Z " /><path fill="rgb(219,210,222)" stroke="rgb(219,210,222)" stroke-width="1" opacity="0.996078431372549" d="M 115.5 134 L 116 137.5 L 115 137.5 L 115.5 134 Z " /><path fill="rgb(219,210,222)" stroke="rgb(219,210,222)" stroke-width="1" opacity="0.996078431372549" d="M 198.5 134 L 199 137.5 L 198 137.5 L 198.5 134 Z " /><path fill="rgb(219,210,222)" stroke="rgb(219,210,222)" stroke-width="1" opacity="0.996078431372549" d="M 214.5 134 L 215 137.5 L 214 137.5 L 214.5 134 Z " /><path fill="rgb(219,210,222)" stroke="rgb(219,210,222)" stroke-width="1" opacity="0.996078431372549" d="M 264.5 138 L 265 184.5 L 264 184.5 L 264.5 138 Z " /><path fill="rgb(219,210,222)" stroke="rgb(219,210,222)" stroke-width="1" opacity="0.996078431372549" d="M 100.5 140 L 102.5 143 L 100.5 140 Z " /><path fill="rgb(219,210,222)" stroke="rgb(219,210,222)" stroke-width="1" opacity="0.996078431372549" d="M 200.5 141 L 201.5 143 L 200.5 141 Z " /><path fill="rgb(219,210,222)" stroke="rgb(219,210,222)" stroke-width="1" opacity="0.996078431372549" d="M 212.5 141 L 211.5 143 L 212.5 141 Z " /><path fill="rgb(219,210,222)" stroke="rgb(219,210,222)" stroke-width="1" opacity="0.996078431372549" d="M 31.5 144 L 36 144.5 L 31.5 145 L 31.5 144 Z " /><path fill="rgb(219,210,222)" stroke="rgb(219,210,222)" stroke-width="1" opacity="0.996078431372549" d="M 80.5 144 L 85 144.5 L 80.5 145 L 80.5 144 Z " /><path fill="rgb(219,210,222)" stroke="rgb(219,210,222)" stroke-width="1" opacity="0.996078431372549" d="M 130.5 144 L 135 144.5 L 130.5 145 L 130.5 144 Z " /><path fill="rgb(219,210,222)" stroke="rgb(219,210,222)" stroke-width="1" opacity="0.996078431372549" d="M 179.5 144 L 184 144.5 L 179.5 145 L 179.5 144 Z " /><path fill="rgb(219,210,222)" stroke="rgb(219,210,222)" stroke-width="1" opacity="0.996078431372549" d="M 229.5 144 L 234 144.5 L 229.5 145 L 229.5 144 Z " /><path fill="rgb(219,210,222)" stroke="rgb(219,210,222)" stroke-width="1" opacity="0.996078431372549" d="M 28.5 145 L 26.5 148 L 28.5 145 Z " /><path fill="rgb(219,210,222)" stroke="rgb(219,210,222)" stroke-width="1" opacity="0.996078431372549" d="M 37.5 145 L 39.5 148 L 37.5 145 Z " /><path fill="rgb(219,210,222)" stroke="rgb(219,210,222)" stroke-width="1" opacity="0.996078431372549" d="M 136.5 145 L 140 149.5 L 139 149.5 L 136.5 145 Z " /><path fill="rgb(219,210,222)" stroke="rgb(219,210,222)" stroke-width="1" opacity="0.996078431372549" d="M 235.5 145 L 238.5 149 L 235.5 145 Z " /><path fill="rgb(219,210,222)" stroke="rgb(219,210,222)" stroke-width="1" opacity="0.996078431372549" d="M 126.5 146 L 125.5 148 L 126.5 146 Z " /><path fill="rgb(219,210,222)" stroke="rgb(219,210,222)" stroke-width="1" opacity="0.996078431372549" d="M 74.5 150 L 75 153.5 L 74 153.5 L 74.5 150 Z " /><path fill="rgb(219,210,222)" stroke="rgb(219,210,222)" stroke-width="1" opacity="0.996078431372549" d="M 173.5 151 L 174 153.5 L 173 153.5 L 173.5 151 Z " /><path fill="rgb(219,210,222)" stroke="rgb(219,210,222)" stroke-width="1" opacity="0.996078431372549" d="M 239.5 151 L 240 153.5 L 239 153.5 L 239.5 151 Z " /><path fill="rgb(219,210,222)" stroke="rgb(219,210,222)" stroke-width="1" opacity="0.996078431372549" d="M 75.5 156 L 78.5 160 L 75.5 156 Z " /><path fill="rgb(219,210,222)" stroke="rgb(219,210,222)" stroke-width="1" opacity="0.996078431372549" d="M 174.5 156 L 177.5 160 L 174.5 156 Z " /><path fill="rgb(219,210,222)" stroke="rgb(219,210,222)" stroke-width="1" opacity="0.996078431372549" d="M 238.5 156 L 235.5 160 L 238.5 156 Z " /><path fill="rgb(219,210,222)" stroke="rgb(219,210,222)" stroke-width="1" opacity="0.996078431372549" d="M 39.5 157 L 38.5 159 L 39.5 157 Z " /><path fill="rgb(219,210,222)" stroke="rgb(219,210,222)" stroke-width="1" opacity="0.996078431372549" d="M 138.5 157 L 136.5 160 L 138.5 157 Z " /><path fill="rgb(219,210,222)" stroke="rgb(219,210,222)" stroke-width="1" opacity="0.996078431372549" d="M 31.5 160 L 35 160.5 L 31.5 161 L 31.5 160 Z " /><path fill="rgb(219,210,222)" stroke="rgb(219,210,222)" stroke-width="1" opacity="0.996078431372549" d="M 81.5 160 L 85 160.5 L 81.5 161 L 81.5 160 Z " /><path fill="rgb(219,210,222)" stroke="rgb(219,210,222)" stroke-width="1" opacity="0.996078431372549" d="M 130.5 160 L 134 160.5 L 130.5 161 L 130.5 160 Z " /><path fill="rgb(219,210,222)" stroke="rgb(219,210,222)" stroke-width="1" opacity="0.996078431372549" d="M 180.5 160 L 184 160.5 L 180.5 161 L 180.5 160 Z " /><path fill="rgb(219,210,222)" stroke="rgb(219,210,222)" stroke-width="1" opacity="0.996078431372549" d="M 229.5 160 L 233 160.5 L 229.5 161 L 229.5 160 Z " /><path fill="rgb(219,210,222)" stroke="rgb(219,210,222)" stroke-width="1" opacity="0.996078431372549" d="M 60.5 161 L 63 162.5 L 61.5 162 L 60.5 161 Z " /><path fill="rgb(219,210,222)" stroke="rgb(219,210,222)" stroke-width="1" opacity="0.996078431372549" d="M 159.5 161 L 162 162.5 L 160.5 162 L 159.5 161 Z " /><path fill="rgb(219,210,222)" stroke="rgb(219,210,222)" stroke-width="1" opacity="0.996078431372549" d="M 102.5 162 L 100.5 165 L 102.5 162 Z " /><path fill="rgb(219,210,222)" stroke="rgb(219,210,222)" stroke-width="1" opacity="0.996078431372549" d="M 112.5 162 L 113.5 164 L 112.5 162 Z " /><path fill="rgb(219,210,222)" stroke="rgb(219,210,222)" stroke-width="1" opacity="0.996078431372549" d="M 201.5 162 L 199.5 165 L 201.5 162 Z " /><path fill="rgb(219,210,222)" stroke="rgb(219,210,222)" stroke-width="1" opacity="0.996078431372549" d="M 211.5 162 L 213.5 165 L 211.5 162 Z " /><path fill="rgb(219,210,222)" stroke="rgb(219,210,222)" stroke-width="1" opacity="0.996078431372549" d="M 99.5 166 L 100 171.5 L 99 171.5 L 99.5 166 Z " /><path fill="rgb(219,210,222)" stroke="rgb(219,210,222)" stroke-width="1" opacity="0.996078431372549" d="M 214.5 166 L 215 170.5 L 214 170.5 L 214.5 166 Z " /><path fill="rgb(219,210,222)" stroke="rgb(219,210,222)" stroke-width="1" opacity="0.996078431372549" d="M 115.5 167 L 116 170.5 L 115 170.5 L 115.5 167 Z " /><path fill="rgb(219,210,222)" stroke="rgb(219,210,222)" stroke-width="1" opacity="0.996078431372549" d="M 198.5 167 L 199 170.5 L 198 170.5 L 198.5 167 Z " /><path fill="rgb(219,210,222)" stroke="rgb(219,210,222)" stroke-width="1" opacity="0.996078431372549" d="M 64.5 173 L 62.5 176 L 64.5 173 Z " /><path fill="rgb(219,210,222)" stroke="rgb(219,210,222)" stroke-width="1" opacity="0.996078431372549" d="M 100.5 173 L 102.5 176 L 100.5 173 Z " /><path fill="rgb(219,210,222)" stroke="rgb(219,210,222)" stroke-width="1" opacity="0.996078431372549" d="M 163.5 173 L 161.5 176 L 163.5 173 Z " /><path fill="rgb(219,210,222)" stroke="rgb(219,210,222)" stroke-width="1" opacity="0.996078431372549" d="M 213.5 173 L 211.5 176 L 213.5 173 Z " /><path fill="rgb(219,210,222)" stroke="rgb(219,210,222)" stroke-width="1" opacity="0.996078431372549" d="M 113.5 174 L 112.5 176 L 113.5 174 Z " /><path fill="rgb(219,210,222)" stroke="rgb(219,210,222)" stroke-width="1" opacity="0.996078431372549" d="M 200.5 174 L 201.5 176 L 200.5 174 Z " /><path fill="rgb(219,210,222)" stroke="rgb(219,210,222)" stroke-width="1" opacity="0.996078431372549" d="M 53.5 175 L 56 176.5 L 54.5 177 L 53.5 175 Z " /><path fill="rgb(219,210,222)" stroke="rgb(219,210,222)" stroke-width="1" opacity="0.996078431372549" d="M 152.5 175 L 155 176.5 L 153.5 177 L 152.5 175 Z " /><path fill="rgb(219,210,222)" stroke="rgb(219,210,222)" stroke-width="1" opacity="0.996078431372549" d="M 31.5 177 L 36 177.5 L 31.5 178 L 31.5 177 Z " /><path fill="rgb(219,210,222)" stroke="rgb(219,210,222)" stroke-width="1" opacity="0.996078431372549" d="M 80.5 177 L 85 177.5 L 80.5 178 L 80.5 177 Z " /><path fill="rgb(219,210,222)" stroke="rgb(219,210,222)" stroke-width="1" opacity="0.996078431372549" d="M 130.5 177 L 135 177.5 L 130.5 178 L 130.5 177 Z " /><path fill="rgb(219,210,222)" stroke="rgb(219,210,222)" stroke-width="1" opacity="0.996078431372549" d="M 179.5 177 L 184 177.5 L 179.5 178 L 179.5 177 Z " /><path fill="rgb(219,210,222)" stroke="rgb(219,210,222)" stroke-width="1" opacity="0.996078431372549" d="M 229.5 177 L 234 177.5 L 229.5 178 L 229.5 177 Z " /><path fill="rgb(219,210,222)" stroke="rgb(219,210,222)" stroke-width="1" opacity="0.996078431372549" d="M 28.5 178 L 26.5 181 L 28.5 178 Z " /><path fill="rgb(219,210,222)" stroke="rgb(219,210,222)" stroke-width="1" opacity="0.996078431372549" d="M 37.5 178 L 39.5 181 L 37.5 178 Z " /><path fill="rgb(219,210,222)" stroke="rgb(219,210,222)" stroke-width="1" opacity="0.996078431372549" d="M 78.5 178 L 75.5 182 L 78.5 178 Z " /><path fill="rgb(219,210,222)" stroke="rgb(219,210,222)" stroke-width="1" opacity="0.996078431372549" d="M 136.5 178 L 139.5 182 L 136.5 178 Z " /><path fill="rgb(219,210,222)" stroke="rgb(219,210,222)" stroke-width="1" opacity="0.996078431372549" d="M 177.5 178 L 174.5 182 L 177.5 178 Z " /><path fill="rgb(219,210,222)" stroke="rgb(219,210,222)" stroke-width="1" opacity="0.996078431372549" d="M 126.5 179 L 125.5 181 L 126.5 179 Z " /><path fill="rgb(219,210,222)" stroke="rgb(219,210,222)" stroke-width="1" opacity="0.996078431372549" d="M 237.5 180 L 238.5 182 L 237.5 180 Z " /><path fill="rgb(219,210,222)" stroke="rgb(219,210,222)" stroke-width="1" opacity="0.996078431372549" d="M 90.5 183 L 91 187.5 L 90 187.5 L 90.5 183 Z " /><path fill="rgb(219,210,222)" stroke="rgb(219,210,222)" stroke-width="1" opacity="0.996078431372549" d="M 74.5 184 L 75 186.5 L 74 186.5 L 74.5 184 Z " /><path fill="rgb(219,210,222)" stroke="rgb(219,210,222)" stroke-width="1" opacity="0.996078431372549" d="M 173.5 184 L 174 186.5 L 173 186.5 L 173.5 184 Z " /><path fill="rgb(219,210,222)" stroke="rgb(219,210,222)" stroke-width="1" opacity="0.996078431372549" d="M 239.5 184 L 240 186.5 L 239 186.5 L 239.5 184 Z " /><path fill="rgb(219,210,222)" stroke="rgb(219,210,222)" stroke-width="1" opacity="0.996078431372549" d="M 75.5 189 L 78.5 193 L 75.5 189 Z " /><path fill="rgb(219,210,222)" stroke="rgb(219,210,222)" stroke-width="1" opacity="0.996078431372549" d="M 174.5 189 L 177.5 193 L 174.5 189 Z " /><path fill="rgb(219,210,222)" stroke="rgb(219,210,222)" stroke-width="1" opacity="0.996078431372549" d="M 238.5 189 L 235.5 193 L 238.5 189 Z " /><path fill="rgb(219,210,222)" stroke="rgb(219,210,222)" stroke-width="1" opacity="0.996078431372549" d="M 26.5 190 L 27.5 192 L 26.5 190 Z " /><path fill="rgb(219,210,222)" stroke="rgb(219,210,222)" stroke-width="1" opacity="0.996078431372549" d="M 39.5 190 L 37.5 193 L 39.5 190 Z " /><path fill="rgb(219,210,222)" stroke="rgb(219,210,222)" stroke-width="1" opacity="0.996078431372549" d="M 138.5 190 L 136.5 193 L 138.5 190 Z " /><path fill="rgb(219,210,222)" stroke="rgb(219,210,222)" stroke-width="1" opacity="0.996078431372549" d="M 31.5 193 L 35 193.5 L 31.5 194 L 31.5 193 Z " /><path fill="rgb(219,210,222)" stroke="rgb(219,210,222)" stroke-width="1" opacity="0.996078431372549" d="M 81.5 193 L 85 193.5 L 81.5 194 L 81.5 193 Z " /><path fill="rgb(219,210,222)" stroke="rgb(219,210,222)" stroke-width="1" opacity="0.996078431372549" d="M 130.5 193 L 134 193.5 L 130.5 194 L 130.5 193 Z " /><path fill="rgb(219,210,222)" stroke="rgb(219,210,222)" stroke-width="1" opacity="0.996078431372549" d="M 180.5 193 L 184 193.5 L 180.5 194 L 180.5 193 Z " /><path fill="rgb(219,210,222)" stroke="rgb(219,210,222)" stroke-width="1" opacity="0.996078431372549" d="M 229.5 193 L 234 193.5 L 229.5 194 L 229.5 193 Z " /><path fill="rgb(219,210,222)" stroke="rgb(219,210,222)" stroke-width="1" opacity="0.996078431372549" d="M 60.5 194 L 63 195.5 L 61.5 195 L 60.5 194 Z " /><path fill="rgb(219,210,222)" stroke="rgb(219,210,222)" stroke-width="1" opacity="0.996078431372549" d="M 159.5 194 L 162 195.5 L 160.5 195 L 159.5 194 Z " /><path fill="rgb(219,210,222)" stroke="rgb(219,210,222)" stroke-width="1" opacity="0.996078431372549" d="M 102.5 195 L 100.5 198 L 102.5 195 Z " /><path fill="rgb(219,210,222)" stroke="rgb(219,210,222)" stroke-width="1" opacity="0.996078431372549" d="M 112.5 195 L 113.5 197 L 112.5 195 Z " /><path fill="rgb(219,210,222)" stroke="rgb(219,210,222)" stroke-width="1" opacity="0.996078431372549" d="M 201.5 195 L 199.5 198 L 201.5 195 Z " /><path fill="rgb(219,210,222)" stroke="rgb(219,210,222)" stroke-width="1" opacity="0.996078431372549" d="M 211.5 195 L 213.5 198 L 211.5 195 Z " /><path fill="rgb(219,210,222)" stroke="rgb(219,210,222)" stroke-width="1" opacity="0.996078431372549" d="M 99.5 199 L 100 204.5 L 99 204.5 L 99.5 199 Z " /><path fill="rgb(219,210,222)" stroke="rgb(219,210,222)" stroke-width="1" opacity="0.996078431372549" d="M 115.5 200 L 116 203.5 L 115 203.5 L 115.5 200 Z " /><path fill="rgb(219,210,222)" stroke="rgb(219,210,222)" stroke-width="1" opacity="0.996078431372549" d="M 198.5 200 L 199 203.5 L 198 203.5 L 198.5 200 Z " /><path fill="rgb(219,210,222)" stroke="rgb(219,210,222)" stroke-width="1" opacity="0.996078431372549" d="M 214.5 200 L 215 203.5 L 214 203.5 L 214.5 200 Z " /><path fill="rgb(219,210,222)" stroke="rgb(219,210,222)" stroke-width="1" opacity="0.996078431372549" d="M 100.5 206 L 102.5 209 L 100.5 206 Z " /><path fill="rgb(219,210,222)" stroke="rgb(219,210,222)" stroke-width="1" opacity="0.996078431372549" d="M 113.5 207 L 112.5 209 L 113.5 207 Z " /><path fill="rgb(219,210,222)" stroke="rgb(219,210,222)" stroke-width="1" opacity="0.996078431372549" d="M 200.5 207 L 201.5 209 L 200.5 207 Z " /><path fill="rgb(219,210,222)" stroke="rgb(219,210,222)" stroke-width="1" opacity="0.996078431372549" d="M 212.5 207 L 211.5 209 L 212.5 207 Z " /><path fill="rgb(219,210,222)" stroke="rgb(219,210,222)" stroke-width="1" opacity="0.996078431372549" d="M 31.5 210 L 35 210.5 L 31.5 211 L 31.5 210 Z " /><path fill="rgb(219,210,222)" stroke="rgb(219,210,222)" stroke-width="1" opacity="0.996078431372549" d="M 80.5 210 L 85 210.5 L 80.5 211 L 80.5 210 Z " /><path fill="rgb(219,210,222)" stroke="rgb(219,210,222)" stroke-width="1" opacity="0.996078431372549" d="M 130.5 210 L 134 210.5 L 130.5 211 L 130.5 210 Z " /><path fill="rgb(219,210,222)" stroke="rgb(219,210,222)" stroke-width="1" opacity="0.996078431372549" d="M 179.5 210 L 184 210.5 L 179.5 211 L 179.5 210 Z " /><path fill="rgb(219,210,222)" stroke="rgb(219,210,222)" stroke-width="1" opacity="0.996078431372549" d="M 229.5 210 L 234 210.5 L 229.5 211 L 229.5 210 Z " /><path fill="rgb(219,210,222)" stroke="rgb(219,210,222)" stroke-width="1" opacity="0.996078431372549" d="M 37.5 211 L 39.5 214 L 37.5 211 Z " /><path fill="rgb(219,210,222)" stroke="rgb(219,210,222)" stroke-width="1" opacity="0.996078431372549" d="M 136.5 211 L 138.5 214 L 136.5 211 Z " /><path fill="rgb(219,210,222)" stroke="rgb(219,210,222)" stroke-width="1" opacity="0.996078431372549" d="M 235.5 211 L 238.5 215 L 235.5 211 Z " /><path fill="rgb(219,210,222)" stroke="rgb(219,210,222)" stroke-width="1" opacity="0.996078431372549" d="M 27.5 212 L 26.5 214 L 27.5 212 Z " /><path fill="rgb(219,210,222)" stroke="rgb(219,210,222)" stroke-width="1" opacity="0.996078431372549" d="M 224.5 214 L 224 215.5 L 223.5 218 L 223 215.5 L 224.5 214 Z " /><path fill="rgb(219,210,222)" stroke="rgb(219,210,222)" stroke-width="1" opacity="0.996078431372549" d="M 74.5 217 L 75 219.5 L 74 219.5 L 74.5 217 Z " /><path fill="rgb(219,210,222)" stroke="rgb(219,210,222)" stroke-width="1" opacity="0.996078431372549" d="M 173.5 217 L 174 219.5 L 173 219.5 L 173.5 217 Z " /><path fill="rgb(219,210,222)" stroke="rgb(219,210,222)" stroke-width="1" opacity="0.996078431372549" d="M 239.5 217 L 240 219.5 L 239 219.5 L 239.5 217 Z " /><path fill="rgb(219,210,222)" stroke="rgb(219,210,222)" stroke-width="1" opacity="0.996078431372549" d="M 174.5 222 L 175.5 224 L 174.5 222 Z " /><path fill="rgb(219,210,222)" stroke="rgb(219,210,222)" stroke-width="1" opacity="0.996078431372549" d="M 238.5 222 L 235.5 226 L 238.5 222 Z " /><path fill="rgb(219,210,222)" stroke="rgb(219,210,222)" stroke-width="1" opacity="0.996078431372549" d="M 26.5 223 L 27.5 225 L 26.5 223 Z " /><path fill="rgb(219,210,222)" stroke="rgb(219,210,222)" stroke-width="1" opacity="0.996078431372549" d="M 39.5 223 L 37.5 226 L 39.5 223 Z " /><path fill="rgb(219,210,222)" stroke="rgb(219,210,222)" stroke-width="1" opacity="0.996078431372549" d="M 138.5 223 L 136.5 226 L 138.5 223 Z " /><path fill="rgb(219,210,222)" stroke="rgb(219,210,222)" stroke-width="1" opacity="0.996078431372549" d="M 31.5 226 L 35 226.5 L 31.5 227 L 31.5 226 Z " /><path fill="rgb(219,210,222)" stroke="rgb(219,210,222)" stroke-width="1" opacity="0.996078431372549" d="M 80.5 226 L 85 226.5 L 80.5 227 L 80.5 226 Z " /><path fill="rgb(219,210,222)" stroke="rgb(219,210,222)" stroke-width="1" opacity="0.996078431372549" d="M 130.5 226 L 134 226.5 L 130.5 227 L 130.5 226 Z " /><path fill="rgb(219,210,222)" stroke="rgb(219,210,222)" stroke-width="1" opacity="0.996078431372549" d="M 179.5 226 L 184 226.5 L 179.5 227 L 179.5 226 Z " /><path fill="rgb(219,210,222)" stroke="rgb(219,210,222)" stroke-width="1" opacity="0.996078431372549" d="M 229.5 226 L 234 226.5 L 229.5 227 L 229.5 226 Z " /><path fill="rgb(219,210,222)" stroke="rgb(219,210,222)" stroke-width="1" opacity="0.996078431372549" d="M 62.5 228 L 64.5 231 L 62.5 228 Z " /><path fill="rgb(219,210,222)" stroke="rgb(219,210,222)" stroke-width="1" opacity="0.996078431372549" d="M 102.5 228 L 100.5 231 L 102.5 228 Z " /><path fill="rgb(219,210,222)" stroke="rgb(219,210,222)" stroke-width="1" opacity="0.996078431372549" d="M 112.5 228 L 113.5 230 L 112.5 228 Z " /><path fill="rgb(219,210,222)" stroke="rgb(219,210,222)" stroke-width="1" opacity="0.996078431372549" d="M 161.5 228 L 163.5 231 L 161.5 228 Z " /><path fill="rgb(219,210,222)" stroke="rgb(219,210,222)" stroke-width="1" opacity="0.996078431372549" d="M 201.5 228 L 199.5 231 L 201.5 228 Z " /><path fill="rgb(219,210,222)" stroke="rgb(219,210,222)" stroke-width="1" opacity="0.996078431372549" d="M 211.5 228 L 213.5 231 L 211.5 228 Z " /><path fill="rgb(219,210,222)" stroke="rgb(219,210,222)" stroke-width="1" opacity="0.996078431372549" d="M 99.5 232 L 100 237.5 L 99 237.5 L 99.5 232 Z " /><path fill="rgb(219,210,222)" stroke="rgb(219,210,222)" stroke-width="1" opacity="0.996078431372549" d="M 264 232 L 512 232.5 L 265 233 L 265 278.5 L 265.5 279 L 511.5 279 L 511.5 280 L 264.5 280 L 264 279.5 L 264 232 Z " /><path fill="rgb(219,210,222)" stroke="rgb(219,210,222)" stroke-width="1" opacity="0.996078431372549" d="M 115.5 233 L 116 236.5 L 115 236.5 L 115.5 233 Z " /><path fill="rgb(219,210,222)" stroke="rgb(219,210,222)" stroke-width="1" opacity="0.996078431372549" d="M 198.5 233 L 199 236.5 L 198 236.5 L 198.5 233 Z " /><path fill="rgb(219,210,222)" stroke="rgb(219,210,222)" stroke-width="1" opacity="0.996078431372549" d="M 214.5 233 L 215 236.5 L 214 236.5 L 214.5 233 Z " /><path fill="rgb(219,210,222)" stroke="rgb(219,210,222)" stroke-width="1" opacity="0.996078431372549" d="M 64.5 239 L 62.5 242 L 64.5 239 Z " /><path fill="rgb(219,210,222)" stroke="rgb(219,210,222)" stroke-width="1" opacity="0.996078431372549" d="M 100.5 239 L 102.5 242 L 100.5 239 Z " /><path fill="rgb(219,210,222)" stroke="rgb(219,210,222)" stroke-width="1" opacity="0.996078431372549" d="M 199.5 239 L 201.5 242 L 199.5 239 Z " /><path fill="rgb(219,210,222)" stroke="rgb(219,210,222)" stroke-width="1" opacity="0.996078431372549" d="M 213.5 239 L 211.5 242 L 213.5 239 Z " /><path fill="rgb(219,210,222)" stroke="rgb(219,210,222)" stroke-width="1" opacity="0.996078431372549" d="M 113.5 240 L 112.5 242 L 113.5 240 Z " /><path fill="rgb(219,210,222)" stroke="rgb(219,210,222)" stroke-width="1" opacity="0.996078431372549" d="M 31.5 243 L 35 243.5 L 31.5 244 L 31.5 243 Z " /><path fill="rgb(219,210,222)" stroke="rgb(219,210,222)" stroke-width="1" opacity="0.996078431372549" d="M 80.5 243 L 85 243.5 L 80.5 244 L 80.5 243 Z " /><path fill="rgb(219,210,222)" stroke="rgb(219,210,222)" stroke-width="1" opacity="0.996078431372549" d="M 130.5 243 L 134 243.5 L 130.5 244 L 130.5 243 Z " /><path fill="rgb(219,210,222)" stroke="rgb(219,210,222)" stroke-width="1" opacity="0.996078431372549" d="M 179.5 243 L 184 243.5 L 179.5 244 L 179.5 243 Z " /><path fill="rgb(219,210,222)" stroke="rgb(219,210,222)" stroke-width="1" opacity="0.996078431372549" d="M 229.5 243 L 234 243.5 L 229.5 244 L 229.5 243 Z " /><path fill="rgb(219,210,222)" stroke="rgb(219,210,222)" stroke-width="1" opacity="0.996078431372549" d="M 37.5 244 L 39.5 247 L 37.5 244 Z " /><path fill="rgb(219,210,222)" stroke="rgb(219,210,222)" stroke-width="1" opacity="0.996078431372549" d="M 78.5 244 L 75.5 248 L 78.5 244 Z " /><path fill="rgb(219,210,222)" stroke="rgb(219,210,222)" stroke-width="1" opacity="0.996078431372549" d="M 136.5 244 L 139.5 248 L 136.5 244 Z " /><path fill="rgb(219,210,222)" stroke="rgb(219,210,222)" stroke-width="1" opacity="0.996078431372549" d="M 177.5 244 L 174.5 248 L 177.5 244 Z " /><path fill="rgb(219,210,222)" stroke="rgb(219,210,222)" stroke-width="1" opacity="0.996078431372549" d="M 235.5 244 L 238.5 248 L 235.5 244 Z " /><path fill="rgb(219,210,222)" stroke="rgb(219,210,222)" stroke-width="1" opacity="0.996078431372549" d="M 27.5 245 L 26.5 247 L 27.5 245 Z " /><path fill="rgb(219,210,222)" stroke="rgb(219,210,222)" stroke-width="1" opacity="0.996078431372549" d="M 90.5 249 L 91 253.5 L 90 253.5 L 90.5 249 Z " /><path fill="rgb(219,210,222)" stroke="rgb(219,210,222)" stroke-width="1" opacity="0.996078431372549" d="M 74.5 250 L 75 252.5 L 74 252.5 L 74.5 250 Z " /><path fill="rgb(219,210,222)" stroke="rgb(219,210,222)" stroke-width="1" opacity="0.996078431372549" d="M 173.5 250 L 174 252.5 L 173 252.5 L 173.5 250 Z " /><path fill="rgb(219,210,222)" stroke="rgb(219,210,222)" stroke-width="1" opacity="0.996078431372549" d="M 239.5 250 L 240 252.5 L 239 252.5 L 239.5 250 Z " /><path fill="rgb(219,210,222)" stroke="rgb(219,210,222)" stroke-width="1" opacity="0.996078431372549" d="M 75.5 255 L 78.5 259 L 75.5 255 Z " /><path fill="rgb(219,210,222)" stroke="rgb(219,210,222)" stroke-width="1" opacity="0.996078431372549" d="M 139.5 255 L 136.5 259 L 139.5 255 Z " /><path fill="rgb(219,210,222)" stroke="rgb(219,210,222)" stroke-width="1" opacity="0.996078431372549" d="M 174.5 255 L 177.5 259 L 174.5 255 Z " /><path fill="rgb(219,210,222)" stroke="rgb(219,210,222)" stroke-width="1" opacity="0.996078431372549" d="M 238.5 255 L 237.5 257 L 238.5 255 Z " /><path fill="rgb(219,210,222)" stroke="rgb(219,210,222)" stroke-width="1" opacity="0.996078431372549" d="M 26.5 256 L 27.5 258 L 26.5 256 Z " /><path fill="rgb(219,210,222)" stroke="rgb(219,210,222)" stroke-width="1" opacity="0.996078431372549" d="M 39.5 256 L 37.5 259 L 39.5 256 Z " /><path fill="rgb(219,210,222)" stroke="rgb(219,210,222)" stroke-width="1" opacity="0.996078431372549" d="M 31.5 259 L 36 259.5 L 31.5 260 L 31.5 259 Z " /><path fill="rgb(219,210,222)" stroke="rgb(219,210,222)" stroke-width="1" opacity="0.996078431372549" d="M 80.5 259 L 85 259.5 L 80.5 260 L 80.5 259 Z " /><path fill="rgb(219,210,222)" stroke="rgb(219,210,222)" stroke-width="1" opacity="0.996078431372549" d="M 130.5 259 L 135 259.5 L 130.5 260 L 130.5 259 Z " /><path fill="rgb(219,210,222)" stroke="rgb(219,210,222)" stroke-width="1" opacity="0.996078431372549" d="M 179.5 259 L 184 259.5 L 179.5 260 L 179.5 259 Z " /><path fill="rgb(219,210,222)" stroke="rgb(219,210,222)" stroke-width="1" opacity="0.996078431372549" d="M 229.5 259 L 234 259.5 L 229.5 260 L 229.5 259 Z " /><path fill="rgb(219,210,222)" stroke="rgb(219,210,222)" stroke-width="1" opacity="0.996078431372549" d="M 0 327 L 17 327.5 L 16 328.5 L 16 359.5 L 20 373.5 L 0 374 L 0 327 Z " /><path fill="rgb(242,242,246)" stroke="rgb(242,242,246)" stroke-width="1" opacity="1" d="M 231.5 111 L 238 114.5 L 239 122.5 Q 237.5 128.5 228.5 127 L 225 124.5 L 223 118.5 L 227.5 112 L 231.5 111 Z " /><path fill="rgb(242,242,246)" stroke="rgb(242,242,246)" stroke-width="1" opacity="1" d="M 29.5 112 Q 38.3 110.3 40 115.5 L 41 121.5 L 36.5 127 Q 28.2 128.3 26 123.5 L 25 117.5 L 29.5 112 Z " /><path fill="rgb(242,242,246)" stroke="rgb(242,242,246)" stroke-width="1" opacity="1" d="M 79.5 112 Q 86.8 110.8 89 114.5 L 90 122.5 L 87.5 126 L 79.5 127 Q 73.5 125.5 75 116.5 L 77.5 113 L 79.5 112 Z " /><path fill="rgb(242,242,246)" stroke="rgb(242,242,246)" stroke-width="1" opacity="1" d="M 128.5 112 Q 135.3 111.1 138 113 L 140 116.5 L 140 121.5 L 135.5 127 Q 127.2 128.3 125 123.5 L 124 117.5 L 128.5 112 Z " /><path fill="rgb(242,242,246)" stroke="rgb(242,242,246)" stroke-width="1" opacity="1" d="M 178.5 112 Q 185.8 110.8 188 114.5 L 190 119.5 L 186.5 126 L 178.5 127 Q 172.5 125.5 174 116.5 L 176 113 L 178.5 112 Z " /><path fill="rgb(242,242,246)" stroke="rgb(242,242,246)" stroke-width="1" opacity="1" d="M 55.5 128 Q 62 127 64 130.5 L 66 137.5 L 64 142 L 56.5 144 L 51 140.5 L 50 133.5 L 53.5 129 L 55.5 128 Z " /><path fill="rgb(242,242,246)" stroke="rgb(242,242,246)" stroke-width="1" opacity="1" d="M 105.5 128 Q 112.4 127.1 114 131.5 L 115 138.5 L 111.5 143 L 105.5 144 L 100 139.5 Q 98.3 130.8 103.5 129 L 105.5 128 Z " /><path fill="rgb(242,242,246)" stroke="rgb(242,242,246)" stroke-width="1" opacity="1" d="M 154.5 128 Q 161 127 163 130.5 L 165 137.5 L 163 142 L 155.5 144 L 150 140.5 L 149 133.5 L 152.5 129 L 154.5 128 Z " /><path fill="rgb(242,242,246)" stroke="rgb(242,242,246)" stroke-width="1" opacity="1" d="M 204.5 128 Q 212.4 127.1 214 132.5 Q 215.3 140.8 210.5 143 L 205.5 144 L 200 140.5 L 199 132.5 L 204.5 128 Z " /><path fill="rgb(242,242,246)" stroke="rgb(242,242,246)" stroke-width="1" opacity="1" d="M 265 138 L 511.5 138 L 512 138.5 L 512 185 L 265.5 185 L 265 184.5 L 265 138 Z " /><path fill="rgb(242,242,246)" stroke="rgb(242,242,246)" stroke-width="1" opacity="1" d="M 29.5 145 Q 38.3 143.3 40 148.5 L 41 154.5 L 37.5 159 L 30.5 160 L 26 156.5 L 25 150.5 L 29.5 145 Z " /><path fill="rgb(242,242,246)" stroke="rgb(242,242,246)" stroke-width="1" opacity="1" d="M 79.5 145 Q 87.8 143.7 90 148.5 L 91 152.5 L 87.5 159 L 79.5 160 Q 73.5 158.5 75 149.5 L 77.5 146 L 79.5 145 Z " /><path fill="rgb(242,242,246)" stroke="rgb(242,242,246)" stroke-width="1" opacity="1" d="M 128.5 145 Q 137.3 143.3 139 148.5 L 140 154.5 L 135.5 160 Q 127.2 161.3 125 156.5 L 124 151.5 L 128.5 145 Z " /><path fill="rgb(242,242,246)" stroke="rgb(242,242,246)" stroke-width="1" opacity="1" d="M 178.5 145 Q 187.3 143.3 189 148.5 L 190 152.5 L 186.5 159 L 178.5 160 Q 172.5 158.5 174 149.5 L 176.5 146 L 178.5 145 Z " /><path fill="rgb(242,242,246)" stroke="rgb(242,242,246)" stroke-width="1" opacity="1" d="M 228.5 145 Q 237.5 143.5 239 149.5 Q 240.5 158.5 234.5 160 Q 227.3 161.3 225 157.5 L 223 151.5 L 226.5 146 L 228.5 145 Z " /><path fill="rgb(242,242,246)" stroke="rgb(242,242,246)" stroke-width="1" opacity="1" d="M 55.5 161 Q 61.7 160.4 64 163 L 66 170.5 L 61.5 176 L 56.5 177 L 51 173.5 L 50 166.5 L 53.5 162 L 55.5 161 Z " /><path fill="rgb(242,242,246)" stroke="rgb(242,242,246)" stroke-width="1" opacity="1" d="M 105.5 161 Q 113.4 160.1 115 165.5 Q 116.8 174.3 111.5 176 L 105.5 177 L 100 172.5 Q 98.3 163.8 103.5 162 L 105.5 161 Z " /><path fill="rgb(242,242,246)" stroke="rgb(242,242,246)" stroke-width="1" opacity="1" d="M 154.5 161 Q 160.7 160.4 163 163 L 165 170.5 L 160.5 176 L 155.5 177 L 150 173.5 L 149 166.5 L 152.5 162 L 154.5 161 Z " /><path fill="rgb(242,242,246)" stroke="rgb(242,242,246)" stroke-width="1" opacity="1" d="M 204.5 161 Q 212.4 160.1 214 165.5 Q 215.8 174.3 210.5 176 L 204.5 177 L 199 172.5 Q 197.3 163.8 202.5 162 L 204.5 161 Z " /><path fill="rgb(242,242,246)" stroke="rgb(242,242,246)" stroke-width="1" opacity="1" d="M 29.5 178 Q 38.3 176.3 40 181.5 L 41 187.5 L 36.5 193 Q 27.8 194.8 26 189.5 L 25 183.5 L 29.5 178 Z " /><path fill="rgb(242,242,246)" stroke="rgb(242,242,246)" stroke-width="1" opacity="1" d="M 79.5 178 Q 86.8 176.8 89 180.5 L 90 188.5 L 87.5 192 L 79.5 193 Q 73.5 191.5 75 182.5 L 79.5 178 Z " /><path fill="rgb(242,242,246)" stroke="rgb(242,242,246)" stroke-width="1" opacity="1" d="M 128.5 178 Q 138.3 176.3 140 182.5 Q 141.5 191.5 135.5 193 Q 127.2 194.3 125 189.5 L 124 184.5 L 128.5 178 Z " /><path fill="rgb(242,242,246)" stroke="rgb(242,242,246)" stroke-width="1" opacity="1" d="M 178.5 178 Q 185.8 176.8 188 180.5 L 190 185.5 L 186.5 192 L 178.5 193 Q 172.5 191.5 174 182.5 L 178.5 178 Z " /><path fill="rgb(242,242,246)" stroke="rgb(242,242,246)" stroke-width="1" opacity="1" d="M 227.5 178 Q 234.3 177.1 237 179 L 239 182.5 L 239 188.5 Q 237.5 194.5 228.5 193 L 224 189.5 L 223 184.5 L 227.5 178 Z " /><path fill="rgb(242,242,246)" stroke="rgb(242,242,246)" stroke-width="1" opacity="1" d="M 55.5 194 Q 61.7 193.4 64 196 L 66 203.5 L 64 208 Q 61.7 210.6 55.5 210 L 51 206.5 L 50 199.5 L 53.5 195 L 55.5 194 Z " /><path fill="rgb(242,242,246)" stroke="rgb(242,242,246)" stroke-width="1" opacity="1" d="M 105.5 194 Q 112.4 193.1 114 197.5 L 115 204.5 L 111.5 209 L 105.5 210 L 100 205.5 Q 98.3 196.8 103.5 195 L 105.5 194 Z " /><path fill="rgb(242,242,246)" stroke="rgb(242,242,246)" stroke-width="1" opacity="1" d="M 154.5 194 Q 160.7 193.4 163 196 L 165 203.5 L 163 208 Q 160.7 210.6 154.5 210 L 150 206.5 L 149 199.5 L 152.5 195 L 154.5 194 Z " /><path fill="rgb(242,242,246)" stroke="rgb(242,242,246)" stroke-width="1" opacity="1" d="M 204.5 194 Q 212.4 193.1 214 198.5 Q 215.8 207.3 210.5 209 L 204.5 210 L 200 206.5 L 199 198.5 L 204.5 194 Z " /><path fill="rgb(242,242,246)" stroke="rgb(242,242,246)" stroke-width="1" opacity="1" d="M 30.5 211 Q 38.5 209.5 40 214.5 L 41 220.5 L 36.5 226 Q 28.2 227.3 26 222.5 L 25 216.5 L 28.5 212 L 30.5 211 Z " /><path fill="rgb(242,242,246)" stroke="rgb(242,242,246)" stroke-width="1" opacity="1" d="M 79.5 211 Q 87.8 209.7 90 214.5 L 91 218.5 L 87.5 225 L 79.5 226 L 76 223.5 L 75 215.5 L 77.5 212 L 79.5 211 Z " /><path fill="rgb(242,242,246)" stroke="rgb(242,242,246)" stroke-width="1" opacity="1" d="M 129.5 211 Q 137.5 209.5 139 214.5 L 140 220.5 L 135.5 226 Q 127.2 227.3 125 222.5 L 124 217.5 L 127.5 212 L 129.5 211 Z " /><path fill="rgb(242,242,246)" stroke="rgb(242,242,246)" stroke-width="1" opacity="1" d="M 178.5 211 Q 186.8 209.7 189 214.5 L 190 218.5 L 189 222.5 L 186.5 225 L 178.5 226 L 176 225 L 174 221.5 L 174 215.5 L 176.5 212 L 178.5 211 Z " /><path fill="rgb(242,242,246)" stroke="rgb(242,242,246)" stroke-width="1" opacity="1" d="M 228.5 211 Q 237.5 209.5 239 215.5 Q 240.5 224.5 234.5 226 Q 227.3 227.3 225 223.5 L 223 218.5 L 226.5 212 L 228.5 211 Z " /><path fill="rgb(242,242,246)" stroke="rgb(242,242,246)" stroke-width="1" opacity="1" d="M 56.5 227 Q 62.9 227.1 65 231.5 L 66 236.5 L 61.5 242 L 56.5 243 L 51 239.5 L 50 232.5 L 53.5 228 L 56.5 227 Z " /><path fill="rgb(242,242,246)" stroke="rgb(242,242,246)" stroke-width="1" opacity="1" d="M 105.5 227 Q 113.4 226.1 115 231.5 Q 116.8 240.3 111.5 242 L 105.5 243 L 100 238.5 Q 98.3 229.8 103.5 228 L 105.5 227 Z " /><path fill="rgb(242,242,246)" stroke="rgb(242,242,246)" stroke-width="1" opacity="1" d="M 155.5 227 Q 161.9 227.1 164 231.5 L 165 236.5 L 163 241 L 155.5 243 L 150 239.5 L 149 232.5 L 152.5 228 L 155.5 227 Z " /><path fill="rgb(242,242,246)" stroke="rgb(242,242,246)" stroke-width="1" opacity="1" d="M 204.5 227 Q 212.4 226.1 214 231.5 Q 215.8 240.3 210.5 242 L 204.5 243 L 199 238.5 Q 197.3 229.8 202.5 228 L 204.5 227 Z " /><path fill="rgb(242,242,246)" stroke="rgb(242,242,246)" stroke-width="1" opacity="1" d="M 265 233 L 511.5 233 L 512 233.5 L 512 279 L 265.5 279 L 265 278.5 L 265 233 Z " /><path fill="rgb(242,242,246)" stroke="rgb(242,242,246)" stroke-width="1" opacity="1" d="M 29.5 244 Q 38.3 242.3 40 247.5 L 41 253.5 L 36.5 259 Q 27.8 260.8 26 255.5 L 25 249.5 L 29.5 244 Z " /><path fill="rgb(242,242,246)" stroke="rgb(242,242,246)" stroke-width="1" opacity="1" d="M 79.5 244 Q 86.8 242.8 89 246.5 L 90 254.5 L 87.5 258 L 79.5 259 Q 73.5 257.5 75 248.5 L 79.5 244 Z " /><path fill="rgb(242,242,246)" stroke="rgb(242,242,246)" stroke-width="1" opacity="1" d="M 128.5 244 Q 138.3 242.3 140 248.5 Q 141.5 257.5 135.5 259 Q 126.8 260.8 125 255.5 L 124 250.5 L 128.5 244 Z " /><path fill="rgb(242,242,246)" stroke="rgb(242,242,246)" stroke-width="1" opacity="1" d="M 178.5 244 Q 185.8 242.8 188 246.5 L 190 251.5 L 186.5 258 L 178.5 259 Q 172.5 257.5 174 248.5 L 178.5 244 Z " /><path fill="rgb(242,242,246)" stroke="rgb(242,242,246)" stroke-width="1" opacity="1" d="M 228.5 244 Q 237.5 242.5 239 248.5 L 239 254.5 L 237 258 Q 234.6 259.8 228.5 259 L 224 255.5 L 223 250.5 L 226.5 245 L 228.5 244 Z " /><path fill="rgb(242,242,246)" stroke="rgb(242,242,246)" stroke-width="1" opacity="1" d="M 17.5 327 L 511.5 327 L 512 327.5 L 512 374 L 20.5 374 L 19 372.5 L 16 359.5 L 16 328.5 L 17.5 327 Z " /><path fill="rgb(219,69,85)" stroke="rgb(219,69,85)" stroke-width="1" opacity="0.8274509803921568" d="M 0.5 406 L 1 408.5 L 0 408.5 L 0.5 406 Z " /><path fill="rgb(219,69,85)" stroke="rgb(219,69,85)" stroke-width="1" opacity="0.8274509803921568" d="M 511.5 406 L 512 408.5 L 511 408.5 L 511.5 406 Z " /><path fill="rgb(219,69,85)" stroke="rgb(219,69,85)" stroke-width="1" opacity="0.8274509803921568" d="M 2.5 413 L 7.5 419 L 2.5 413 Z " /><path fill="rgb(219,69,85)" stroke="rgb(219,69,85)" stroke-width="1" opacity="0.8274509803921568" d="M 509.5 413 L 504.5 419 L 509.5 413 Z " /><path fill="rgb(219,69,85)" stroke="rgb(219,69,85)" stroke-width="1" opacity="0.8274509803921568" d="M 11.5 420 L 14 420.5 L 11.5 421 L 11.5 420 Z " /><path fill="rgb(219,69,85)" stroke="rgb(219,69,85)" stroke-width="1" opacity="0.8274509803921568" d="M 498.5 420 L 501 420.5 L 498.5 421 L 498.5 420 Z " /><path fill="rgb(219,70,85)" stroke="rgb(219,70,85)" stroke-width="1" opacity="1" d="M 0 280 L 16 280 L 16 326 L 0 326 L 0 280 Z " /><path fill="rgb(219,70,85)" stroke="rgb(219,70,85)" stroke-width="1" opacity="1" d="M 0 374 L 19.5 374 L 21 375.5 Q 24.9 385.6 32.5 392 L 46.5 401 L 61.5 405 L 512 405.5 L 510 412.5 L 503.5 419 L 497.5 421 L 14.5 421 Q 5.6 419.4 2 412.5 L 0 405.5 L 0 374 Z " /><path fill="rgb(187,78,108)" stroke="rgb(187,78,108)" stroke-width="1" opacity="0.13333333333333333" d="M 14.5 90 L 498 90.5 L 14.5 91 L 14.5 90 Z " /><path fill="rgb(187,78,108)" stroke="rgb(187,78,108)" stroke-width="1" opacity="0.13333333333333333" d="M 6.5 93 L 3.5 97 L 6.5 93 Z " /><path fill="rgb(187,78,108)" stroke="rgb(187,78,108)" stroke-width="1" opacity="0.13333333333333333" d="M 505.5 93 L 511 99.5 L 509 98.5 L 505.5 93 Z " /><path fill="rgb(187,78,108)" stroke="rgb(187,78,108)" stroke-width="1" opacity="0.13333333333333333" d="M 3.5 415 L 6.5 419 L 3.5 415 Z " /><path fill="rgb(187,78,108)" stroke="rgb(187,78,108)" stroke-width="1" opacity="0.13333333333333333" d="M 508.5 415 L 505.5 419 L 508.5 415 Z " /><path fill="rgb(187,78,108)" stroke="rgb(187,78,108)" stroke-width="1" opacity="0.13333333333333333" d="M 14.5 421 L 498 421.5 L 14.5 422 L 14.5 421 Z " /></svg>